{"glyphs":{"0":{"ha":857,"x_min":54,"x_max":815,"o":"m 401 -12 q 199 38 279 -12 q 86 181 118 89 q 78 392 54 272 q 152 558 96 488 q 292 666 208 628 q 481 704 376 704 q 676 656 599 704 q 785 519 754 607 q 793 314 815 432 q 720 142 775 215 q 583 28 665 68 q 401 -12 501 -12 m 419 67 q 540 120 488 67 q 613 279 593 174 q 619 461 633 383 q 562 581 604 539 q 451 624 519 624 q 324 569 376 624 q 253 417 271 514 q 249 234 235 313 q 308 111 264 156 q 419 67 351 67 z "},"1":{"ha":556,"x_min":46,"x_max":522,"o":"m 46 -4 q 49 37 46 18 q 61 71 53 56 q 117 87 97 76 q 148 123 138 97 q 168 199 158 149 l 225 497 q 230 571 235 546 q 205 607 225 596 q 146 624 185 618 q 144 659 144 640 q 144 699 143 678 q 233 696 188 697 q 331 694 279 694 q 427 696 379 694 q 522 699 475 697 q 519 660 522 679 q 508 624 517 642 q 452 606 472 618 q 421 567 432 594 q 399 488 410 540 l 344 200 q 338 123 335 149 q 361 88 340 97 q 421 71 382 78 q 425 35 424 54 q 424 -4 426 15 q 331 -1 376 -1 q 235 0 285 0 q 134 -1 183 0 q 46 -4 85 -1 z "},"2":{"ha":692,"x_min":15,"x_max":642,"o":"m 403 703 q 274 688 339 703 q 150 638 208 674 q 141 546 149 593 q 121 456 133 499 q 165 442 139 446 q 219 439 192 438 q 251 548 232 507 q 297 607 271 589 q 358 625 324 625 q 433 592 408 625 q 446 499 458 558 q 399 397 436 444 q 294 297 361 349 q 203 229 239 257 q 140 180 168 201 q 85 135 113 158 q 18 78 57 111 q 19 34 15 56 q 32 -4 22 13 q 165 -1 103 -1 q 292 0 228 0 q 414 -2 361 0 q 490 -4 467 -4 q 538 4 521 -4 q 567 36 556 13 q 570 126 565 76 q 586 224 575 176 q 543 235 569 232 q 494 238 517 239 q 467 169 482 186 q 425 151 453 151 q 383 153 411 151 q 321 156 356 156 q 267 155 294 156 q 210 151 240 154 l 214 139 q 281 191 257 172 q 317 220 304 210 q 340 236 331 231 q 358 249 349 242 q 387 269 368 256 q 439 306 406 282 q 539 383 500 349 q 599 449 578 417 q 626 524 621 482 q 583 656 642 608 q 403 703 524 703 z "},"3":{"ha":683,"x_min":3,"x_max":632,"o":"m 138 638 q 128 543 136 592 q 107 456 121 494 q 155 442 128 446 q 207 439 182 438 q 263 585 226 544 q 347 625 299 625 q 421 591 396 625 q 435 494 446 557 q 360 365 421 417 q 196 282 299 313 q 194 242 190 263 q 210 208 199 221 q 364 158 319 211 q 390 19 408 104 q 313 -108 374 -60 q 154 -157 251 -157 q 88 -150 118 -157 q 38 -133 58 -143 q 22 -149 29 -137 q 9 -172 14 -160 q 3 -197 4 -185 q 161 -237 53 -237 q 347 -204 263 -237 q 488 -110 431 -171 q 567 35 546 -49 q 567 172 586 108 q 498 275 549 235 q 368 321 447 315 l 358 285 q 499 358 449 321 q 576 431 550 394 q 611 506 601 468 q 576 648 632 593 q 385 703 519 703 q 252 686 314 703 q 138 638 190 669 z "},"4":{"ha":772,"x_min":11,"x_max":675,"o":"m 344 -237 q 322 -181 315 -222 l 363 39 l 376 106 l 408 282 q 431 390 422 347 q 449 465 440 432 q 472 532 458 499 l 485 519 q 422 436 457 481 q 347 344 388 392 q 265 251 307 297 q 181 163 222 206 q 103 88 139 121 l 128 143 l 422 143 l 499 147 l 625 147 q 675 118 658 147 q 653 64 663 94 q 638 0 643 33 q 268 -2 418 0 q 36 -7 118 -4 q 17 37 24 13 q 13 88 11 61 q 289 393 153 240 q 557 703 425 546 q 610 699 585 703 q 656 688 635 696 l 489 -212 q 344 -237 410 -211 z "},"5":{"ha":660,"x_min":-26,"x_max":628,"o":"m 82 324 q 107 267 82 289 q 263 231 200 263 q 351 147 325 199 q 365 29 378 94 q 323 -67 356 -25 q 240 -132 290 -108 q 124 -156 189 -156 q 65 -151 96 -156 q 8 -135 35 -146 q -26 -201 -19 -158 q 42 -228 3 -219 q 132 -237 82 -237 q 315 -203 229 -237 q 462 -102 401 -168 q 540 56 522 -36 q 521 233 561 157 q 390 358 481 310 q 168 417 300 406 l 182 386 l 244 590 l 217 533 q 365 538 285 538 q 540 539 444 539 q 597 569 583 539 q 608 667 601 618 q 628 760 615 717 q 585 770 610 768 q 533 771 560 772 q 509 717 528 740 q 443 694 490 694 q 323 695 383 694 q 199 699 263 696 l 82 324 z "},"6":{"ha":775,"x_min":53,"x_max":732,"o":"m 90 397 q 206 649 118 542 q 425 817 293 756 q 718 886 557 878 q 722 821 732 863 q 401 674 514 782 q 260 404 289 567 q 249 226 242 301 q 286 109 256 150 q 368 68 317 68 q 460 112 421 68 q 513 231 499 156 q 497 394 532 332 q 388 457 463 457 q 311 448 344 457 q 243 417 278 439 l 263 489 q 362 536 317 524 q 460 549 407 549 q 650 469 588 549 q 688 257 713 389 q 625 114 671 174 q 509 21 579 54 q 351 -12 439 -12 q 122 97 192 -12 q 90 397 53 206 z "},"7":{"ha":657,"x_min":107,"x_max":654,"o":"m 632 699 q 649 669 643 686 q 654 632 654 651 q 534 461 583 532 q 453 341 485 390 q 400 255 421 292 q 364 186 379 218 q 330 95 343 142 q 309 -10 317 49 q 297 -150 301 -69 q 223 -187 263 -162 q 158 -236 183 -211 q 126 -212 138 -231 q 114 -150 114 -193 q 123 -72 114 -112 q 157 24 132 -31 q 229 154 182 78 q 351 336 276 231 q 536 585 426 442 l 554 539 l 335 539 q 250 516 278 539 q 203 429 222 493 q 150 432 175 428 q 107 446 125 436 q 156 699 144 574 q 285 695 215 696 q 410 694 354 694 q 476 694 443 694 q 549 696 510 694 q 632 699 588 697 z "},"8":{"ha":743,"x_min":39,"x_max":715,"o":"m 469 885 q 616 857 561 885 q 693 783 671 829 q 703 682 715 738 q 637 569 689 614 q 513 490 585 524 l 440 536 q 510 595 485 564 q 544 674 536 626 q 530 778 558 744 q 454 811 501 811 q 388 790 417 811 q 347 728 358 769 q 351 647 335 682 q 397 585 367 611 q 456 538 426 558 q 532 480 492 513 q 605 403 572 447 q 651 306 638 360 q 647 183 664 251 q 538 36 619 85 q 329 -12 456 -12 q 164 16 232 -12 q 67 99 96 44 q 57 238 39 154 q 128 368 75 315 q 286 469 182 421 l 353 419 q 265 347 296 388 q 225 250 235 307 q 242 115 210 164 q 343 65 275 65 q 425 91 392 65 q 471 172 458 117 q 467 278 486 233 q 406 361 449 322 q 306 443 364 400 q 230 512 265 474 q 178 599 194 550 q 176 708 161 649 q 276 838 199 792 q 469 885 354 885 z "},"9":{"ha":771,"x_min":26,"x_max":718,"o":"m 436 703 q 605 654 539 703 q 694 516 671 606 q 692 301 718 426 q 572 31 661 149 q 345 -156 482 -86 q 38 -236 208 -225 q 28 -208 31 -225 q 31 -171 26 -190 q 238 -103 151 -149 q 383 5 325 -58 q 474 144 440 68 q 522 306 507 221 q 518 542 551 461 q 414 622 485 622 q 322 578 360 622 q 271 458 285 533 q 267 340 260 396 q 306 248 274 283 q 401 213 339 213 q 465 222 432 213 q 531 253 499 232 l 513 182 q 420 135 467 150 q 322 121 374 121 q 173 163 229 121 q 99 276 117 204 q 99 439 81 349 q 211 632 125 561 q 436 703 297 703 z "},"A":{"ha":964,"x_min":-42,"x_max":886,"o":"m -42 -4 q -38 35 -42 17 q -28 71 -35 53 q 17 92 -1 78 q 58 137 36 107 q 114 221 81 167 q 204 374 157 294 q 301 540 251 453 q 408 727 351 628 q 529 939 464 826 q 564 946 546 944 q 600 947 582 947 q 674 691 639 818 q 740 443 708 564 q 797 211 771 322 q 822 126 811 154 q 847 87 833 97 q 881 71 861 76 q 885 36 885 56 q 885 -4 886 17 q 826 -1 860 -1 q 761 0 793 0 q 708 0 729 0 q 667 0 690 0 q 619 -1 644 0 q 568 -2 593 -1 q 522 -4 543 -3 q 526 36 522 17 q 536 71 529 56 q 610 101 596 79 q 611 182 625 124 q 563 381 588 282 q 510 578 538 481 q 488 667 496 622 q 475 767 481 713 l 499 767 q 450 665 474 711 q 401 572 426 619 q 299 388 351 481 q 193 203 247 294 q 161 131 167 158 q 171 91 156 104 q 219 71 186 78 q 224 35 222 54 q 221 -4 225 15 q 177 -1 201 -1 q 128 0 153 0 q 79 0 103 0 q 15 -1 44 0 q -42 -4 -14 -1 m 207 271 l 240 353 l 597 353 l 604 281 q 474 280 542 281 q 337 277 406 279 q 207 271 268 275 z "},"Á":{"ha":964,"x_min":-42,"x_max":886,"o":"m -42 -4 q -38 35 -42 17 q -28 71 -35 53 q 17 92 -1 78 q 58 137 36 107 q 114 221 81 167 q 204 374 157 294 q 301 540 251 453 q 408 727 351 628 q 529 939 464 826 q 564 946 546 944 q 600 947 582 947 q 674 691 639 818 q 740 443 708 564 q 797 211 771 322 q 822 126 811 154 q 847 87 833 97 q 881 71 861 76 q 885 36 885 56 q 885 -4 886 17 q 826 -1 860 -1 q 761 0 793 0 q 708 0 729 0 q 667 0 690 0 q 619 -1 644 0 q 568 -2 593 -1 q 522 -4 543 -3 q 526 36 522 17 q 536 71 529 56 q 610 101 596 79 q 611 182 625 124 q 563 381 588 282 q 510 578 538 481 q 488 667 496 622 q 475 767 481 713 l 499 767 q 450 665 474 711 q 401 572 426 619 q 299 388 351 481 q 193 203 247 294 q 161 131 167 158 q 171 91 156 104 q 219 71 186 78 q 224 35 222 54 q 221 -4 225 15 q 177 -1 201 -1 q 128 0 153 0 q 79 0 103 0 q 15 -1 44 0 q -42 -4 -14 -1 m 207 271 l 240 353 l 597 353 l 604 281 q 474 280 542 281 q 337 277 406 279 q 207 271 268 275 m 571 1014 q 530 1024 550 1017 q 493 1044 510 1032 q 543 1109 521 1076 q 581 1171 565 1142 q 607 1219 597 1200 q 637 1223 622 1222 q 665 1224 651 1224 q 728 1218 699 1224 q 781 1203 758 1213 q 671 1107 725 1157 q 571 1014 617 1057 z "},"Ă":{"ha":964,"x_min":-42,"x_max":886,"o":"m -42 -4 q -38 35 -42 17 q -28 71 -35 53 q 17 92 -1 78 q 58 137 36 107 q 114 221 81 167 q 204 374 157 294 q 301 540 251 453 q 408 727 351 628 q 529 939 464 826 q 564 946 546 944 q 600 947 582 947 q 674 691 639 818 q 740 443 708 564 q 797 211 771 322 q 822 126 811 154 q 847 87 833 97 q 881 71 861 76 q 885 36 885 56 q 885 -4 886 17 q 826 -1 860 -1 q 761 0 793 0 q 708 0 729 0 q 667 0 690 0 q 619 -1 644 0 q 568 -2 593 -1 q 522 -4 543 -3 q 526 36 522 17 q 536 71 529 56 q 610 101 596 79 q 611 182 625 124 q 563 381 588 282 q 510 578 538 481 q 488 667 496 622 q 475 767 481 713 l 499 767 q 450 665 474 711 q 401 572 426 619 q 299 388 351 481 q 193 203 247 294 q 161 131 167 158 q 171 91 156 104 q 219 71 186 78 q 224 35 222 54 q 221 -4 225 15 q 177 -1 201 -1 q 128 0 153 0 q 79 0 103 0 q 15 -1 44 0 q -42 -4 -14 -1 m 207 271 l 240 353 l 597 353 l 604 281 q 474 280 542 281 q 337 277 406 279 q 207 271 268 275 m 563 1010 q 393 1060 446 1010 q 358 1206 340 1110 q 401 1217 378 1214 q 447 1218 425 1221 q 485 1142 446 1169 q 596 1115 525 1115 q 713 1142 665 1115 q 775 1218 761 1169 q 815 1219 796 1221 q 846 1210 833 1217 q 755 1061 828 1113 q 563 1010 682 1010 z "},"Ắ":{"ha":964,"x_min":-42,"x_max":886,"o":"m -42 -4 q -38 35 -42 17 q -28 71 -35 53 q 17 92 -1 78 q 58 137 36 107 q 114 221 81 167 q 204 374 157 294 q 301 540 251 453 q 408 727 351 628 q 529 939 464 826 q 564 946 546 944 q 600 947 582 947 q 674 691 639 818 q 740 443 708 564 q 797 211 771 322 q 822 126 811 154 q 847 87 833 97 q 881 71 861 76 q 885 36 885 56 q 885 -4 886 17 q 826 -1 860 -1 q 761 0 793 0 q 708 0 729 0 q 667 0 690 0 q 619 -1 644 0 q 568 -2 593 -1 q 522 -4 543 -3 q 526 36 522 17 q 536 71 529 56 q 610 101 596 79 q 611 182 625 124 q 563 381 588 282 q 510 578 538 481 q 488 667 496 622 q 475 767 481 713 l 499 767 q 450 665 474 711 q 401 572 426 619 q 299 388 351 481 q 193 203 247 294 q 161 131 167 158 q 171 91 156 104 q 219 71 186 78 q 224 35 222 54 q 221 -4 225 15 q 177 -1 201 -1 q 128 0 153 0 q 79 0 103 0 q 15 -1 44 0 q -42 -4 -14 -1 m 207 271 l 240 353 l 597 353 l 604 281 q 474 280 542 281 q 337 277 406 279 q 207 271 268 275 z "},"Ặ":{"ha":964,"x_min":-42,"x_max":886,"o":"m -42 -4 q -38 35 -42 17 q -28 71 -35 53 q 17 92 -1 78 q 58 137 36 107 q 114 221 81 167 q 204 374 157 294 q 301 540 251 453 q 408 727 351 628 q 529 939 464 826 q 564 946 546 944 q 600 947 582 947 q 674 691 639 818 q 740 443 708 564 q 797 211 771 322 q 822 126 811 154 q 847 87 833 97 q 881 71 861 76 q 885 36 885 56 q 885 -4 886 17 q 826 -1 860 -1 q 761 0 793 0 q 708 0 729 0 q 667 0 690 0 q 619 -1 644 0 q 568 -2 593 -1 q 522 -4 543 -3 q 526 36 522 17 q 536 71 529 56 q 610 101 596 79 q 611 182 625 124 q 563 381 588 282 q 510 578 538 481 q 488 667 496 622 q 475 767 481 713 l 499 767 q 450 665 474 711 q 401 572 426 619 q 299 388 351 481 q 193 203 247 294 q 161 131 167 158 q 171 91 156 104 q 219 71 186 78 q 224 35 222 54 q 221 -4 225 15 q 177 -1 201 -1 q 128 0 153 0 q 79 0 103 0 q 15 -1 44 0 q -42 -4 -14 -1 m 207 271 l 240 353 l 597 353 l 604 281 q 474 280 542 281 q 337 277 406 279 q 207 271 268 275 m 319 -311 q 249 -285 272 -311 q 233 -212 226 -258 q 272 -143 242 -168 q 344 -118 303 -118 q 413 -143 388 -118 q 429 -219 439 -168 q 393 -286 422 -261 q 319 -311 364 -311 m 563 1010 q 393 1060 446 1010 q 358 1206 340 1110 q 401 1217 378 1214 q 447 1218 425 1221 q 485 1142 446 1169 q 596 1115 525 1115 q 713 1142 665 1115 q 775 1218 761 1169 q 815 1219 796 1221 q 846 1210 833 1217 q 755 1061 828 1113 q 563 1010 682 1010 z "},"Ằ":{"ha":964,"x_min":-42,"x_max":886,"o":"m -42 -4 q -38 35 -42 17 q -28 71 -35 53 q 17 92 -1 78 q 58 137 36 107 q 114 221 81 167 q 204 374 157 294 q 301 540 251 453 q 408 727 351 628 q 529 939 464 826 q 564 946 546 944 q 600 947 582 947 q 674 691 639 818 q 740 443 708 564 q 797 211 771 322 q 822 126 811 154 q 847 87 833 97 q 881 71 861 76 q 885 36 885 56 q 885 -4 886 17 q 826 -1 860 -1 q 761 0 793 0 q 708 0 729 0 q 667 0 690 0 q 619 -1 644 0 q 568 -2 593 -1 q 522 -4 543 -3 q 526 36 522 17 q 536 71 529 56 q 610 101 596 79 q 611 182 625 124 q 563 381 588 282 q 510 578 538 481 q 488 667 496 622 q 475 767 481 713 l 499 767 q 450 665 474 711 q 401 572 426 619 q 299 388 351 481 q 193 203 247 294 q 161 131 167 158 q 171 91 156 104 q 219 71 186 78 q 224 35 222 54 q 221 -4 225 15 q 177 -1 201 -1 q 128 0 153 0 q 79 0 103 0 q 15 -1 44 0 q -42 -4 -14 -1 m 207 271 l 240 353 l 597 353 l 604 281 q 474 280 542 281 q 337 277 406 279 q 207 271 268 275 z "},"Ẳ":{"ha":964,"x_min":-42,"x_max":886,"o":"m -42 -4 q -38 35 -42 17 q -28 71 -35 53 q 17 92 -1 78 q 58 137 36 107 q 114 221 81 167 q 204 374 157 294 q 301 540 251 453 q 408 727 351 628 q 529 939 464 826 q 564 946 546 944 q 600 947 582 947 q 674 691 639 818 q 740 443 708 564 q 797 211 771 322 q 822 126 811 154 q 847 87 833 97 q 881 71 861 76 q 885 36 885 56 q 885 -4 886 17 q 826 -1 860 -1 q 761 0 793 0 q 708 0 729 0 q 667 0 690 0 q 619 -1 644 0 q 568 -2 593 -1 q 522 -4 543 -3 q 526 36 522 17 q 536 71 529 56 q 610 101 596 79 q 611 182 625 124 q 563 381 588 282 q 510 578 538 481 q 488 667 496 622 q 475 767 481 713 l 499 767 q 450 665 474 711 q 401 572 426 619 q 299 388 351 481 q 193 203 247 294 q 161 131 167 158 q 171 91 156 104 q 219 71 186 78 q 224 35 222 54 q 221 -4 225 15 q 177 -1 201 -1 q 128 0 153 0 q 79 0 103 0 q 15 -1 44 0 q -42 -4 -14 -1 m 207 271 l 240 353 l 597 353 l 604 281 q 474 280 542 281 q 337 277 406 279 q 207 271 268 275 z "},"Ẵ":{"ha":964,"x_min":-42,"x_max":892,"o":"m -42 -4 q -38 35 -42 17 q -28 71 -35 53 q 17 92 -1 78 q 58 137 36 107 q 114 221 81 167 q 204 374 157 294 q 301 540 251 453 q 408 727 351 628 q 529 939 464 826 q 564 946 546 944 q 600 947 582 947 q 674 691 639 818 q 740 443 708 564 q 797 211 771 322 q 822 126 811 154 q 847 87 833 97 q 881 71 861 76 q 885 36 885 56 q 885 -4 886 17 q 826 -1 860 -1 q 761 0 793 0 q 708 0 729 0 q 667 0 690 0 q 619 -1 644 0 q 568 -2 593 -1 q 522 -4 543 -3 q 526 36 522 17 q 536 71 529 56 q 610 101 596 79 q 611 182 625 124 q 563 381 588 282 q 510 578 538 481 q 488 667 496 622 q 475 767 481 713 l 499 767 q 450 665 474 711 q 401 572 426 619 q 299 388 351 481 q 193 203 247 294 q 161 131 167 158 q 171 91 156 104 q 219 71 186 78 q 224 35 222 54 q 221 -4 225 15 q 177 -1 201 -1 q 128 0 153 0 q 79 0 103 0 q 15 -1 44 0 q -42 -4 -14 -1 m 207 271 l 240 353 l 597 353 l 604 281 q 474 280 542 281 q 337 277 406 279 q 207 271 268 275 m 563 1010 q 393 1060 446 1010 q 358 1206 340 1110 q 401 1217 378 1214 q 447 1218 425 1221 q 485 1142 446 1169 q 596 1115 525 1115 q 713 1142 665 1115 q 775 1218 761 1169 q 815 1219 796 1221 q 846 1210 833 1217 q 755 1061 828 1113 q 563 1010 682 1010 m 704 1258 q 651 1267 674 1258 q 608 1285 628 1275 q 569 1304 589 1296 q 525 1313 549 1313 q 465 1297 493 1313 q 411 1261 438 1282 q 394 1296 399 1278 q 392 1338 390 1314 q 489 1403 442 1386 q 574 1419 536 1419 q 642 1406 614 1419 q 697 1380 671 1393 q 751 1367 722 1367 q 800 1381 778 1367 q 842 1414 822 1394 q 869 1397 856 1407 q 890 1369 883 1386 q 800 1285 847 1311 q 704 1258 753 1258 z "},"Ǎ":{"ha":964,"x_min":-42,"x_max":886,"o":"m -42 -4 q -38 35 -42 17 q -28 71 -35 53 q 17 92 -1 78 q 58 137 36 107 q 114 221 81 167 q 204 374 157 294 q 301 540 251 453 q 408 727 351 628 q 529 939 464 826 q 564 946 546 944 q 600 947 582 947 q 674 691 639 818 q 740 443 708 564 q 797 211 771 322 q 822 126 811 154 q 847 87 833 97 q 881 71 861 76 q 885 36 885 56 q 885 -4 886 17 q 826 -1 860 -1 q 761 0 793 0 q 708 0 729 0 q 667 0 690 0 q 619 -1 644 0 q 568 -2 593 -1 q 522 -4 543 -3 q 526 36 522 17 q 536 71 529 56 q 610 101 596 79 q 611 182 625 124 q 563 381 588 282 q 510 578 538 481 q 488 667 496 622 q 475 767 481 713 l 499 767 q 450 665 474 711 q 401 572 426 619 q 299 388 351 481 q 193 203 247 294 q 161 131 167 158 q 171 91 156 104 q 219 71 186 78 q 224 35 222 54 q 221 -4 225 15 q 177 -1 201 -1 q 128 0 153 0 q 79 0 103 0 q 15 -1 44 0 q -42 -4 -14 -1 m 207 271 l 240 353 l 597 353 l 604 281 q 474 280 542 281 q 337 277 406 279 q 207 271 268 275 m 539 1015 q 457 1100 503 1057 q 363 1181 411 1143 q 382 1217 369 1203 q 418 1233 394 1231 q 508 1185 460 1208 q 599 1143 556 1161 q 702 1185 654 1161 q 789 1231 750 1208 q 819 1210 806 1225 q 840 1179 833 1196 q 722 1106 783 1146 q 610 1025 661 1065 q 539 1015 575 1010 z "},"Â":{"ha":964,"x_min":-42,"x_max":886,"o":"m -42 -4 q -38 35 -42 17 q -28 71 -35 53 q 17 92 -1 78 q 58 137 36 107 q 114 221 81 167 q 204 374 157 294 q 301 540 251 453 q 408 727 351 628 q 529 939 464 826 q 564 946 546 944 q 600 947 582 947 q 674 691 639 818 q 740 443 708 564 q 797 211 771 322 q 822 126 811 154 q 847 87 833 97 q 881 71 861 76 q 885 36 885 56 q 885 -4 886 17 q 826 -1 860 -1 q 761 0 793 0 q 708 0 729 0 q 667 0 690 0 q 619 -1 644 0 q 568 -2 593 -1 q 522 -4 543 -3 q 526 36 522 17 q 536 71 529 56 q 610 101 596 79 q 611 182 625 124 q 563 381 588 282 q 510 578 538 481 q 488 667 496 622 q 475 767 481 713 l 499 767 q 450 665 474 711 q 401 572 426 619 q 299 388 351 481 q 193 203 247 294 q 161 131 167 158 q 171 91 156 104 q 219 71 186 78 q 224 35 222 54 q 221 -4 225 15 q 177 -1 201 -1 q 128 0 153 0 q 79 0 103 0 q 15 -1 44 0 q -42 -4 -14 -1 m 207 271 l 240 353 l 597 353 l 604 281 q 474 280 542 281 q 337 277 406 279 q 207 271 268 275 m 407 1008 q 380 1040 390 1019 q 369 1078 369 1061 q 448 1124 408 1099 q 524 1175 488 1149 q 593 1225 561 1201 q 631 1227 613 1229 q 668 1218 650 1225 q 744 1138 703 1178 q 831 1050 785 1097 q 804 1028 822 1036 q 765 1017 786 1019 q 683 1064 726 1042 q 596 1103 639 1086 q 531 1074 564 1090 q 466 1040 497 1057 q 407 1008 435 1024 z "},"Ấ":{"ha":964,"x_min":-42,"x_max":1007,"o":"m -42 -4 q -38 35 -42 17 q -28 71 -35 53 q 17 92 -1 78 q 58 137 36 107 q 114 221 81 167 q 204 374 157 294 q 301 540 251 453 q 408 727 351 628 q 529 939 464 826 q 564 946 546 944 q 600 947 582 947 q 674 691 639 818 q 740 443 708 564 q 797 211 771 322 q 822 126 811 154 q 847 87 833 97 q 881 71 861 76 q 885 36 885 56 q 885 -4 886 17 q 826 -1 860 -1 q 761 0 793 0 q 708 0 729 0 q 667 0 690 0 q 619 -1 644 0 q 568 -2 593 -1 q 522 -4 543 -3 q 526 36 522 17 q 536 71 529 56 q 610 101 596 79 q 611 182 625 124 q 563 381 588 282 q 510 578 538 481 q 488 667 496 622 q 475 767 481 713 l 499 767 q 450 665 474 711 q 401 572 426 619 q 299 388 351 481 q 193 203 247 294 q 161 131 167 158 q 171 91 156 104 q 219 71 186 78 q 224 35 222 54 q 221 -4 225 15 q 177 -1 201 -1 q 128 0 153 0 q 79 0 103 0 q 15 -1 44 0 q -42 -4 -14 -1 m 207 271 l 240 353 l 597 353 l 604 281 q 474 280 542 281 q 337 277 406 279 q 207 271 268 275 z "},"Ậ":{"ha":964,"x_min":-42,"x_max":886,"o":"m -42 -4 q -38 35 -42 17 q -28 71 -35 53 q 17 92 -1 78 q 58 137 36 107 q 114 221 81 167 q 204 374 157 294 q 301 540 251 453 q 408 727 351 628 q 529 939 464 826 q 564 946 546 944 q 600 947 582 947 q 674 691 639 818 q 740 443 708 564 q 797 211 771 322 q 822 126 811 154 q 847 87 833 97 q 881 71 861 76 q 885 36 885 56 q 885 -4 886 17 q 826 -1 860 -1 q 761 0 793 0 q 708 0 729 0 q 667 0 690 0 q 619 -1 644 0 q 568 -2 593 -1 q 522 -4 543 -3 q 526 36 522 17 q 536 71 529 56 q 610 101 596 79 q 611 182 625 124 q 563 381 588 282 q 510 578 538 481 q 488 667 496 622 q 475 767 481 713 l 499 767 q 450 665 474 711 q 401 572 426 619 q 299 388 351 481 q 193 203 247 294 q 161 131 167 158 q 171 91 156 104 q 219 71 186 78 q 224 35 222 54 q 221 -4 225 15 q 177 -1 201 -1 q 128 0 153 0 q 79 0 103 0 q 15 -1 44 0 q -42 -4 -14 -1 m 207 271 l 240 353 l 597 353 l 604 281 q 474 280 542 281 q 337 277 406 279 q 207 271 268 275 m 319 -311 q 249 -285 272 -311 q 233 -212 226 -258 q 272 -143 242 -168 q 344 -118 303 -118 q 413 -143 388 -118 q 429 -219 439 -168 q 393 -286 422 -261 q 319 -311 364 -311 m 407 1008 q 380 1040 390 1019 q 369 1078 369 1061 q 448 1124 408 1099 q 524 1175 488 1149 q 593 1225 561 1201 q 631 1227 613 1229 q 668 1218 650 1225 q 744 1138 703 1178 q 831 1050 785 1097 q 804 1028 822 1036 q 765 1017 786 1019 q 683 1064 726 1042 q 596 1103 639 1086 q 531 1074 564 1090 q 466 1040 497 1057 q 407 1008 435 1024 z "},"Ầ":{"ha":964,"x_min":-42,"x_max":886,"o":"m -42 -4 q -38 35 -42 17 q -28 71 -35 53 q 17 92 -1 78 q 58 137 36 107 q 114 221 81 167 q 204 374 157 294 q 301 540 251 453 q 408 727 351 628 q 529 939 464 826 q 564 946 546 944 q 600 947 582 947 q 674 691 639 818 q 740 443 708 564 q 797 211 771 322 q 822 126 811 154 q 847 87 833 97 q 881 71 861 76 q 885 36 885 56 q 885 -4 886 17 q 826 -1 860 -1 q 761 0 793 0 q 708 0 729 0 q 667 0 690 0 q 619 -1 644 0 q 568 -2 593 -1 q 522 -4 543 -3 q 526 36 522 17 q 536 71 529 56 q 610 101 596 79 q 611 182 625 124 q 563 381 588 282 q 510 578 538 481 q 488 667 496 622 q 475 767 481 713 l 499 767 q 450 665 474 711 q 401 572 426 619 q 299 388 351 481 q 193 203 247 294 q 161 131 167 158 q 171 91 156 104 q 219 71 186 78 q 224 35 222 54 q 221 -4 225 15 q 177 -1 201 -1 q 128 0 153 0 q 79 0 103 0 q 15 -1 44 0 q -42 -4 -14 -1 m 207 271 l 240 353 l 597 353 l 604 281 q 474 280 542 281 q 337 277 406 279 q 207 271 268 275 z "},"Ẩ":{"ha":964,"x_min":-42,"x_max":981,"o":"m -42 -4 q -38 35 -42 17 q -28 71 -35 53 q 17 92 -1 78 q 58 137 36 107 q 114 221 81 167 q 204 374 157 294 q 301 540 251 453 q 408 727 351 628 q 529 939 464 826 q 564 946 546 944 q 600 947 582 947 q 674 691 639 818 q 740 443 708 564 q 797 211 771 322 q 822 126 811 154 q 847 87 833 97 q 881 71 861 76 q 885 36 885 56 q 885 -4 886 17 q 826 -1 860 -1 q 761 0 793 0 q 708 0 729 0 q 667 0 690 0 q 619 -1 644 0 q 568 -2 593 -1 q 522 -4 543 -3 q 526 36 522 17 q 536 71 529 56 q 610 101 596 79 q 611 182 625 124 q 563 381 588 282 q 510 578 538 481 q 488 667 496 622 q 475 767 481 713 l 499 767 q 450 665 474 711 q 401 572 426 619 q 299 388 351 481 q 193 203 247 294 q 161 131 167 158 q 171 91 156 104 q 219 71 186 78 q 224 35 222 54 q 221 -4 225 15 q 177 -1 201 -1 q 128 0 153 0 q 79 0 103 0 q 15 -1 44 0 q -42 -4 -14 -1 m 207 271 l 240 353 l 597 353 l 604 281 q 474 280 542 281 q 337 277 406 279 q 207 271 268 275 z "},"Ẫ":{"ha":964,"x_min":-42,"x_max":906,"o":"m -42 -4 q -38 35 -42 17 q -28 71 -35 53 q 17 92 -1 78 q 58 137 36 107 q 114 221 81 167 q 204 374 157 294 q 301 540 251 453 q 408 727 351 628 q 529 939 464 826 q 564 946 546 944 q 600 947 582 947 q 674 691 639 818 q 740 443 708 564 q 797 211 771 322 q 822 126 811 154 q 847 87 833 97 q 881 71 861 76 q 885 36 885 56 q 885 -4 886 17 q 826 -1 860 -1 q 761 0 793 0 q 708 0 729 0 q 667 0 690 0 q 619 -1 644 0 q 568 -2 593 -1 q 522 -4 543 -3 q 526 36 522 17 q 536 71 529 56 q 610 101 596 79 q 611 182 625 124 q 563 381 588 282 q 510 578 538 481 q 488 667 496 622 q 475 767 481 713 l 499 767 q 450 665 474 711 q 401 572 426 619 q 299 388 351 481 q 193 203 247 294 q 161 131 167 158 q 171 91 156 104 q 219 71 186 78 q 224 35 222 54 q 221 -4 225 15 q 177 -1 201 -1 q 128 0 153 0 q 79 0 103 0 q 15 -1 44 0 q -42 -4 -14 -1 m 207 271 l 240 353 l 597 353 l 604 281 q 474 280 542 281 q 337 277 406 279 q 207 271 268 275 m 407 1008 q 380 1040 390 1019 q 369 1078 369 1061 q 448 1124 408 1099 q 524 1175 488 1149 q 593 1225 561 1201 q 631 1227 613 1229 q 668 1218 650 1225 q 744 1138 703 1178 q 831 1050 785 1097 q 804 1028 822 1036 q 765 1017 786 1019 q 683 1064 726 1042 q 596 1103 639 1086 q 531 1074 564 1090 q 466 1040 497 1057 q 407 1008 435 1024 m 718 1294 q 665 1303 688 1294 q 622 1322 642 1311 q 583 1340 603 1332 q 539 1349 563 1349 q 479 1333 507 1349 q 425 1297 451 1318 q 408 1332 413 1314 q 406 1374 404 1350 q 503 1439 456 1422 q 588 1456 550 1456 q 656 1442 628 1456 q 710 1416 685 1429 q 765 1403 736 1403 q 814 1417 792 1403 q 856 1450 836 1431 q 883 1433 869 1443 q 904 1406 897 1422 q 814 1321 861 1347 q 718 1294 767 1294 z "},"Ȁ":{"ha":964,"x_min":-42,"x_max":886,"o":"m -42 -4 q -38 35 -42 17 q -28 71 -35 53 q 17 92 -1 78 q 58 137 36 107 q 114 221 81 167 q 204 374 157 294 q 301 540 251 453 q 408 727 351 628 q 529 939 464 826 q 564 946 546 944 q 600 947 582 947 q 674 691 639 818 q 740 443 708 564 q 797 211 771 322 q 822 126 811 154 q 847 87 833 97 q 881 71 861 76 q 885 36 885 56 q 885 -4 886 17 q 826 -1 860 -1 q 761 0 793 0 q 708 0 729 0 q 667 0 690 0 q 619 -1 644 0 q 568 -2 593 -1 q 522 -4 543 -3 q 526 36 522 17 q 536 71 529 56 q 610 101 596 79 q 611 182 625 124 q 563 381 588 282 q 510 578 538 481 q 488 667 496 622 q 475 767 481 713 l 499 767 q 450 665 474 711 q 401 572 426 619 q 299 388 351 481 q 193 203 247 294 q 161 131 167 158 q 171 91 156 104 q 219 71 186 78 q 224 35 222 54 q 221 -4 225 15 q 177 -1 201 -1 q 128 0 153 0 q 79 0 103 0 q 15 -1 44 0 q -42 -4 -14 -1 m 207 271 l 240 353 l 597 353 l 604 281 q 474 280 542 281 q 337 277 406 279 q 207 271 268 275 m 467 1007 q 405 1098 435 1056 q 342 1182 375 1140 q 412 1195 371 1193 q 489 1190 453 1197 q 513 1100 500 1149 q 546 1004 526 1051 q 509 1002 528 1001 q 467 1007 490 1003 m 697 1007 q 638 1099 665 1056 q 576 1183 610 1142 q 645 1196 606 1194 q 719 1190 685 1197 q 744 1100 731 1149 q 776 1004 757 1051 q 740 1002 758 1001 q 697 1007 721 1003 z "},"Ä":{"ha":964,"x_min":-42,"x_max":886,"o":"m -42 -4 q -38 35 -42 17 q -28 71 -35 53 q 17 92 -1 78 q 58 137 36 107 q 114 221 81 167 q 204 374 157 294 q 301 540 251 453 q 408 727 351 628 q 529 939 464 826 q 564 946 546 944 q 600 947 582 947 q 674 691 639 818 q 740 443 708 564 q 797 211 771 322 q 822 126 811 154 q 847 87 833 97 q 881 71 861 76 q 885 36 885 56 q 885 -4 886 17 q 826 -1 860 -1 q 761 0 793 0 q 708 0 729 0 q 667 0 690 0 q 619 -1 644 0 q 568 -2 593 -1 q 522 -4 543 -3 q 526 36 522 17 q 536 71 529 56 q 610 101 596 79 q 611 182 625 124 q 563 381 588 282 q 510 578 538 481 q 488 667 496 622 q 475 767 481 713 l 499 767 q 450 665 474 711 q 401 572 426 619 q 299 388 351 481 q 193 203 247 294 q 161 131 167 158 q 171 91 156 104 q 219 71 186 78 q 224 35 222 54 q 221 -4 225 15 q 177 -1 201 -1 q 128 0 153 0 q 79 0 103 0 q 15 -1 44 0 q -42 -4 -14 -1 m 207 271 l 240 353 l 597 353 l 604 281 q 474 280 542 281 q 337 277 406 279 q 207 271 268 275 m 446 1011 q 380 1040 401 1011 q 364 1115 358 1069 q 392 1170 369 1151 q 454 1189 415 1189 q 523 1161 500 1189 q 536 1089 546 1133 q 446 1011 519 1011 m 736 1011 q 669 1038 692 1011 q 653 1110 647 1065 q 747 1189 663 1189 q 813 1163 790 1189 q 828 1092 835 1138 q 736 1011 817 1011 z "},"Ạ":{"ha":964,"x_min":-42,"x_max":886,"o":"m -42 -4 q -38 35 -42 17 q -28 71 -35 53 q 17 92 -1 78 q 58 137 36 107 q 114 221 81 167 q 204 374 157 294 q 301 540 251 453 q 408 727 351 628 q 529 939 464 826 q 564 946 546 944 q 600 947 582 947 q 674 691 639 818 q 740 443 708 564 q 797 211 771 322 q 822 126 811 154 q 847 87 833 97 q 881 71 861 76 q 885 36 885 56 q 885 -4 886 17 q 826 -1 860 -1 q 761 0 793 0 q 708 0 729 0 q 667 0 690 0 q 619 -1 644 0 q 568 -2 593 -1 q 522 -4 543 -3 q 526 36 522 17 q 536 71 529 56 q 610 101 596 79 q 611 182 625 124 q 563 381 588 282 q 510 578 538 481 q 488 667 496 622 q 475 767 481 713 l 499 767 q 450 665 474 711 q 401 572 426 619 q 299 388 351 481 q 193 203 247 294 q 161 131 167 158 q 171 91 156 104 q 219 71 186 78 q 224 35 222 54 q 221 -4 225 15 q 177 -1 201 -1 q 128 0 153 0 q 79 0 103 0 q 15 -1 44 0 q -42 -4 -14 -1 m 207 271 l 240 353 l 597 353 l 604 281 q 474 280 542 281 q 337 277 406 279 q 207 271 268 275 m 319 -311 q 249 -285 272 -311 q 233 -212 226 -258 q 272 -143 242 -168 q 344 -118 303 -118 q 413 -143 388 -118 q 429 -219 439 -168 q 393 -286 422 -261 q 319 -311 364 -311 z "},"À":{"ha":964,"x_min":-42,"x_max":886,"o":"m -42 -4 q -38 35 -42 17 q -28 71 -35 53 q 17 92 -1 78 q 58 137 36 107 q 114 221 81 167 q 204 374 157 294 q 301 540 251 453 q 408 727 351 628 q 529 939 464 826 q 564 946 546 944 q 600 947 582 947 q 674 691 639 818 q 740 443 708 564 q 797 211 771 322 q 822 126 811 154 q 847 87 833 97 q 881 71 861 76 q 885 36 885 56 q 885 -4 886 17 q 826 -1 860 -1 q 761 0 793 0 q 708 0 729 0 q 667 0 690 0 q 619 -1 644 0 q 568 -2 593 -1 q 522 -4 543 -3 q 526 36 522 17 q 536 71 529 56 q 610 101 596 79 q 611 182 625 124 q 563 381 588 282 q 510 578 538 481 q 488 667 496 622 q 475 767 481 713 l 499 767 q 450 665 474 711 q 401 572 426 619 q 299 388 351 481 q 193 203 247 294 q 161 131 167 158 q 171 91 156 104 q 219 71 186 78 q 224 35 222 54 q 221 -4 225 15 q 177 -1 201 -1 q 128 0 153 0 q 79 0 103 0 q 15 -1 44 0 q -42 -4 -14 -1 m 207 271 l 240 353 l 597 353 l 604 281 q 474 280 542 281 q 337 277 406 279 q 207 271 268 275 m 644 1028 q 599 1021 626 1021 q 551 1028 571 1021 q 514 1084 536 1054 q 466 1144 492 1114 q 415 1200 440 1175 q 492 1213 450 1210 q 576 1207 535 1215 q 604 1118 588 1165 q 644 1028 621 1071 z "},"Ả":{"ha":964,"x_min":-42,"x_max":886,"o":"m -42 -4 q -38 35 -42 17 q -28 71 -35 53 q 17 92 -1 78 q 58 137 36 107 q 114 221 81 167 q 204 374 157 294 q 301 540 251 453 q 408 727 351 628 q 529 939 464 826 q 564 946 546 944 q 600 947 582 947 q 674 691 639 818 q 740 443 708 564 q 797 211 771 322 q 822 126 811 154 q 847 87 833 97 q 881 71 861 76 q 885 36 885 56 q 885 -4 886 17 q 826 -1 860 -1 q 761 0 793 0 q 708 0 729 0 q 667 0 690 0 q 619 -1 644 0 q 568 -2 593 -1 q 522 -4 543 -3 q 526 36 522 17 q 536 71 529 56 q 610 101 596 79 q 611 182 625 124 q 563 381 588 282 q 510 578 538 481 q 488 667 496 622 q 475 767 481 713 l 499 767 q 450 665 474 711 q 401 572 426 619 q 299 388 351 481 q 193 203 247 294 q 161 131 167 158 q 171 91 156 104 q 219 71 186 78 q 224 35 222 54 q 221 -4 225 15 q 177 -1 201 -1 q 128 0 153 0 q 79 0 103 0 q 15 -1 44 0 q -42 -4 -14 -1 m 207 271 l 240 353 l 597 353 l 604 281 q 474 280 542 281 q 337 277 406 279 q 207 271 268 275 m 539 1014 q 533 1036 535 1024 q 535 1061 532 1049 q 563 1101 542 1089 q 607 1125 585 1114 q 638 1156 629 1136 q 634 1180 643 1172 q 608 1188 625 1188 q 563 1168 583 1188 q 529 1106 543 1149 q 488 1113 507 1108 q 454 1126 468 1117 q 466 1166 461 1149 q 471 1207 471 1183 q 538 1232 497 1221 q 625 1243 578 1243 q 726 1217 696 1243 q 744 1150 757 1192 q 717 1108 736 1124 q 678 1081 699 1092 q 640 1060 657 1071 q 617 1032 622 1049 q 614 1022 615 1026 q 614 1008 613 1018 q 577 1008 599 1007 q 539 1014 556 1008 z "},"Ȃ":{"ha":964,"x_min":-42,"x_max":886,"o":"m -42 -4 q -38 35 -42 17 q -28 71 -35 53 q 17 92 -1 78 q 58 137 36 107 q 114 221 81 167 q 204 374 157 294 q 301 540 251 453 q 408 727 351 628 q 529 939 464 826 q 564 946 546 944 q 600 947 582 947 q 674 691 639 818 q 740 443 708 564 q 797 211 771 322 q 822 126 811 154 q 847 87 833 97 q 881 71 861 76 q 885 36 885 56 q 885 -4 886 17 q 826 -1 860 -1 q 761 0 793 0 q 708 0 729 0 q 667 0 690 0 q 619 -1 644 0 q 568 -2 593 -1 q 522 -4 543 -3 q 526 36 522 17 q 536 71 529 56 q 610 101 596 79 q 611 182 625 124 q 563 381 588 282 q 510 578 538 481 q 488 667 496 622 q 475 767 481 713 l 499 767 q 450 665 474 711 q 401 572 426 619 q 299 388 351 481 q 193 203 247 294 q 161 131 167 158 q 171 91 156 104 q 219 71 186 78 q 224 35 222 54 q 221 -4 225 15 q 177 -1 201 -1 q 128 0 153 0 q 79 0 103 0 q 15 -1 44 0 q -42 -4 -14 -1 m 207 271 l 240 353 l 597 353 l 604 281 q 474 280 542 281 q 337 277 406 279 q 207 271 268 275 z "},"Ā":{"ha":964,"x_min":-42,"x_max":886,"o":"m -42 -4 q -38 35 -42 17 q -28 71 -35 53 q 17 92 -1 78 q 58 137 36 107 q 114 221 81 167 q 204 374 157 294 q 301 540 251 453 q 408 727 351 628 q 529 939 464 826 q 564 946 546 944 q 600 947 582 947 q 674 691 639 818 q 740 443 708 564 q 797 211 771 322 q 822 126 811 154 q 847 87 833 97 q 881 71 861 76 q 885 36 885 56 q 885 -4 886 17 q 826 -1 860 -1 q 761 0 793 0 q 708 0 729 0 q 667 0 690 0 q 619 -1 644 0 q 568 -2 593 -1 q 522 -4 543 -3 q 526 36 522 17 q 536 71 529 56 q 610 101 596 79 q 611 182 625 124 q 563 381 588 282 q 510 578 538 481 q 488 667 496 622 q 475 767 481 713 l 499 767 q 450 665 474 711 q 401 572 426 619 q 299 388 351 481 q 193 203 247 294 q 161 131 167 158 q 171 91 156 104 q 219 71 186 78 q 224 35 222 54 q 221 -4 225 15 q 177 -1 201 -1 q 128 0 153 0 q 79 0 103 0 q 15 -1 44 0 q -42 -4 -14 -1 m 207 271 l 240 353 l 597 353 l 604 281 q 474 280 542 281 q 337 277 406 279 q 207 271 268 275 m 344 1061 q 347 1096 344 1074 q 357 1133 350 1118 l 846 1133 q 843 1102 846 1119 q 833 1067 840 1085 q 581 1066 704 1067 q 344 1061 458 1065 z "},"Ą":{"ha":964,"x_min":-42,"x_max":886,"o":"m -42 -4 q -38 35 -42 17 q -28 71 -35 53 q 17 92 -1 78 q 58 137 36 107 q 114 221 81 167 q 204 374 157 294 q 301 540 251 453 q 408 727 351 628 q 529 939 464 826 q 564 946 546 944 q 600 947 582 947 q 674 691 639 818 q 740 443 708 564 q 797 211 771 322 q 822 126 811 154 q 847 87 833 97 q 881 71 861 76 q 885 36 885 56 q 885 -4 886 17 q 826 -1 860 -1 q 761 0 793 0 q 708 0 729 0 q 667 0 690 0 q 619 -1 644 0 q 568 -2 593 -1 q 522 -4 543 -3 q 526 36 522 17 q 536 71 529 56 q 610 101 596 79 q 611 182 625 124 q 563 381 588 282 q 510 578 538 481 q 488 667 496 622 q 475 767 481 713 l 499 767 q 450 665 474 711 q 401 572 426 619 q 299 388 351 481 q 193 203 247 294 q 161 131 167 158 q 171 91 156 104 q 219 71 186 78 q 224 35 222 54 q 221 -4 225 15 q 177 -1 201 -1 q 128 0 153 0 q 79 0 103 0 q 15 -1 44 0 q -42 -4 -14 -1 m 207 271 l 240 353 l 597 353 l 604 281 q 474 280 542 281 q 337 277 406 279 q 207 271 268 275 m 736 31 l 799 0 q 690 -69 725 -33 q 650 -140 654 -106 q 665 -190 647 -168 q 721 -212 682 -212 q 747 -210 732 -212 q 775 -203 761 -208 q 787 -233 783 -215 q 790 -269 790 -251 q 727 -302 758 -283 q 668 -343 696 -321 q 655 -345 661 -344 q 640 -346 649 -346 q 562 -330 599 -346 q 506 -279 525 -314 q 496 -192 488 -244 q 526 -115 503 -153 q 601 -41 550 -78 q 736 31 651 -4 z "},"Å":{"ha":964,"x_min":-42,"x_max":886,"o":"m -42 -4 q -38 35 -42 17 q -28 71 -35 53 q 17 92 -1 78 q 58 137 36 107 q 114 221 81 167 q 204 374 157 294 q 301 540 251 453 q 408 727 351 628 q 529 939 464 826 q 564 946 546 944 q 600 947 582 947 q 674 691 639 818 q 740 443 708 564 q 797 211 771 322 q 822 126 811 154 q 847 87 833 97 q 881 71 861 76 q 885 36 885 56 q 885 -4 886 17 q 826 -1 860 -1 q 761 0 793 0 q 708 0 729 0 q 667 0 690 0 q 619 -1 644 0 q 568 -2 593 -1 q 522 -4 543 -3 q 526 36 522 17 q 536 71 529 56 q 610 101 596 79 q 611 182 625 124 q 563 381 588 282 q 510 578 538 481 q 488 667 496 622 q 475 767 481 713 l 499 767 q 450 665 474 711 q 401 572 426 619 q 299 388 351 481 q 193 203 247 294 q 161 131 167 158 q 171 91 156 104 q 219 71 186 78 q 224 35 222 54 q 221 -4 225 15 q 177 -1 201 -1 q 128 0 153 0 q 79 0 103 0 q 15 -1 44 0 q -42 -4 -14 -1 m 207 271 l 240 353 l 597 353 l 604 281 q 474 280 542 281 q 337 277 406 279 q 207 271 268 275 m 590 999 q 470 1035 507 999 q 444 1122 433 1072 q 496 1197 453 1171 q 608 1224 539 1224 q 701 1207 667 1224 q 747 1162 735 1190 q 753 1100 760 1133 q 702 1025 744 1051 q 590 999 660 999 m 594 1057 q 633 1069 617 1057 q 654 1106 649 1081 q 648 1149 660 1128 q 604 1169 636 1169 q 561 1153 578 1169 q 540 1114 544 1138 q 550 1074 535 1090 q 594 1057 565 1057 z "},"Ǻ":{"ha":964,"x_min":-42,"x_max":886,"o":"m -42 -4 q -38 35 -42 17 q -28 71 -35 53 q 17 92 -1 78 q 58 137 36 107 q 114 221 81 167 q 204 374 157 294 q 301 540 251 453 q 408 727 351 628 q 529 939 464 826 q 564 946 546 944 q 600 947 582 947 q 674 691 639 818 q 740 443 708 564 q 797 211 771 322 q 822 126 811 154 q 847 87 833 97 q 881 71 861 76 q 885 36 885 56 q 885 -4 886 17 q 826 -1 860 -1 q 761 0 793 0 q 708 0 729 0 q 667 0 690 0 q 619 -1 644 0 q 568 -2 593 -1 q 522 -4 543 -3 q 526 36 522 17 q 536 71 529 56 q 610 101 596 79 q 611 182 625 124 q 563 381 588 282 q 510 578 538 481 q 488 667 496 622 q 475 767 481 713 l 499 767 q 450 665 474 711 q 401 572 426 619 q 299 388 351 481 q 193 203 247 294 q 161 131 167 158 q 171 91 156 104 q 219 71 186 78 q 224 35 222 54 q 221 -4 225 15 q 177 -1 201 -1 q 128 0 153 0 q 79 0 103 0 q 15 -1 44 0 q -42 -4 -14 -1 m 207 271 l 240 353 l 597 353 l 604 281 q 474 280 542 281 q 337 277 406 279 q 207 271 268 275 m 590 999 q 470 1035 507 999 q 444 1122 433 1072 q 496 1197 453 1171 q 608 1224 539 1224 q 701 1207 667 1224 q 747 1162 735 1190 q 753 1100 760 1133 q 702 1025 744 1051 q 590 999 660 999 m 594 1057 q 633 1069 617 1057 q 654 1106 649 1081 q 648 1149 660 1128 q 604 1169 636 1169 q 561 1153 578 1169 q 540 1114 544 1138 q 550 1074 535 1090 q 594 1057 565 1057 m 625 1299 q 584 1309 604 1301 q 547 1329 564 1317 q 597 1394 575 1361 q 635 1456 619 1426 q 661 1504 651 1485 q 691 1508 676 1507 q 719 1508 706 1508 q 783 1503 753 1508 q 835 1488 813 1497 q 725 1392 779 1442 q 625 1299 671 1342 z "},"Ã":{"ha":964,"x_min":-42,"x_max":886,"o":"m -42 -4 q -38 35 -42 17 q -28 71 -35 53 q 17 92 -1 78 q 58 137 36 107 q 114 221 81 167 q 204 374 157 294 q 301 540 251 453 q 408 727 351 628 q 529 939 464 826 q 564 946 546 944 q 600 947 582 947 q 674 691 639 818 q 740 443 708 564 q 797 211 771 322 q 822 126 811 154 q 847 87 833 97 q 881 71 861 76 q 885 36 885 56 q 885 -4 886 17 q 826 -1 860 -1 q 761 0 793 0 q 708 0 729 0 q 667 0 690 0 q 619 -1 644 0 q 568 -2 593 -1 q 522 -4 543 -3 q 526 36 522 17 q 536 71 529 56 q 610 101 596 79 q 611 182 625 124 q 563 381 588 282 q 510 578 538 481 q 488 667 496 622 q 475 767 481 713 l 499 767 q 450 665 474 711 q 401 572 426 619 q 299 388 351 481 q 193 203 247 294 q 161 131 167 158 q 171 91 156 104 q 219 71 186 78 q 224 35 222 54 q 221 -4 225 15 q 177 -1 201 -1 q 128 0 153 0 q 79 0 103 0 q 15 -1 44 0 q -42 -4 -14 -1 m 207 271 l 240 353 l 597 353 l 604 281 q 474 280 542 281 q 337 277 406 279 q 207 271 268 275 m 664 1033 q 610 1042 633 1033 q 568 1060 588 1050 q 528 1079 549 1071 q 485 1088 508 1088 q 425 1072 453 1088 q 371 1036 397 1057 q 354 1071 358 1053 q 351 1113 350 1089 q 449 1178 401 1161 q 533 1194 496 1194 q 602 1181 574 1194 q 656 1155 631 1168 q 711 1142 682 1142 q 760 1156 738 1142 q 801 1189 782 1169 q 829 1172 815 1182 q 850 1144 843 1161 q 760 1060 807 1086 q 664 1033 713 1033 z "},"Æ":{"ha":1217,"x_min":-42,"x_max":1224,"o":"m 358 479 l 689 479 l 679 408 q 535 407 601 408 q 415 403 469 406 q 313 397 361 401 l 358 479 m 978 589 q 1019 594 999 593 q 1063 593 1040 596 q 1047 520 1054 557 q 1033 431 1040 483 q 1023 347 1026 385 q 1017 272 1019 308 q 973 279 993 275 q 935 292 953 283 q 928 358 938 333 q 892 396 919 383 q 813 408 864 408 l 735 408 l 747 479 l 821 479 q 933 502 899 479 q 978 589 968 525 m 1224 943 q 1213 826 1217 890 q 1214 708 1210 761 q 1122 696 1175 696 q 1108 790 1121 753 q 1057 844 1096 826 q 935 863 1018 863 l 804 863 l 850 939 q 983 939 921 939 q 1104 940 1044 939 q 1224 943 1164 942 m 1083 260 q 1130 247 1110 256 q 1168 222 1150 239 q 1129 118 1149 176 q 1099 -4 1110 60 q 1009 -1 1058 -1 q 906 0 960 0 q 799 0 853 0 l 828 76 l 838 76 q 955 97 911 76 q 1028 158 999 117 q 1083 260 1057 199 m 707 939 l 856 939 l 732 217 q 726 126 722 156 q 755 86 731 96 q 828 76 779 76 l 799 0 q 703 0 753 0 q 606 -1 654 0 q 511 -2 557 -1 q 426 -4 465 -3 q 431 34 428 15 q 442 72 433 53 q 503 89 483 76 q 535 133 524 101 q 556 222 546 164 l 638 686 q 671 833 653 771 q 707 939 689 896 m 525 736 q 554 827 565 792 q 478 868 543 863 q 474 906 474 886 q 476 943 474 925 q 582 940 538 942 q 662 939 626 939 q 729 939 697 939 q 671 840 701 889 q 601 731 640 790 q 510 597 563 672 q 385 422 457 522 q 217 188 313 321 q 177 106 175 132 q 219 71 179 81 q 224 35 222 54 q 221 -4 225 15 q 177 -1 201 -1 q 128 0 153 0 q 79 0 103 0 q 15 -1 44 0 q -42 -4 -14 -1 q -38 35 -42 17 q -28 71 -35 53 q 19 90 -1 78 q 66 128 40 101 q 131 203 92 154 q 253 366 192 282 q 383 542 315 450 q 525 736 451 635 z "},"Ǽ":{"ha":1217,"x_min":-42,"x_max":1224,"o":"m 358 479 l 689 479 l 679 408 q 535 407 601 408 q 415 403 469 406 q 313 397 361 401 l 358 479 m 978 589 q 1019 594 999 593 q 1063 593 1040 596 q 1047 520 1054 557 q 1033 431 1040 483 q 1023 347 1026 385 q 1017 272 1019 308 q 973 279 993 275 q 935 292 953 283 q 928 358 938 333 q 892 396 919 383 q 813 408 864 408 l 735 408 l 747 479 l 821 479 q 933 502 899 479 q 978 589 968 525 m 1224 943 q 1213 826 1217 890 q 1214 708 1210 761 q 1122 696 1175 696 q 1108 790 1121 753 q 1057 844 1096 826 q 935 863 1018 863 l 804 863 l 850 939 q 983 939 921 939 q 1104 940 1044 939 q 1224 943 1164 942 m 1083 260 q 1130 247 1110 256 q 1168 222 1150 239 q 1129 118 1149 176 q 1099 -4 1110 60 q 1009 -1 1058 -1 q 906 0 960 0 q 799 0 853 0 l 828 76 l 838 76 q 955 97 911 76 q 1028 158 999 117 q 1083 260 1057 199 m 707 939 l 856 939 l 732 217 q 726 126 722 156 q 755 86 731 96 q 828 76 779 76 l 799 0 q 703 0 753 0 q 606 -1 654 0 q 511 -2 557 -1 q 426 -4 465 -3 q 431 34 428 15 q 442 72 433 53 q 503 89 483 76 q 535 133 524 101 q 556 222 546 164 l 638 686 q 671 833 653 771 q 707 939 689 896 m 525 736 q 554 827 565 792 q 478 868 543 863 q 474 906 474 886 q 476 943 474 925 q 582 940 538 942 q 662 939 626 939 q 729 939 697 939 q 671 840 701 889 q 601 731 640 790 q 510 597 563 672 q 385 422 457 522 q 217 188 313 321 q 177 106 175 132 q 219 71 179 81 q 224 35 222 54 q 221 -4 225 15 q 177 -1 201 -1 q 128 0 153 0 q 79 0 103 0 q 15 -1 44 0 q -42 -4 -14 -1 q -38 35 -42 17 q -28 71 -35 53 q 19 90 -1 78 q 66 128 40 101 q 131 203 92 154 q 253 366 192 282 q 383 542 315 450 q 525 736 451 635 m 825 1014 q 784 1024 804 1017 q 747 1044 764 1032 q 797 1109 775 1076 q 835 1171 819 1142 q 861 1219 851 1200 q 891 1223 876 1222 q 919 1224 906 1224 q 983 1218 953 1224 q 1035 1203 1013 1213 q 925 1107 979 1157 q 825 1014 871 1057 z "},"B":{"ha":885,"x_min":28,"x_max":864,"o":"m 332 200 q 328 115 322 142 q 356 80 333 88 q 421 72 379 72 q 559 120 500 72 q 632 246 618 168 q 602 403 654 358 q 411 449 550 449 l 346 449 l 360 528 l 431 528 q 588 575 529 528 q 663 704 647 622 q 638 827 679 786 q 515 868 596 868 q 473 863 493 868 q 428 850 453 858 l 451 890 l 332 200 m 322 939 q 435 941 374 939 q 557 943 497 943 q 742 918 672 943 q 838 841 811 893 q 849 707 864 789 q 772 578 836 632 q 607 510 707 524 q 799 434 742 503 q 831 238 856 365 q 768 113 818 167 q 634 29 718 58 q 429 0 550 0 q 294 0 365 0 q 155 -1 224 0 q 28 -4 86 -1 q 33 38 29 19 q 44 71 38 56 q 106 89 85 76 q 137 132 126 101 q 157 222 147 163 l 249 746 q 253 820 258 796 q 227 854 247 844 q 171 868 207 864 q 167 905 168 886 q 169 943 167 924 q 249 940 213 940 q 322 939 286 939 z "},"C":{"ha":872,"x_min":61,"x_max":922,"o":"m 922 872 q 894 773 904 825 q 876 661 883 721 q 783 656 833 644 q 778 795 794 747 q 725 860 763 843 q 633 878 688 878 q 453 822 529 878 q 331 672 378 765 q 271 469 285 579 q 278 278 257 365 q 360 140 300 192 q 525 88 421 88 q 656 106 592 88 q 781 158 719 124 q 799 128 793 146 q 806 92 804 111 q 649 13 731 39 q 475 -12 567 -12 q 234 51 329 -12 q 100 224 139 115 q 81 471 61 333 q 151 686 97 596 q 281 835 204 776 q 447 923 357 894 q 625 951 536 951 q 783 933 711 951 q 922 872 854 914 z "},"Ć":{"ha":872,"x_min":61,"x_max":922,"o":"m 922 872 q 894 773 904 825 q 876 661 883 721 q 783 656 833 644 q 778 795 794 747 q 725 860 763 843 q 633 878 688 878 q 453 822 529 878 q 331 672 378 765 q 271 469 285 579 q 278 278 257 365 q 360 140 300 192 q 525 88 421 88 q 656 106 592 88 q 781 158 719 124 q 799 128 793 146 q 806 92 804 111 q 649 13 731 39 q 475 -12 567 -12 q 234 51 329 -12 q 100 224 139 115 q 81 471 61 333 q 151 686 97 596 q 281 835 204 776 q 447 923 357 894 q 625 951 536 951 q 783 933 711 951 q 922 872 854 914 m 636 1014 q 595 1024 615 1017 q 558 1044 575 1032 q 608 1109 586 1076 q 647 1171 631 1142 q 672 1219 663 1200 q 702 1223 688 1222 q 731 1224 717 1224 q 794 1218 764 1224 q 846 1203 824 1213 q 736 1107 790 1157 q 636 1014 682 1057 z "},"Č":{"ha":872,"x_min":61,"x_max":922,"o":"m 922 872 q 894 773 904 825 q 876 661 883 721 q 783 656 833 644 q 778 795 794 747 q 725 860 763 843 q 633 878 688 878 q 453 822 529 878 q 331 672 378 765 q 271 469 285 579 q 278 278 257 365 q 360 140 300 192 q 525 88 421 88 q 656 106 592 88 q 781 158 719 124 q 799 128 793 146 q 806 92 804 111 q 649 13 731 39 q 475 -12 567 -12 q 234 51 329 -12 q 100 224 139 115 q 81 471 61 333 q 151 686 97 596 q 281 835 204 776 q 447 923 357 894 q 625 951 536 951 q 783 933 711 951 q 922 872 854 914 m 604 1015 q 522 1100 568 1057 q 428 1181 476 1143 q 447 1217 435 1203 q 483 1233 460 1231 q 573 1185 525 1208 q 664 1143 621 1161 q 767 1185 719 1161 q 854 1231 815 1208 q 885 1210 871 1225 q 906 1179 899 1196 q 788 1106 849 1146 q 675 1025 726 1065 q 604 1015 640 1010 z "},"Ç":{"ha":872,"x_min":61,"x_max":922,"o":"m 922 872 q 894 773 904 825 q 876 661 883 721 q 783 656 833 644 q 778 795 794 747 q 725 860 763 843 q 633 878 688 878 q 453 822 529 878 q 331 672 378 765 q 271 469 285 579 q 278 278 257 365 q 360 140 300 192 q 525 88 421 88 q 656 106 592 88 q 781 158 719 124 q 799 128 793 146 q 806 92 804 111 q 649 13 731 39 q 475 -12 567 -12 q 234 51 329 -12 q 100 224 139 115 q 81 471 61 333 q 151 686 97 596 q 281 835 204 776 q 447 923 357 894 q 625 951 536 951 q 783 933 711 951 q 922 872 854 914 m 306 -336 q 302 -310 301 -325 q 304 -283 303 -296 q 388 -267 354 -283 q 428 -219 422 -251 q 413 -163 435 -182 q 354 -144 392 -144 q 340 -87 333 -122 l 438 22 l 529 22 l 449 -72 q 521 -120 500 -85 q 531 -215 542 -156 q 458 -307 518 -276 q 306 -336 397 -337 z "},"Ḉ":{"ha":872,"x_min":61,"x_max":922,"o":"m 922 872 q 894 773 904 825 q 876 661 883 721 q 783 656 833 644 q 778 795 794 747 q 725 860 763 843 q 633 878 688 878 q 453 822 529 878 q 331 672 378 765 q 271 469 285 579 q 278 278 257 365 q 360 140 300 192 q 525 88 421 88 q 656 106 592 88 q 781 158 719 124 q 799 128 793 146 q 806 92 804 111 q 649 13 731 39 q 475 -12 567 -12 q 234 51 329 -12 q 100 224 139 115 q 81 471 61 333 q 151 686 97 596 q 281 835 204 776 q 447 923 357 894 q 625 951 536 951 q 783 933 711 951 q 922 872 854 914 m 306 -336 q 302 -310 301 -325 q 304 -283 303 -296 q 388 -267 354 -283 q 428 -219 422 -251 q 413 -163 435 -182 q 354 -144 392 -144 q 340 -87 333 -122 l 438 22 l 529 22 l 449 -72 q 521 -120 500 -85 q 531 -215 542 -156 q 458 -307 518 -276 q 306 -336 397 -337 m 636 1014 q 595 1024 615 1017 q 558 1044 575 1032 q 608 1109 586 1076 q 647 1171 631 1142 q 672 1219 663 1200 q 702 1223 688 1222 q 731 1224 717 1224 q 794 1218 764 1224 q 846 1203 824 1213 q 736 1107 790 1157 q 636 1014 682 1057 z "},"Ĉ":{"ha":872,"x_min":61,"x_max":922,"o":"m 922 872 q 894 773 904 825 q 876 661 883 721 q 783 656 833 644 q 778 795 794 747 q 725 860 763 843 q 633 878 688 878 q 453 822 529 878 q 331 672 378 765 q 271 469 285 579 q 278 278 257 365 q 360 140 300 192 q 525 88 421 88 q 656 106 592 88 q 781 158 719 124 q 799 128 793 146 q 806 92 804 111 q 649 13 731 39 q 475 -12 567 -12 q 234 51 329 -12 q 100 224 139 115 q 81 471 61 333 q 151 686 97 596 q 281 835 204 776 q 447 923 357 894 q 625 951 536 951 q 783 933 711 951 q 922 872 854 914 m 472 1008 q 445 1040 456 1019 q 435 1078 435 1061 q 513 1124 474 1099 q 590 1175 553 1149 q 658 1225 626 1201 q 697 1227 678 1229 q 733 1218 715 1225 q 809 1138 768 1178 q 896 1050 850 1097 q 869 1028 888 1036 q 831 1017 851 1019 q 748 1064 792 1042 q 661 1103 704 1086 q 596 1074 629 1090 q 531 1040 563 1057 q 472 1008 500 1024 z "},"Ċ":{"ha":872,"x_min":61,"x_max":922,"o":"m 922 872 q 894 773 904 825 q 876 661 883 721 q 783 656 833 644 q 778 795 794 747 q 725 860 763 843 q 633 878 688 878 q 453 822 529 878 q 331 672 378 765 q 271 469 285 579 q 278 278 257 365 q 360 140 300 192 q 525 88 421 88 q 656 106 592 88 q 781 158 719 124 q 799 128 793 146 q 806 92 804 111 q 649 13 731 39 q 475 -12 567 -12 q 234 51 329 -12 q 100 224 139 115 q 81 471 61 333 q 151 686 97 596 q 281 835 204 776 q 447 923 357 894 q 625 951 536 951 q 783 933 711 951 q 922 872 854 914 m 644 999 q 579 1024 601 999 q 563 1093 557 1050 q 599 1157 568 1135 q 675 1179 629 1179 q 742 1153 718 1179 q 758 1083 765 1126 q 723 1021 753 1043 q 644 999 693 999 z "},"D":{"ha":1019,"x_min":28,"x_max":1021,"o":"m 557 943 q 708 931 635 943 q 844 886 782 918 q 949 799 907 854 q 1006 660 990 744 q 997 454 1021 575 q 937 274 979 350 q 835 144 894 197 q 704 60 775 92 q 556 14 633 28 q 401 0 479 0 l 238 0 l 251 76 l 426 76 q 550 94 490 76 q 661 156 610 113 q 751 272 713 199 q 811 457 790 346 q 819 658 833 578 q 765 784 806 738 q 664 849 724 831 q 535 868 604 868 q 485 865 508 868 q 438 854 463 863 l 374 939 q 463 941 417 939 q 557 943 510 943 m 169 943 q 240 941 201 942 q 320 940 279 940 q 397 939 361 939 q 458 939 433 939 l 333 207 q 328 123 325 151 q 354 85 331 94 q 426 76 378 76 l 401 0 q 314 0 363 0 q 213 -1 265 0 q 113 -2 161 -1 q 28 -4 65 -3 q 33 35 29 17 q 44 71 38 54 q 105 89 83 76 q 138 133 126 101 q 158 222 149 164 l 250 746 q 253 820 258 796 q 227 854 247 844 q 171 868 207 864 q 167 907 167 888 q 169 943 167 926 z "},"Ǳ":{"ha":1783,"x_min":28,"x_max":1836,"o":"m 557 943 q 708 931 635 943 q 844 886 782 918 q 949 799 907 854 q 1006 660 990 744 q 997 454 1021 575 q 937 274 979 350 q 835 144 894 197 q 704 60 775 92 q 556 14 633 28 q 401 0 479 0 l 238 0 l 251 76 l 426 76 q 550 94 490 76 q 661 156 610 113 q 751 272 713 199 q 811 457 790 346 q 819 658 833 578 q 765 784 806 738 q 664 849 724 831 q 535 868 604 868 q 485 865 508 868 q 438 854 463 863 l 374 939 q 463 941 417 939 q 557 943 510 943 m 169 943 q 240 941 201 942 q 320 940 279 940 q 397 939 361 939 q 458 939 433 939 l 333 207 q 328 123 325 151 q 354 85 331 94 q 426 76 378 76 l 401 0 q 314 0 363 0 q 213 -1 265 0 q 113 -2 161 -1 q 28 -4 65 -3 q 33 35 29 17 q 44 71 38 54 q 105 89 83 76 q 138 133 126 101 q 158 222 149 164 l 250 746 q 253 820 258 796 q 227 854 247 844 q 171 868 207 864 q 167 907 167 888 q 169 943 167 926 m 1010 -4 q 997 28 1001 10 q 993 71 992 47 q 1213 346 1107 211 q 1421 617 1318 481 q 1625 897 1524 754 l 1660 864 l 1456 864 q 1361 849 1400 864 q 1292 794 1322 835 q 1232 675 1263 754 q 1136 707 1171 679 q 1163 778 1150 739 q 1185 862 1175 818 q 1203 943 1196 906 q 1305 940 1253 942 q 1411 939 1357 939 q 1525 939 1465 939 q 1619 939 1572 939 q 1715 940 1667 939 q 1815 943 1764 942 q 1835 869 1836 915 q 1628 587 1731 725 q 1419 312 1525 449 q 1199 35 1314 175 l 1176 76 l 1382 76 q 1481 84 1440 76 q 1551 111 1522 92 q 1602 167 1579 131 q 1650 261 1625 203 q 1743 219 1706 251 q 1718 152 1731 190 q 1694 73 1706 114 q 1676 -4 1683 32 q 1554 -1 1614 -1 q 1437 0 1494 0 q 1319 0 1379 0 q 1206 0 1257 0 q 1108 -1 1154 0 q 1010 -4 1061 -1 z "},"Ǆ":{"ha":1783,"x_min":28,"x_max":1836,"o":"m 557 943 q 708 931 635 943 q 844 886 782 918 q 949 799 907 854 q 1006 660 990 744 q 997 454 1021 575 q 937 274 979 350 q 835 144 894 197 q 704 60 775 92 q 556 14 633 28 q 401 0 479 0 l 238 0 l 251 76 l 426 76 q 550 94 490 76 q 661 156 610 113 q 751 272 713 199 q 811 457 790 346 q 819 658 833 578 q 765 784 806 738 q 664 849 724 831 q 535 868 604 868 q 485 865 508 868 q 438 854 463 863 l 374 939 q 463 941 417 939 q 557 943 510 943 m 169 943 q 240 941 201 942 q 320 940 279 940 q 397 939 361 939 q 458 939 433 939 l 333 207 q 328 123 325 151 q 354 85 331 94 q 426 76 378 76 l 401 0 q 314 0 363 0 q 213 -1 265 0 q 113 -2 161 -1 q 28 -4 65 -3 q 33 35 29 17 q 44 71 38 54 q 105 89 83 76 q 138 133 126 101 q 158 222 149 164 l 250 746 q 253 820 258 796 q 227 854 247 844 q 171 868 207 864 q 167 907 167 888 q 169 943 167 926 m 1010 -4 q 997 28 1001 10 q 993 71 992 47 q 1213 346 1107 211 q 1421 617 1318 481 q 1625 897 1524 754 l 1660 864 l 1456 864 q 1361 849 1400 864 q 1292 794 1322 835 q 1232 675 1263 754 q 1136 707 1171 679 q 1163 778 1150 739 q 1185 862 1175 818 q 1203 943 1196 906 q 1305 940 1253 942 q 1411 939 1357 939 q 1525 939 1465 939 q 1619 939 1572 939 q 1715 940 1667 939 q 1815 943 1764 942 q 1835 869 1836 915 q 1628 587 1731 725 q 1419 312 1525 449 q 1199 35 1314 175 l 1176 76 l 1382 76 q 1481 84 1440 76 q 1551 111 1522 92 q 1602 167 1579 131 q 1650 261 1625 203 q 1743 219 1706 251 q 1718 152 1731 190 q 1694 73 1706 114 q 1676 -4 1683 32 q 1554 -1 1614 -1 q 1437 0 1494 0 q 1319 0 1379 0 q 1206 0 1257 0 q 1108 -1 1154 0 q 1010 -4 1061 -1 m 1475 1015 q 1393 1100 1439 1057 q 1299 1181 1347 1143 q 1318 1217 1306 1203 q 1354 1233 1331 1231 q 1444 1185 1396 1208 q 1535 1143 1492 1161 q 1638 1185 1590 1161 q 1725 1231 1686 1208 q 1756 1210 1742 1225 q 1776 1179 1769 1196 q 1658 1106 1719 1146 q 1546 1025 1597 1065 q 1475 1015 1511 1010 z "},"Ð":{"ha":1019,"x_min":28,"x_max":1021,"o":"m 557 943 q 708 931 635 943 q 844 886 782 918 q 949 799 907 854 q 1006 660 990 744 q 997 454 1021 575 q 937 274 979 350 q 835 144 894 197 q 704 60 775 92 q 556 14 633 28 q 401 0 479 0 l 238 0 l 251 76 l 426 76 q 550 94 490 76 q 661 156 610 113 q 751 272 713 199 q 811 457 790 346 q 819 658 833 578 q 765 784 806 738 q 664 849 724 831 q 535 868 604 868 q 485 865 508 868 q 438 854 463 863 l 374 939 q 463 941 417 939 q 557 943 510 943 m 169 943 q 240 941 201 942 q 320 940 279 940 q 397 939 361 939 q 458 939 433 939 l 333 207 q 328 123 325 151 q 354 85 331 94 q 426 76 378 76 l 401 0 q 314 0 363 0 q 213 -1 265 0 q 113 -2 161 -1 q 28 -4 65 -3 q 33 35 29 17 q 44 71 38 54 q 105 89 83 76 q 138 133 126 101 q 158 222 149 164 l 250 746 q 253 820 258 796 q 227 854 247 844 q 171 868 207 864 q 167 907 167 888 q 169 943 167 926 m 92 431 q 96 480 92 454 q 105 519 100 506 l 547 519 q 544 472 547 493 q 533 432 541 451 q 433 433 481 433 q 332 433 385 433 q 237 433 276 433 q 165 433 198 433 q 92 431 132 432 z "},"Ď":{"ha":1019,"x_min":28,"x_max":1021,"o":"m 557 943 q 708 931 635 943 q 844 886 782 918 q 949 799 907 854 q 1006 660 990 744 q 997 454 1021 575 q 937 274 979 350 q 835 144 894 197 q 704 60 775 92 q 556 14 633 28 q 401 0 479 0 l 238 0 l 251 76 l 426 76 q 550 94 490 76 q 661 156 610 113 q 751 272 713 199 q 811 457 790 346 q 819 658 833 578 q 765 784 806 738 q 664 849 724 831 q 535 868 604 868 q 485 865 508 868 q 438 854 463 863 l 374 939 q 463 941 417 939 q 557 943 510 943 m 169 943 q 240 941 201 942 q 320 940 279 940 q 397 939 361 939 q 458 939 433 939 l 333 207 q 328 123 325 151 q 354 85 331 94 q 426 76 378 76 l 401 0 q 314 0 363 0 q 213 -1 265 0 q 113 -2 161 -1 q 28 -4 65 -3 q 33 35 29 17 q 44 71 38 54 q 105 89 83 76 q 138 133 126 101 q 158 222 149 164 l 250 746 q 253 820 258 796 q 227 854 247 844 q 171 868 207 864 q 167 907 167 888 q 169 943 167 926 m 546 1015 q 464 1100 510 1057 q 369 1181 418 1143 q 389 1217 376 1203 q 425 1233 401 1231 q 515 1185 467 1208 q 606 1143 563 1161 q 709 1185 661 1161 q 796 1231 757 1208 q 826 1210 813 1225 q 847 1179 840 1196 q 729 1106 790 1146 q 617 1025 668 1065 q 546 1015 582 1010 z "},"Ḑ":{"ha":1019,"x_min":28,"x_max":1021,"o":"m 557 943 q 708 931 635 943 q 844 886 782 918 q 949 799 907 854 q 1006 660 990 744 q 997 454 1021 575 q 937 274 979 350 q 835 144 894 197 q 704 60 775 92 q 556 14 633 28 q 401 0 479 0 l 238 0 l 251 76 l 426 76 q 550 94 490 76 q 661 156 610 113 q 751 272 713 199 q 811 457 790 346 q 819 658 833 578 q 765 784 806 738 q 664 849 724 831 q 535 868 604 868 q 485 865 508 868 q 438 854 463 863 l 374 939 q 463 941 417 939 q 557 943 510 943 m 169 943 q 240 941 201 942 q 320 940 279 940 q 397 939 361 939 q 458 939 433 939 l 333 207 q 328 123 325 151 q 354 85 331 94 q 426 76 378 76 l 401 0 q 314 0 363 0 q 213 -1 265 0 q 113 -2 161 -1 q 28 -4 65 -3 q 33 35 29 17 q 44 71 38 54 q 105 89 83 76 q 138 133 126 101 q 158 222 149 164 l 250 746 q 253 820 258 796 q 227 854 247 844 q 171 868 207 864 q 167 907 167 888 q 169 943 167 926 m 326 -406 q 279 -367 290 -396 q 338 -307 315 -337 q 364 -251 360 -276 q 353 -216 367 -229 q 308 -199 340 -203 q 338 -99 307 -143 q 413 -84 378 -94 q 476 -57 449 -74 q 515 -92 506 -67 q 518 -158 525 -117 q 450 -297 504 -235 q 326 -406 396 -360 z "},"Đ":{"ha":1019,"x_min":28,"x_max":1021,"o":"m 557 943 q 708 931 635 943 q 844 886 782 918 q 949 799 907 854 q 1006 660 990 744 q 997 454 1021 575 q 937 274 979 350 q 835 144 894 197 q 704 60 775 92 q 556 14 633 28 q 401 0 479 0 l 238 0 l 251 76 l 426 76 q 550 94 490 76 q 661 156 610 113 q 751 272 713 199 q 811 457 790 346 q 819 658 833 578 q 765 784 806 738 q 664 849 724 831 q 535 868 604 868 q 485 865 508 868 q 438 854 463 863 l 374 939 q 463 941 417 939 q 557 943 510 943 m 169 943 q 240 941 201 942 q 320 940 279 940 q 397 939 361 939 q 458 939 433 939 l 333 207 q 328 123 325 151 q 354 85 331 94 q 426 76 378 76 l 401 0 q 314 0 363 0 q 213 -1 265 0 q 113 -2 161 -1 q 28 -4 65 -3 q 33 35 29 17 q 44 71 38 54 q 105 89 83 76 q 138 133 126 101 q 158 222 149 164 l 250 746 q 253 820 258 796 q 227 854 247 844 q 171 868 207 864 q 167 907 167 888 q 169 943 167 926 m 92 431 q 96 480 92 454 q 105 519 100 506 l 547 519 q 544 472 547 493 q 533 432 541 451 q 433 433 481 433 q 332 433 385 433 q 237 433 276 433 q 165 433 198 433 q 92 431 132 432 z "},"Ḍ":{"ha":1019,"x_min":28,"x_max":1021,"o":"m 557 943 q 708 931 635 943 q 844 886 782 918 q 949 799 907 854 q 1006 660 990 744 q 997 454 1021 575 q 937 274 979 350 q 835 144 894 197 q 704 60 775 92 q 556 14 633 28 q 401 0 479 0 l 238 0 l 251 76 l 426 76 q 550 94 490 76 q 661 156 610 113 q 751 272 713 199 q 811 457 790 346 q 819 658 833 578 q 765 784 806 738 q 664 849 724 831 q 535 868 604 868 q 485 865 508 868 q 438 854 463 863 l 374 939 q 463 941 417 939 q 557 943 510 943 m 169 943 q 240 941 201 942 q 320 940 279 940 q 397 939 361 939 q 458 939 433 939 l 333 207 q 328 123 325 151 q 354 85 331 94 q 426 76 378 76 l 401 0 q 314 0 363 0 q 213 -1 265 0 q 113 -2 161 -1 q 28 -4 65 -3 q 33 35 29 17 q 44 71 38 54 q 105 89 83 76 q 138 133 126 101 q 158 222 149 164 l 250 746 q 253 820 258 796 q 227 854 247 844 q 171 868 207 864 q 167 907 167 888 q 169 943 167 926 m 393 -311 q 323 -285 346 -311 q 307 -212 300 -258 q 346 -143 315 -168 q 418 -118 376 -118 q 487 -143 461 -118 q 503 -219 513 -168 q 467 -286 496 -261 q 393 -311 438 -311 z "},"Ḏ":{"ha":1019,"x_min":28,"x_max":1021,"o":"m 557 943 q 708 931 635 943 q 844 886 782 918 q 949 799 907 854 q 1006 660 990 744 q 997 454 1021 575 q 937 274 979 350 q 835 144 894 197 q 704 60 775 92 q 556 14 633 28 q 401 0 479 0 l 238 0 l 251 76 l 426 76 q 550 94 490 76 q 661 156 610 113 q 751 272 713 199 q 811 457 790 346 q 819 658 833 578 q 765 784 806 738 q 664 849 724 831 q 535 868 604 868 q 485 865 508 868 q 438 854 463 863 l 374 939 q 463 941 417 939 q 557 943 510 943 m 169 943 q 240 941 201 942 q 320 940 279 940 q 397 939 361 939 q 458 939 433 939 l 333 207 q 328 123 325 151 q 354 85 331 94 q 426 76 378 76 l 401 0 q 314 0 363 0 q 213 -1 265 0 q 113 -2 161 -1 q 28 -4 65 -3 q 33 35 29 17 q 44 71 38 54 q 105 89 83 76 q 138 133 126 101 q 158 222 149 164 l 250 746 q 253 820 258 796 q 227 854 247 844 q 171 868 207 864 q 167 907 167 888 q 169 943 167 926 m 156 -246 q 158 -211 156 -233 q 168 -174 161 -189 l 657 -174 q 654 -206 657 -187 q 644 -240 651 -224 q 392 -241 515 -240 q 156 -246 269 -242 z "},"ǲ":{"ha":1600,"x_min":28,"x_max":1588,"o":"m 557 943 q 708 931 635 943 q 844 886 782 918 q 949 799 907 854 q 1006 660 990 744 q 997 454 1021 575 q 937 274 979 350 q 835 144 894 197 q 704 60 775 92 q 556 14 633 28 q 401 0 479 0 l 238 0 l 251 76 l 426 76 q 550 94 490 76 q 661 156 610 113 q 751 272 713 199 q 811 457 790 346 q 819 658 833 578 q 765 784 806 738 q 664 849 724 831 q 535 868 604 868 q 485 865 508 868 q 438 854 463 863 l 374 939 q 463 941 417 939 q 557 943 510 943 m 169 943 q 240 941 201 942 q 320 940 279 940 q 397 939 361 939 q 458 939 433 939 l 333 207 q 328 123 325 151 q 354 85 331 94 q 426 76 378 76 l 401 0 q 314 0 363 0 q 213 -1 265 0 q 113 -2 161 -1 q 28 -4 65 -3 q 33 35 29 17 q 44 71 38 54 q 105 89 83 76 q 138 133 126 101 q 158 222 149 164 l 250 746 q 253 820 258 796 q 227 854 247 844 q 171 868 207 864 q 167 907 167 888 q 169 943 167 926 m 1025 -12 q 1010 23 1015 3 q 1008 63 1006 43 q 1259 292 1150 181 q 1435 499 1368 404 l 1438 489 q 1383 497 1410 494 q 1325 499 1356 499 q 1253 491 1281 499 q 1207 465 1225 483 q 1168 411 1189 446 q 1123 419 1144 411 q 1089 440 1101 428 q 1131 535 1114 486 q 1156 636 1147 585 q 1251 641 1197 639 q 1363 643 1304 643 q 1470 641 1418 643 q 1564 636 1522 639 q 1588 569 1585 607 q 1477 415 1540 496 q 1338 256 1414 335 q 1179 106 1263 178 l 1189 125 q 1258 144 1228 142 q 1313 144 1288 147 q 1367 142 1339 142 q 1428 158 1410 142 q 1467 217 1446 174 q 1510 213 1488 218 q 1550 197 1533 207 q 1524 112 1535 160 q 1510 21 1513 64 q 1474 -4 1500 4 q 1386 -12 1447 -12 q 1263 -6 1318 -12 q 1149 0 1208 0 q 1090 -3 1121 0 q 1025 -12 1060 -6 z "},"ǅ":{"ha":1600,"x_min":28,"x_max":1664,"o":"m 557 943 q 708 931 635 943 q 844 886 782 918 q 949 799 907 854 q 1006 660 990 744 q 997 454 1021 575 q 937 274 979 350 q 835 144 894 197 q 704 60 775 92 q 556 14 633 28 q 401 0 479 0 l 238 0 l 251 76 l 426 76 q 550 94 490 76 q 661 156 610 113 q 751 272 713 199 q 811 457 790 346 q 819 658 833 578 q 765 784 806 738 q 664 849 724 831 q 535 868 604 868 q 485 865 508 868 q 438 854 463 863 l 374 939 q 463 941 417 939 q 557 943 510 943 m 169 943 q 240 941 201 942 q 320 940 279 940 q 397 939 361 939 q 458 939 433 939 l 333 207 q 328 123 325 151 q 354 85 331 94 q 426 76 378 76 l 401 0 q 314 0 363 0 q 213 -1 265 0 q 113 -2 161 -1 q 28 -4 65 -3 q 33 35 29 17 q 44 71 38 54 q 105 89 83 76 q 138 133 126 101 q 158 222 149 164 l 250 746 q 253 820 258 796 q 227 854 247 844 q 171 868 207 864 q 167 907 167 888 q 169 943 167 926 m 1025 -12 q 1010 23 1015 3 q 1008 63 1006 43 q 1259 292 1150 181 q 1435 499 1368 404 l 1438 489 q 1383 497 1410 494 q 1325 499 1356 499 q 1253 491 1281 499 q 1207 465 1225 483 q 1168 411 1189 446 q 1123 419 1144 411 q 1089 440 1101 428 q 1131 535 1114 486 q 1156 636 1147 585 q 1251 641 1197 639 q 1363 643 1304 643 q 1470 641 1418 643 q 1564 636 1522 639 q 1588 569 1585 607 q 1477 415 1540 496 q 1338 256 1414 335 q 1179 106 1263 178 l 1189 125 q 1258 144 1228 142 q 1313 144 1288 147 q 1367 142 1339 142 q 1428 158 1410 142 q 1467 217 1446 174 q 1510 213 1488 218 q 1550 197 1533 207 q 1524 112 1535 160 q 1510 21 1513 64 q 1474 -4 1500 4 q 1386 -12 1447 -12 q 1263 -6 1318 -12 q 1149 0 1208 0 q 1090 -3 1121 0 q 1025 -12 1060 -6 m 1354 718 q 1276 826 1319 769 q 1186 931 1233 882 q 1207 965 1193 953 q 1244 982 1221 978 q 1332 917 1285 950 q 1421 861 1379 885 q 1526 915 1476 886 q 1615 974 1575 944 q 1644 956 1632 969 q 1664 926 1657 943 q 1542 833 1606 886 q 1425 726 1478 781 q 1390 717 1408 718 q 1354 718 1371 715 z "},"E":{"ha":835,"x_min":32,"x_max":842,"o":"m 32 -4 q 35 34 32 15 q 47 72 39 53 q 107 89 86 76 q 139 133 128 101 q 160 222 150 164 l 249 732 q 254 813 258 785 q 229 851 250 840 q 169 868 208 863 q 167 904 168 886 q 169 943 167 922 q 247 941 207 942 q 326 940 288 940 q 400 939 365 939 q 458 939 435 939 l 336 217 q 331 126 326 156 q 359 86 335 96 q 432 76 383 76 l 403 0 q 308 0 357 0 q 210 -1 258 0 q 115 -2 161 -1 q 32 -4 69 -3 m 717 -4 q 626 -1 676 -1 q 520 0 576 0 q 403 0 464 0 l 432 76 l 456 76 q 573 97 529 76 q 646 158 617 117 q 701 260 675 199 q 748 247 728 256 q 786 222 768 239 q 747 118 767 176 q 717 -4 728 60 m 639 304 q 595 310 615 307 q 557 324 575 314 q 551 389 560 364 q 514 426 542 414 q 435 438 486 438 l 342 438 l 356 514 l 443 514 q 555 535 521 514 q 599 621 589 556 q 642 626 621 625 q 685 624 663 626 q 669 551 676 588 q 654 461 661 515 q 645 377 649 415 q 639 304 642 339 m 740 696 q 726 790 739 753 q 675 844 714 826 q 553 863 636 863 l 408 863 l 454 939 q 597 939 532 939 q 722 940 661 939 q 842 943 782 942 q 832 826 836 890 q 832 708 828 761 q 740 696 793 696 z "},"É":{"ha":835,"x_min":32,"x_max":842,"o":"m 32 -4 q 35 34 32 15 q 47 72 39 53 q 107 89 86 76 q 139 133 128 101 q 160 222 150 164 l 249 732 q 254 813 258 785 q 229 851 250 840 q 169 868 208 863 q 167 904 168 886 q 169 943 167 922 q 247 941 207 942 q 326 940 288 940 q 400 939 365 939 q 458 939 435 939 l 336 217 q 331 126 326 156 q 359 86 335 96 q 432 76 383 76 l 403 0 q 308 0 357 0 q 210 -1 258 0 q 115 -2 161 -1 q 32 -4 69 -3 m 717 -4 q 626 -1 676 -1 q 520 0 576 0 q 403 0 464 0 l 432 76 l 456 76 q 573 97 529 76 q 646 158 617 117 q 701 260 675 199 q 748 247 728 256 q 786 222 768 239 q 747 118 767 176 q 717 -4 728 60 m 639 304 q 595 310 615 307 q 557 324 575 314 q 551 389 560 364 q 514 426 542 414 q 435 438 486 438 l 342 438 l 356 514 l 443 514 q 555 535 521 514 q 599 621 589 556 q 642 626 621 625 q 685 624 663 626 q 669 551 676 588 q 654 461 661 515 q 645 377 649 415 q 639 304 642 339 m 740 696 q 726 790 739 753 q 675 844 714 826 q 553 863 636 863 l 408 863 l 454 939 q 597 939 532 939 q 722 940 661 939 q 842 943 782 942 q 832 826 836 890 q 832 708 828 761 q 740 696 793 696 m 521 1014 q 480 1024 500 1017 q 443 1044 460 1032 q 493 1109 471 1076 q 531 1171 515 1142 q 557 1219 547 1200 q 587 1223 572 1222 q 615 1224 601 1224 q 678 1218 649 1224 q 731 1203 708 1213 q 621 1107 675 1157 q 521 1014 567 1057 z "},"Ĕ":{"ha":835,"x_min":32,"x_max":842,"o":"m 32 -4 q 35 34 32 15 q 47 72 39 53 q 107 89 86 76 q 139 133 128 101 q 160 222 150 164 l 249 732 q 254 813 258 785 q 229 851 250 840 q 169 868 208 863 q 167 904 168 886 q 169 943 167 922 q 247 941 207 942 q 326 940 288 940 q 400 939 365 939 q 458 939 435 939 l 336 217 q 331 126 326 156 q 359 86 335 96 q 432 76 383 76 l 403 0 q 308 0 357 0 q 210 -1 258 0 q 115 -2 161 -1 q 32 -4 69 -3 m 717 -4 q 626 -1 676 -1 q 520 0 576 0 q 403 0 464 0 l 432 76 l 456 76 q 573 97 529 76 q 646 158 617 117 q 701 260 675 199 q 748 247 728 256 q 786 222 768 239 q 747 118 767 176 q 717 -4 728 60 m 639 304 q 595 310 615 307 q 557 324 575 314 q 551 389 560 364 q 514 426 542 414 q 435 438 486 438 l 342 438 l 356 514 l 443 514 q 555 535 521 514 q 599 621 589 556 q 642 626 621 625 q 685 624 663 626 q 669 551 676 588 q 654 461 661 515 q 645 377 649 415 q 639 304 642 339 m 740 696 q 726 790 739 753 q 675 844 714 826 q 553 863 636 863 l 408 863 l 454 939 q 597 939 532 939 q 722 940 661 939 q 842 943 782 942 q 832 826 836 890 q 832 708 828 761 q 740 696 793 696 m 513 1010 q 343 1060 396 1010 q 308 1206 290 1110 q 351 1217 328 1214 q 397 1218 375 1221 q 435 1142 396 1169 q 546 1115 475 1115 q 663 1142 615 1115 q 725 1218 711 1169 q 765 1219 746 1221 q 796 1210 783 1217 q 705 1061 778 1113 q 513 1010 632 1010 z "},"Ě":{"ha":835,"x_min":32,"x_max":842,"o":"m 32 -4 q 35 34 32 15 q 47 72 39 53 q 107 89 86 76 q 139 133 128 101 q 160 222 150 164 l 249 732 q 254 813 258 785 q 229 851 250 840 q 169 868 208 863 q 167 904 168 886 q 169 943 167 922 q 247 941 207 942 q 326 940 288 940 q 400 939 365 939 q 458 939 435 939 l 336 217 q 331 126 326 156 q 359 86 335 96 q 432 76 383 76 l 403 0 q 308 0 357 0 q 210 -1 258 0 q 115 -2 161 -1 q 32 -4 69 -3 m 717 -4 q 626 -1 676 -1 q 520 0 576 0 q 403 0 464 0 l 432 76 l 456 76 q 573 97 529 76 q 646 158 617 117 q 701 260 675 199 q 748 247 728 256 q 786 222 768 239 q 747 118 767 176 q 717 -4 728 60 m 639 304 q 595 310 615 307 q 557 324 575 314 q 551 389 560 364 q 514 426 542 414 q 435 438 486 438 l 342 438 l 356 514 l 443 514 q 555 535 521 514 q 599 621 589 556 q 642 626 621 625 q 685 624 663 626 q 669 551 676 588 q 654 461 661 515 q 645 377 649 415 q 639 304 642 339 m 740 696 q 726 790 739 753 q 675 844 714 826 q 553 863 636 863 l 408 863 l 454 939 q 597 939 532 939 q 722 940 661 939 q 842 943 782 942 q 832 826 836 890 q 832 708 828 761 q 740 696 793 696 m 489 1015 q 407 1100 453 1057 q 313 1181 361 1143 q 332 1217 319 1203 q 368 1233 344 1231 q 458 1185 410 1208 q 549 1143 506 1161 q 652 1185 604 1161 q 739 1231 700 1208 q 769 1210 756 1225 q 790 1179 783 1196 q 672 1106 733 1146 q 560 1025 611 1065 q 489 1015 525 1010 z "},"Ȩ":{"ha":835,"x_min":32,"x_max":842,"o":"m 32 -4 q 35 34 32 15 q 47 72 39 53 q 107 89 86 76 q 139 133 128 101 q 160 222 150 164 l 249 732 q 254 813 258 785 q 229 851 250 840 q 169 868 208 863 q 167 904 168 886 q 169 943 167 922 q 247 941 207 942 q 326 940 288 940 q 400 939 365 939 q 458 939 435 939 l 336 217 q 331 126 326 156 q 359 86 335 96 q 432 76 383 76 l 403 0 q 308 0 357 0 q 210 -1 258 0 q 115 -2 161 -1 q 32 -4 69 -3 m 717 -4 q 626 -1 676 -1 q 520 0 576 0 q 403 0 464 0 l 432 76 l 456 76 q 573 97 529 76 q 646 158 617 117 q 701 260 675 199 q 748 247 728 256 q 786 222 768 239 q 747 118 767 176 q 717 -4 728 60 m 639 304 q 595 310 615 307 q 557 324 575 314 q 551 389 560 364 q 514 426 542 414 q 435 438 486 438 l 342 438 l 356 514 l 443 514 q 555 535 521 514 q 599 621 589 556 q 642 626 621 625 q 685 624 663 626 q 669 551 676 588 q 654 461 661 515 q 645 377 649 415 q 639 304 642 339 m 740 696 q 726 790 739 753 q 675 844 714 826 q 553 863 636 863 l 408 863 l 454 939 q 597 939 532 939 q 722 940 661 939 q 842 943 782 942 q 832 826 836 890 q 832 708 828 761 q 740 696 793 696 m 238 -336 q 234 -310 233 -325 q 236 -283 235 -296 q 320 -267 286 -283 q 360 -219 354 -251 q 345 -163 367 -182 q 286 -144 324 -144 q 272 -87 265 -122 l 369 22 l 461 22 l 381 -72 q 453 -120 432 -85 q 463 -215 474 -156 q 390 -307 450 -276 q 238 -336 329 -337 z "},"Ḝ":{"ha":835,"x_min":32,"x_max":842,"o":"m 32 -4 q 35 34 32 15 q 47 72 39 53 q 107 89 86 76 q 139 133 128 101 q 160 222 150 164 l 249 732 q 254 813 258 785 q 229 851 250 840 q 169 868 208 863 q 167 904 168 886 q 169 943 167 922 q 247 941 207 942 q 326 940 288 940 q 400 939 365 939 q 458 939 435 939 l 336 217 q 331 126 326 156 q 359 86 335 96 q 432 76 383 76 l 403 0 q 308 0 357 0 q 210 -1 258 0 q 115 -2 161 -1 q 32 -4 69 -3 m 717 -4 q 626 -1 676 -1 q 520 0 576 0 q 403 0 464 0 l 432 76 l 456 76 q 573 97 529 76 q 646 158 617 117 q 701 260 675 199 q 748 247 728 256 q 786 222 768 239 q 747 118 767 176 q 717 -4 728 60 m 639 304 q 595 310 615 307 q 557 324 575 314 q 551 389 560 364 q 514 426 542 414 q 435 438 486 438 l 342 438 l 356 514 l 443 514 q 555 535 521 514 q 599 621 589 556 q 642 626 621 625 q 685 624 663 626 q 669 551 676 588 q 654 461 661 515 q 645 377 649 415 q 639 304 642 339 m 740 696 q 726 790 739 753 q 675 844 714 826 q 553 863 636 863 l 408 863 l 454 939 q 597 939 532 939 q 722 940 661 939 q 842 943 782 942 q 832 826 836 890 q 832 708 828 761 q 740 696 793 696 m 238 -336 q 234 -310 233 -325 q 236 -283 235 -296 q 320 -267 286 -283 q 360 -219 354 -251 q 345 -163 367 -182 q 286 -144 324 -144 q 272 -87 265 -122 l 369 22 l 461 22 l 381 -72 q 453 -120 432 -85 q 463 -215 474 -156 q 390 -307 450 -276 q 238 -336 329 -337 m 513 1010 q 343 1060 396 1010 q 308 1206 290 1110 q 351 1217 328 1214 q 397 1218 375 1221 q 435 1142 396 1169 q 546 1115 475 1115 q 663 1142 615 1115 q 725 1218 711 1169 q 765 1219 746 1221 q 796 1210 783 1217 q 705 1061 778 1113 q 513 1010 632 1010 z "},"Ê":{"ha":835,"x_min":32,"x_max":842,"o":"m 32 -4 q 35 34 32 15 q 47 72 39 53 q 107 89 86 76 q 139 133 128 101 q 160 222 150 164 l 249 732 q 254 813 258 785 q 229 851 250 840 q 169 868 208 863 q 167 904 168 886 q 169 943 167 922 q 247 941 207 942 q 326 940 288 940 q 400 939 365 939 q 458 939 435 939 l 336 217 q 331 126 326 156 q 359 86 335 96 q 432 76 383 76 l 403 0 q 308 0 357 0 q 210 -1 258 0 q 115 -2 161 -1 q 32 -4 69 -3 m 717 -4 q 626 -1 676 -1 q 520 0 576 0 q 403 0 464 0 l 432 76 l 456 76 q 573 97 529 76 q 646 158 617 117 q 701 260 675 199 q 748 247 728 256 q 786 222 768 239 q 747 118 767 176 q 717 -4 728 60 m 639 304 q 595 310 615 307 q 557 324 575 314 q 551 389 560 364 q 514 426 542 414 q 435 438 486 438 l 342 438 l 356 514 l 443 514 q 555 535 521 514 q 599 621 589 556 q 642 626 621 625 q 685 624 663 626 q 669 551 676 588 q 654 461 661 515 q 645 377 649 415 q 639 304 642 339 m 740 696 q 726 790 739 753 q 675 844 714 826 q 553 863 636 863 l 408 863 l 454 939 q 597 939 532 939 q 722 940 661 939 q 842 943 782 942 q 832 826 836 890 q 832 708 828 761 q 740 696 793 696 m 358 1008 q 331 1040 342 1019 q 321 1078 321 1061 q 399 1124 360 1099 q 476 1175 439 1149 q 544 1225 513 1201 q 583 1227 564 1229 q 619 1218 601 1225 q 695 1138 654 1178 q 782 1050 736 1097 q 756 1028 774 1036 q 717 1017 738 1019 q 634 1064 678 1042 q 547 1103 590 1086 q 482 1074 515 1090 q 417 1040 449 1057 q 358 1008 386 1024 z "},"Ế":{"ha":835,"x_min":32,"x_max":958,"o":"m 32 -4 q 35 34 32 15 q 47 72 39 53 q 107 89 86 76 q 139 133 128 101 q 160 222 150 164 l 249 732 q 254 813 258 785 q 229 851 250 840 q 169 868 208 863 q 167 904 168 886 q 169 943 167 922 q 247 941 207 942 q 326 940 288 940 q 400 939 365 939 q 458 939 435 939 l 336 217 q 331 126 326 156 q 359 86 335 96 q 432 76 383 76 l 403 0 q 308 0 357 0 q 210 -1 258 0 q 115 -2 161 -1 q 32 -4 69 -3 m 717 -4 q 626 -1 676 -1 q 520 0 576 0 q 403 0 464 0 l 432 76 l 456 76 q 573 97 529 76 q 646 158 617 117 q 701 260 675 199 q 748 247 728 256 q 786 222 768 239 q 747 118 767 176 q 717 -4 728 60 m 639 304 q 595 310 615 307 q 557 324 575 314 q 551 389 560 364 q 514 426 542 414 q 435 438 486 438 l 342 438 l 356 514 l 443 514 q 555 535 521 514 q 599 621 589 556 q 642 626 621 625 q 685 624 663 626 q 669 551 676 588 q 654 461 661 515 q 645 377 649 415 q 639 304 642 339 m 740 696 q 726 790 739 753 q 675 844 714 826 q 553 863 636 863 l 408 863 l 454 939 q 597 939 532 939 q 722 940 661 939 q 842 943 782 942 q 832 826 836 890 q 832 708 828 761 q 740 696 793 696 z "},"Ệ":{"ha":835,"x_min":32,"x_max":842,"o":"m 32 -4 q 35 34 32 15 q 47 72 39 53 q 107 89 86 76 q 139 133 128 101 q 160 222 150 164 l 249 732 q 254 813 258 785 q 229 851 250 840 q 169 868 208 863 q 167 904 168 886 q 169 943 167 922 q 247 941 207 942 q 326 940 288 940 q 400 939 365 939 q 458 939 435 939 l 336 217 q 331 126 326 156 q 359 86 335 96 q 432 76 383 76 l 403 0 q 308 0 357 0 q 210 -1 258 0 q 115 -2 161 -1 q 32 -4 69 -3 m 717 -4 q 626 -1 676 -1 q 520 0 576 0 q 403 0 464 0 l 432 76 l 456 76 q 573 97 529 76 q 646 158 617 117 q 701 260 675 199 q 748 247 728 256 q 786 222 768 239 q 747 118 767 176 q 717 -4 728 60 m 639 304 q 595 310 615 307 q 557 324 575 314 q 551 389 560 364 q 514 426 542 414 q 435 438 486 438 l 342 438 l 356 514 l 443 514 q 555 535 521 514 q 599 621 589 556 q 642 626 621 625 q 685 624 663 626 q 669 551 676 588 q 654 461 661 515 q 645 377 649 415 q 639 304 642 339 m 740 696 q 726 790 739 753 q 675 844 714 826 q 553 863 636 863 l 408 863 l 454 939 q 597 939 532 939 q 722 940 661 939 q 842 943 782 942 q 832 826 836 890 q 832 708 828 761 q 740 696 793 696 m 332 -311 q 262 -285 285 -311 q 246 -212 239 -258 q 285 -143 254 -168 q 357 -118 315 -118 q 426 -143 400 -118 q 442 -219 451 -168 q 406 -286 435 -261 q 332 -311 376 -311 m 358 1008 q 331 1040 342 1019 q 321 1078 321 1061 q 399 1124 360 1099 q 476 1175 439 1149 q 544 1225 513 1201 q 583 1227 564 1229 q 619 1218 601 1225 q 695 1138 654 1178 q 782 1050 736 1097 q 756 1028 774 1036 q 717 1017 738 1019 q 634 1064 678 1042 q 547 1103 590 1086 q 482 1074 515 1090 q 417 1040 449 1057 q 358 1008 386 1024 z "},"Ề":{"ha":835,"x_min":32,"x_max":842,"o":"m 32 -4 q 35 34 32 15 q 47 72 39 53 q 107 89 86 76 q 139 133 128 101 q 160 222 150 164 l 249 732 q 254 813 258 785 q 229 851 250 840 q 169 868 208 863 q 167 904 168 886 q 169 943 167 922 q 247 941 207 942 q 326 940 288 940 q 400 939 365 939 q 458 939 435 939 l 336 217 q 331 126 326 156 q 359 86 335 96 q 432 76 383 76 l 403 0 q 308 0 357 0 q 210 -1 258 0 q 115 -2 161 -1 q 32 -4 69 -3 m 717 -4 q 626 -1 676 -1 q 520 0 576 0 q 403 0 464 0 l 432 76 l 456 76 q 573 97 529 76 q 646 158 617 117 q 701 260 675 199 q 748 247 728 256 q 786 222 768 239 q 747 118 767 176 q 717 -4 728 60 m 639 304 q 595 310 615 307 q 557 324 575 314 q 551 389 560 364 q 514 426 542 414 q 435 438 486 438 l 342 438 l 356 514 l 443 514 q 555 535 521 514 q 599 621 589 556 q 642 626 621 625 q 685 624 663 626 q 669 551 676 588 q 654 461 661 515 q 645 377 649 415 q 639 304 642 339 m 740 696 q 726 790 739 753 q 675 844 714 826 q 553 863 636 863 l 408 863 l 454 939 q 597 939 532 939 q 722 940 661 939 q 842 943 782 942 q 832 826 836 890 q 832 708 828 761 q 740 696 793 696 z "},"Ể":{"ha":835,"x_min":32,"x_max":932,"o":"m 32 -4 q 35 34 32 15 q 47 72 39 53 q 107 89 86 76 q 139 133 128 101 q 160 222 150 164 l 249 732 q 254 813 258 785 q 229 851 250 840 q 169 868 208 863 q 167 904 168 886 q 169 943 167 922 q 247 941 207 942 q 326 940 288 940 q 400 939 365 939 q 458 939 435 939 l 336 217 q 331 126 326 156 q 359 86 335 96 q 432 76 383 76 l 403 0 q 308 0 357 0 q 210 -1 258 0 q 115 -2 161 -1 q 32 -4 69 -3 m 717 -4 q 626 -1 676 -1 q 520 0 576 0 q 403 0 464 0 l 432 76 l 456 76 q 573 97 529 76 q 646 158 617 117 q 701 260 675 199 q 748 247 728 256 q 786 222 768 239 q 747 118 767 176 q 717 -4 728 60 m 639 304 q 595 310 615 307 q 557 324 575 314 q 551 389 560 364 q 514 426 542 414 q 435 438 486 438 l 342 438 l 356 514 l 443 514 q 555 535 521 514 q 599 621 589 556 q 642 626 621 625 q 685 624 663 626 q 669 551 676 588 q 654 461 661 515 q 645 377 649 415 q 639 304 642 339 m 740 696 q 726 790 739 753 q 675 844 714 826 q 553 863 636 863 l 408 863 l 454 939 q 597 939 532 939 q 722 940 661 939 q 842 943 782 942 q 832 826 836 890 q 832 708 828 761 q 740 696 793 696 z "},"Ễ":{"ha":835,"x_min":32,"x_max":856,"o":"m 32 -4 q 35 34 32 15 q 47 72 39 53 q 107 89 86 76 q 139 133 128 101 q 160 222 150 164 l 249 732 q 254 813 258 785 q 229 851 250 840 q 169 868 208 863 q 167 904 168 886 q 169 943 167 922 q 247 941 207 942 q 326 940 288 940 q 400 939 365 939 q 458 939 435 939 l 336 217 q 331 126 326 156 q 359 86 335 96 q 432 76 383 76 l 403 0 q 308 0 357 0 q 210 -1 258 0 q 115 -2 161 -1 q 32 -4 69 -3 m 717 -4 q 626 -1 676 -1 q 520 0 576 0 q 403 0 464 0 l 432 76 l 456 76 q 573 97 529 76 q 646 158 617 117 q 701 260 675 199 q 748 247 728 256 q 786 222 768 239 q 747 118 767 176 q 717 -4 728 60 m 639 304 q 595 310 615 307 q 557 324 575 314 q 551 389 560 364 q 514 426 542 414 q 435 438 486 438 l 342 438 l 356 514 l 443 514 q 555 535 521 514 q 599 621 589 556 q 642 626 621 625 q 685 624 663 626 q 669 551 676 588 q 654 461 661 515 q 645 377 649 415 q 639 304 642 339 m 740 696 q 726 790 739 753 q 675 844 714 826 q 553 863 636 863 l 408 863 l 454 939 q 597 939 532 939 q 722 940 661 939 q 842 943 782 942 q 832 826 836 890 q 832 708 828 761 q 740 696 793 696 m 358 1008 q 331 1040 342 1019 q 321 1078 321 1061 q 399 1124 360 1099 q 476 1175 439 1149 q 544 1225 513 1201 q 583 1227 564 1229 q 619 1218 601 1225 q 695 1138 654 1178 q 782 1050 736 1097 q 756 1028 774 1036 q 717 1017 738 1019 q 634 1064 678 1042 q 547 1103 590 1086 q 482 1074 515 1090 q 417 1040 449 1057 q 358 1008 386 1024 m 669 1294 q 616 1303 639 1294 q 574 1322 593 1311 q 534 1340 554 1332 q 490 1349 514 1349 q 431 1333 458 1349 q 376 1297 403 1318 q 360 1332 364 1314 q 357 1374 356 1350 q 454 1439 407 1422 q 539 1456 501 1456 q 608 1442 579 1456 q 662 1416 636 1429 q 717 1403 688 1403 q 765 1417 743 1403 q 807 1450 788 1431 q 835 1433 821 1443 q 856 1406 849 1422 q 765 1321 813 1347 q 669 1294 718 1294 z "},"Ȅ":{"ha":835,"x_min":32,"x_max":842,"o":"m 32 -4 q 35 34 32 15 q 47 72 39 53 q 107 89 86 76 q 139 133 128 101 q 160 222 150 164 l 249 732 q 254 813 258 785 q 229 851 250 840 q 169 868 208 863 q 167 904 168 886 q 169 943 167 922 q 247 941 207 942 q 326 940 288 940 q 400 939 365 939 q 458 939 435 939 l 336 217 q 331 126 326 156 q 359 86 335 96 q 432 76 383 76 l 403 0 q 308 0 357 0 q 210 -1 258 0 q 115 -2 161 -1 q 32 -4 69 -3 m 717 -4 q 626 -1 676 -1 q 520 0 576 0 q 403 0 464 0 l 432 76 l 456 76 q 573 97 529 76 q 646 158 617 117 q 701 260 675 199 q 748 247 728 256 q 786 222 768 239 q 747 118 767 176 q 717 -4 728 60 m 639 304 q 595 310 615 307 q 557 324 575 314 q 551 389 560 364 q 514 426 542 414 q 435 438 486 438 l 342 438 l 356 514 l 443 514 q 555 535 521 514 q 599 621 589 556 q 642 626 621 625 q 685 624 663 626 q 669 551 676 588 q 654 461 661 515 q 645 377 649 415 q 639 304 642 339 m 740 696 q 726 790 739 753 q 675 844 714 826 q 553 863 636 863 l 408 863 l 454 939 q 597 939 532 939 q 722 940 661 939 q 842 943 782 942 q 832 826 836 890 q 832 708 828 761 q 740 696 793 696 m 417 1007 q 355 1098 385 1056 q 292 1182 325 1140 q 362 1195 321 1193 q 439 1190 403 1197 q 463 1100 450 1149 q 496 1004 476 1051 q 459 1002 478 1001 q 417 1007 440 1003 m 647 1007 q 588 1099 615 1056 q 526 1183 560 1142 q 595 1196 556 1194 q 669 1190 635 1197 q 694 1100 681 1149 q 726 1004 707 1051 q 690 1002 708 1001 q 647 1007 671 1003 z "},"Ë":{"ha":835,"x_min":32,"x_max":842,"o":"m 32 -4 q 35 34 32 15 q 47 72 39 53 q 107 89 86 76 q 139 133 128 101 q 160 222 150 164 l 249 732 q 254 813 258 785 q 229 851 250 840 q 169 868 208 863 q 167 904 168 886 q 169 943 167 922 q 247 941 207 942 q 326 940 288 940 q 400 939 365 939 q 458 939 435 939 l 336 217 q 331 126 326 156 q 359 86 335 96 q 432 76 383 76 l 403 0 q 308 0 357 0 q 210 -1 258 0 q 115 -2 161 -1 q 32 -4 69 -3 m 717 -4 q 626 -1 676 -1 q 520 0 576 0 q 403 0 464 0 l 432 76 l 456 76 q 573 97 529 76 q 646 158 617 117 q 701 260 675 199 q 748 247 728 256 q 786 222 768 239 q 747 118 767 176 q 717 -4 728 60 m 639 304 q 595 310 615 307 q 557 324 575 314 q 551 389 560 364 q 514 426 542 414 q 435 438 486 438 l 342 438 l 356 514 l 443 514 q 555 535 521 514 q 599 621 589 556 q 642 626 621 625 q 685 624 663 626 q 669 551 676 588 q 654 461 661 515 q 645 377 649 415 q 639 304 642 339 m 740 696 q 726 790 739 753 q 675 844 714 826 q 553 863 636 863 l 408 863 l 454 939 q 597 939 532 939 q 722 940 661 939 q 842 943 782 942 q 832 826 836 890 q 832 708 828 761 q 740 696 793 696 m 396 1011 q 330 1040 351 1011 q 314 1115 308 1069 q 342 1170 319 1151 q 404 1189 365 1189 q 473 1161 450 1189 q 486 1089 496 1133 q 396 1011 469 1011 m 686 1011 q 619 1038 642 1011 q 603 1110 597 1065 q 697 1189 613 1189 q 763 1163 740 1189 q 778 1092 785 1138 q 686 1011 767 1011 z "},"Ė":{"ha":835,"x_min":32,"x_max":842,"o":"m 32 -4 q 35 34 32 15 q 47 72 39 53 q 107 89 86 76 q 139 133 128 101 q 160 222 150 164 l 249 732 q 254 813 258 785 q 229 851 250 840 q 169 868 208 863 q 167 904 168 886 q 169 943 167 922 q 247 941 207 942 q 326 940 288 940 q 400 939 365 939 q 458 939 435 939 l 336 217 q 331 126 326 156 q 359 86 335 96 q 432 76 383 76 l 403 0 q 308 0 357 0 q 210 -1 258 0 q 115 -2 161 -1 q 32 -4 69 -3 m 717 -4 q 626 -1 676 -1 q 520 0 576 0 q 403 0 464 0 l 432 76 l 456 76 q 573 97 529 76 q 646 158 617 117 q 701 260 675 199 q 748 247 728 256 q 786 222 768 239 q 747 118 767 176 q 717 -4 728 60 m 639 304 q 595 310 615 307 q 557 324 575 314 q 551 389 560 364 q 514 426 542 414 q 435 438 486 438 l 342 438 l 356 514 l 443 514 q 555 535 521 514 q 599 621 589 556 q 642 626 621 625 q 685 624 663 626 q 669 551 676 588 q 654 461 661 515 q 645 377 649 415 q 639 304 642 339 m 740 696 q 726 790 739 753 q 675 844 714 826 q 553 863 636 863 l 408 863 l 454 939 q 597 939 532 939 q 722 940 661 939 q 842 943 782 942 q 832 826 836 890 q 832 708 828 761 q 740 696 793 696 m 529 999 q 464 1024 486 999 q 447 1093 442 1050 q 483 1157 453 1135 q 560 1179 514 1179 q 626 1153 603 1179 q 643 1083 650 1126 q 608 1021 638 1043 q 529 999 578 999 z "},"Ẹ":{"ha":835,"x_min":32,"x_max":842,"o":"m 32 -4 q 35 34 32 15 q 47 72 39 53 q 107 89 86 76 q 139 133 128 101 q 160 222 150 164 l 249 732 q 254 813 258 785 q 229 851 250 840 q 169 868 208 863 q 167 904 168 886 q 169 943 167 922 q 247 941 207 942 q 326 940 288 940 q 400 939 365 939 q 458 939 435 939 l 336 217 q 331 126 326 156 q 359 86 335 96 q 432 76 383 76 l 403 0 q 308 0 357 0 q 210 -1 258 0 q 115 -2 161 -1 q 32 -4 69 -3 m 717 -4 q 626 -1 676 -1 q 520 0 576 0 q 403 0 464 0 l 432 76 l 456 76 q 573 97 529 76 q 646 158 617 117 q 701 260 675 199 q 748 247 728 256 q 786 222 768 239 q 747 118 767 176 q 717 -4 728 60 m 639 304 q 595 310 615 307 q 557 324 575 314 q 551 389 560 364 q 514 426 542 414 q 435 438 486 438 l 342 438 l 356 514 l 443 514 q 555 535 521 514 q 599 621 589 556 q 642 626 621 625 q 685 624 663 626 q 669 551 676 588 q 654 461 661 515 q 645 377 649 415 q 639 304 642 339 m 740 696 q 726 790 739 753 q 675 844 714 826 q 553 863 636 863 l 408 863 l 454 939 q 597 939 532 939 q 722 940 661 939 q 842 943 782 942 q 832 826 836 890 q 832 708 828 761 q 740 696 793 696 m 332 -311 q 262 -285 285 -311 q 246 -212 239 -258 q 285 -143 254 -168 q 357 -118 315 -118 q 426 -143 400 -118 q 442 -219 451 -168 q 406 -286 435 -261 q 332 -311 376 -311 z "},"È":{"ha":835,"x_min":32,"x_max":842,"o":"m 32 -4 q 35 34 32 15 q 47 72 39 53 q 107 89 86 76 q 139 133 128 101 q 160 222 150 164 l 249 732 q 254 813 258 785 q 229 851 250 840 q 169 868 208 863 q 167 904 168 886 q 169 943 167 922 q 247 941 207 942 q 326 940 288 940 q 400 939 365 939 q 458 939 435 939 l 336 217 q 331 126 326 156 q 359 86 335 96 q 432 76 383 76 l 403 0 q 308 0 357 0 q 210 -1 258 0 q 115 -2 161 -1 q 32 -4 69 -3 m 717 -4 q 626 -1 676 -1 q 520 0 576 0 q 403 0 464 0 l 432 76 l 456 76 q 573 97 529 76 q 646 158 617 117 q 701 260 675 199 q 748 247 728 256 q 786 222 768 239 q 747 118 767 176 q 717 -4 728 60 m 639 304 q 595 310 615 307 q 557 324 575 314 q 551 389 560 364 q 514 426 542 414 q 435 438 486 438 l 342 438 l 356 514 l 443 514 q 555 535 521 514 q 599 621 589 556 q 642 626 621 625 q 685 624 663 626 q 669 551 676 588 q 654 461 661 515 q 645 377 649 415 q 639 304 642 339 m 740 696 q 726 790 739 753 q 675 844 714 826 q 553 863 636 863 l 408 863 l 454 939 q 597 939 532 939 q 722 940 661 939 q 842 943 782 942 q 832 826 836 890 q 832 708 828 761 q 740 696 793 696 m 596 1028 q 550 1021 578 1021 q 503 1028 522 1021 q 465 1084 488 1054 q 417 1144 443 1114 q 367 1200 392 1175 q 444 1213 401 1210 q 528 1207 486 1215 q 556 1118 539 1165 q 596 1028 572 1071 z "},"Ẻ":{"ha":835,"x_min":32,"x_max":842,"o":"m 32 -4 q 35 34 32 15 q 47 72 39 53 q 107 89 86 76 q 139 133 128 101 q 160 222 150 164 l 249 732 q 254 813 258 785 q 229 851 250 840 q 169 868 208 863 q 167 904 168 886 q 169 943 167 922 q 247 941 207 942 q 326 940 288 940 q 400 939 365 939 q 458 939 435 939 l 336 217 q 331 126 326 156 q 359 86 335 96 q 432 76 383 76 l 403 0 q 308 0 357 0 q 210 -1 258 0 q 115 -2 161 -1 q 32 -4 69 -3 m 717 -4 q 626 -1 676 -1 q 520 0 576 0 q 403 0 464 0 l 432 76 l 456 76 q 573 97 529 76 q 646 158 617 117 q 701 260 675 199 q 748 247 728 256 q 786 222 768 239 q 747 118 767 176 q 717 -4 728 60 m 639 304 q 595 310 615 307 q 557 324 575 314 q 551 389 560 364 q 514 426 542 414 q 435 438 486 438 l 342 438 l 356 514 l 443 514 q 555 535 521 514 q 599 621 589 556 q 642 626 621 625 q 685 624 663 626 q 669 551 676 588 q 654 461 661 515 q 645 377 649 415 q 639 304 642 339 m 740 696 q 726 790 739 753 q 675 844 714 826 q 553 863 636 863 l 408 863 l 454 939 q 597 939 532 939 q 722 940 661 939 q 842 943 782 942 q 832 826 836 890 q 832 708 828 761 q 740 696 793 696 m 490 1014 q 485 1036 486 1024 q 486 1061 483 1049 q 515 1101 493 1089 q 558 1125 536 1114 q 589 1156 581 1136 q 585 1180 594 1172 q 560 1188 576 1188 q 515 1168 535 1188 q 481 1106 494 1149 q 439 1113 458 1108 q 406 1126 419 1117 q 417 1166 413 1149 q 422 1207 422 1183 q 489 1232 449 1221 q 576 1243 529 1243 q 678 1217 647 1243 q 696 1150 708 1192 q 669 1108 688 1124 q 629 1081 650 1092 q 591 1060 608 1071 q 568 1032 574 1049 q 565 1022 567 1026 q 565 1008 564 1018 q 528 1008 550 1007 q 490 1014 507 1008 z "},"Ȇ":{"ha":835,"x_min":32,"x_max":842,"o":"m 32 -4 q 35 34 32 15 q 47 72 39 53 q 107 89 86 76 q 139 133 128 101 q 160 222 150 164 l 249 732 q 254 813 258 785 q 229 851 250 840 q 169 868 208 863 q 167 904 168 886 q 169 943 167 922 q 247 941 207 942 q 326 940 288 940 q 400 939 365 939 q 458 939 435 939 l 336 217 q 331 126 326 156 q 359 86 335 96 q 432 76 383 76 l 403 0 q 308 0 357 0 q 210 -1 258 0 q 115 -2 161 -1 q 32 -4 69 -3 m 717 -4 q 626 -1 676 -1 q 520 0 576 0 q 403 0 464 0 l 432 76 l 456 76 q 573 97 529 76 q 646 158 617 117 q 701 260 675 199 q 748 247 728 256 q 786 222 768 239 q 747 118 767 176 q 717 -4 728 60 m 639 304 q 595 310 615 307 q 557 324 575 314 q 551 389 560 364 q 514 426 542 414 q 435 438 486 438 l 342 438 l 356 514 l 443 514 q 555 535 521 514 q 599 621 589 556 q 642 626 621 625 q 685 624 663 626 q 669 551 676 588 q 654 461 661 515 q 645 377 649 415 q 639 304 642 339 m 740 696 q 726 790 739 753 q 675 844 714 826 q 553 863 636 863 l 408 863 l 454 939 q 597 939 532 939 q 722 940 661 939 q 842 943 782 942 q 832 826 836 890 q 832 708 828 761 q 740 696 793 696 z "},"Ē":{"ha":835,"x_min":32,"x_max":842,"o":"m 32 -4 q 35 34 32 15 q 47 72 39 53 q 107 89 86 76 q 139 133 128 101 q 160 222 150 164 l 249 732 q 254 813 258 785 q 229 851 250 840 q 169 868 208 863 q 167 904 168 886 q 169 943 167 922 q 247 941 207 942 q 326 940 288 940 q 400 939 365 939 q 458 939 435 939 l 336 217 q 331 126 326 156 q 359 86 335 96 q 432 76 383 76 l 403 0 q 308 0 357 0 q 210 -1 258 0 q 115 -2 161 -1 q 32 -4 69 -3 m 717 -4 q 626 -1 676 -1 q 520 0 576 0 q 403 0 464 0 l 432 76 l 456 76 q 573 97 529 76 q 646 158 617 117 q 701 260 675 199 q 748 247 728 256 q 786 222 768 239 q 747 118 767 176 q 717 -4 728 60 m 639 304 q 595 310 615 307 q 557 324 575 314 q 551 389 560 364 q 514 426 542 414 q 435 438 486 438 l 342 438 l 356 514 l 443 514 q 555 535 521 514 q 599 621 589 556 q 642 626 621 625 q 685 624 663 626 q 669 551 676 588 q 654 461 661 515 q 645 377 649 415 q 639 304 642 339 m 740 696 q 726 790 739 753 q 675 844 714 826 q 553 863 636 863 l 408 863 l 454 939 q 597 939 532 939 q 722 940 661 939 q 842 943 782 942 q 832 826 836 890 q 832 708 828 761 q 740 696 793 696 m 296 1061 q 299 1096 296 1074 q 308 1133 301 1118 l 797 1133 q 794 1102 797 1119 q 785 1067 792 1085 q 533 1066 656 1067 q 296 1061 410 1065 z "},"Ḗ":{"ha":835,"x_min":32,"x_max":842,"o":"m 32 -4 q 35 34 32 15 q 47 72 39 53 q 107 89 86 76 q 139 133 128 101 q 160 222 150 164 l 249 732 q 254 813 258 785 q 229 851 250 840 q 169 868 208 863 q 167 904 168 886 q 169 943 167 922 q 247 941 207 942 q 326 940 288 940 q 400 939 365 939 q 458 939 435 939 l 336 217 q 331 126 326 156 q 359 86 335 96 q 432 76 383 76 l 403 0 q 308 0 357 0 q 210 -1 258 0 q 115 -2 161 -1 q 32 -4 69 -3 m 717 -4 q 626 -1 676 -1 q 520 0 576 0 q 403 0 464 0 l 432 76 l 456 76 q 573 97 529 76 q 646 158 617 117 q 701 260 675 199 q 748 247 728 256 q 786 222 768 239 q 747 118 767 176 q 717 -4 728 60 m 639 304 q 595 310 615 307 q 557 324 575 314 q 551 389 560 364 q 514 426 542 414 q 435 438 486 438 l 342 438 l 356 514 l 443 514 q 555 535 521 514 q 599 621 589 556 q 642 626 621 625 q 685 624 663 626 q 669 551 676 588 q 654 461 661 515 q 645 377 649 415 q 639 304 642 339 m 740 696 q 726 790 739 753 q 675 844 714 826 q 553 863 636 863 l 408 863 l 454 939 q 597 939 532 939 q 722 940 661 939 q 842 943 782 942 q 832 826 836 890 q 832 708 828 761 q 740 696 793 696 m 296 1061 q 299 1096 296 1074 q 308 1133 301 1118 l 797 1133 q 794 1102 797 1119 q 785 1067 792 1085 q 533 1066 656 1067 q 296 1061 410 1065 m 560 1208 q 519 1219 539 1211 q 482 1239 499 1226 q 532 1303 510 1271 q 570 1365 554 1336 q 596 1414 586 1394 q 626 1417 611 1417 q 654 1418 640 1418 q 717 1413 688 1418 q 769 1397 747 1407 q 660 1301 714 1351 q 560 1208 606 1251 z "},"Ḕ":{"ha":835,"x_min":32,"x_max":842,"o":"m 32 -4 q 35 34 32 15 q 47 72 39 53 q 107 89 86 76 q 139 133 128 101 q 160 222 150 164 l 249 732 q 254 813 258 785 q 229 851 250 840 q 169 868 208 863 q 167 904 168 886 q 169 943 167 922 q 247 941 207 942 q 326 940 288 940 q 400 939 365 939 q 458 939 435 939 l 336 217 q 331 126 326 156 q 359 86 335 96 q 432 76 383 76 l 403 0 q 308 0 357 0 q 210 -1 258 0 q 115 -2 161 -1 q 32 -4 69 -3 m 717 -4 q 626 -1 676 -1 q 520 0 576 0 q 403 0 464 0 l 432 76 l 456 76 q 573 97 529 76 q 646 158 617 117 q 701 260 675 199 q 748 247 728 256 q 786 222 768 239 q 747 118 767 176 q 717 -4 728 60 m 639 304 q 595 310 615 307 q 557 324 575 314 q 551 389 560 364 q 514 426 542 414 q 435 438 486 438 l 342 438 l 356 514 l 443 514 q 555 535 521 514 q 599 621 589 556 q 642 626 621 625 q 685 624 663 626 q 669 551 676 588 q 654 461 661 515 q 645 377 649 415 q 639 304 642 339 m 740 696 q 726 790 739 753 q 675 844 714 826 q 553 863 636 863 l 408 863 l 454 939 q 597 939 532 939 q 722 940 661 939 q 842 943 782 942 q 832 826 836 890 q 832 708 828 761 q 740 696 793 696 m 296 1061 q 299 1096 296 1074 q 308 1133 301 1118 l 797 1133 q 794 1102 797 1119 q 785 1067 792 1085 q 533 1066 656 1067 q 296 1061 410 1065 m 633 1222 q 588 1215 615 1215 q 540 1222 560 1215 q 503 1278 525 1249 q 455 1339 481 1308 q 404 1394 429 1369 q 481 1407 439 1404 q 565 1401 524 1410 q 593 1313 576 1360 q 633 1222 610 1265 z "},"Ę":{"ha":835,"x_min":32,"x_max":842,"o":"m 32 -4 q 35 34 32 15 q 47 72 39 53 q 107 89 86 76 q 139 133 128 101 q 160 222 150 164 l 249 732 q 254 813 258 785 q 229 851 250 840 q 169 868 208 863 q 167 904 168 886 q 169 943 167 922 q 247 941 207 942 q 326 940 288 940 q 400 939 365 939 q 458 939 435 939 l 336 217 q 331 126 326 156 q 359 86 335 96 q 432 76 383 76 l 403 0 q 308 0 357 0 q 210 -1 258 0 q 115 -2 161 -1 q 32 -4 69 -3 m 717 -4 q 626 -1 676 -1 q 520 0 576 0 q 403 0 464 0 l 432 76 l 456 76 q 573 97 529 76 q 646 158 617 117 q 701 260 675 199 q 748 247 728 256 q 786 222 768 239 q 747 118 767 176 q 717 -4 728 60 m 639 304 q 595 310 615 307 q 557 324 575 314 q 551 389 560 364 q 514 426 542 414 q 435 438 486 438 l 342 438 l 356 514 l 443 514 q 555 535 521 514 q 599 621 589 556 q 642 626 621 625 q 685 624 663 626 q 669 551 676 588 q 654 461 661 515 q 645 377 649 415 q 639 304 642 339 m 740 696 q 726 790 739 753 q 675 844 714 826 q 553 863 636 863 l 408 863 l 454 939 q 597 939 532 939 q 722 940 661 939 q 842 943 782 942 q 832 826 836 890 q 832 708 828 761 q 740 696 793 696 m 543 31 l 606 0 q 497 -69 532 -33 q 457 -140 461 -106 q 472 -190 454 -168 q 528 -212 489 -212 q 553 -210 539 -212 q 582 -203 568 -208 q 594 -233 590 -215 q 597 -269 597 -251 q 534 -302 565 -283 q 475 -343 503 -321 q 462 -345 468 -344 q 447 -346 456 -346 q 369 -330 406 -346 q 313 -279 332 -314 q 303 -192 294 -244 q 333 -115 310 -153 q 408 -41 357 -78 q 543 31 458 -4 z "},"Ǝ":{"ha":822,"x_min":11,"x_max":894,"o":"m 711 -4 q 638 -2 686 -3 q 533 -1 590 -1 q 421 0 475 0 q 329 0 367 0 l 324 76 q 427 106 396 76 q 474 218 458 136 l 614 939 q 676 939 639 939 q 755 940 714 939 q 833 941 796 940 q 894 943 869 942 q 887 901 893 922 q 872 868 881 879 q 813 853 836 865 q 776 815 789 842 q 753 736 763 788 l 650 211 q 641 124 639 153 q 662 84 643 94 q 717 71 681 74 q 717 35 718 54 q 711 -4 715 15 m 11 -3 q 18 116 17 56 q 11 228 19 176 q 50 243 28 238 q 101 250 72 249 q 117 172 107 204 q 149 118 128 139 q 209 87 171 97 q 310 76 247 76 l 325 76 l 329 0 q 205 -1 267 0 q 93 -1 143 -1 q 11 -3 43 -1 m 207 313 q 224 390 215 347 q 242 476 233 432 q 256 557 250 518 q 268 631 263 596 q 311 626 290 629 q 350 614 332 622 q 365 530 339 551 q 469 508 390 508 l 564 508 l 549 435 l 457 435 q 344 410 379 435 q 290 318 308 385 q 252 313 271 314 q 207 313 233 311 m 243 689 q 195 701 215 693 q 161 724 175 710 q 186 794 174 754 q 211 874 199 833 q 229 943 224 914 q 308 942 258 943 q 435 940 358 940 q 618 939 511 939 l 639 868 l 492 868 q 360 842 410 868 q 283 776 310 817 q 243 689 256 735 z "},"Ẽ":{"ha":835,"x_min":32,"x_max":842,"o":"m 32 -4 q 35 34 32 15 q 47 72 39 53 q 107 89 86 76 q 139 133 128 101 q 160 222 150 164 l 249 732 q 254 813 258 785 q 229 851 250 840 q 169 868 208 863 q 167 904 168 886 q 169 943 167 922 q 247 941 207 942 q 326 940 288 940 q 400 939 365 939 q 458 939 435 939 l 336 217 q 331 126 326 156 q 359 86 335 96 q 432 76 383 76 l 403 0 q 308 0 357 0 q 210 -1 258 0 q 115 -2 161 -1 q 32 -4 69 -3 m 717 -4 q 626 -1 676 -1 q 520 0 576 0 q 403 0 464 0 l 432 76 l 456 76 q 573 97 529 76 q 646 158 617 117 q 701 260 675 199 q 748 247 728 256 q 786 222 768 239 q 747 118 767 176 q 717 -4 728 60 m 639 304 q 595 310 615 307 q 557 324 575 314 q 551 389 560 364 q 514 426 542 414 q 435 438 486 438 l 342 438 l 356 514 l 443 514 q 555 535 521 514 q 599 621 589 556 q 642 626 621 625 q 685 624 663 626 q 669 551 676 588 q 654 461 661 515 q 645 377 649 415 q 639 304 642 339 m 740 696 q 726 790 739 753 q 675 844 714 826 q 553 863 636 863 l 408 863 l 454 939 q 597 939 532 939 q 722 940 661 939 q 842 943 782 942 q 832 826 836 890 q 832 708 828 761 q 740 696 793 696 m 614 1033 q 560 1042 583 1033 q 518 1060 538 1050 q 478 1079 499 1071 q 435 1088 458 1088 q 375 1072 403 1088 q 321 1036 347 1057 q 304 1071 308 1053 q 301 1113 300 1089 q 399 1178 351 1161 q 483 1194 446 1194 q 552 1181 524 1194 q 606 1155 581 1168 q 661 1142 632 1142 q 710 1156 688 1142 q 751 1189 732 1169 q 779 1172 765 1182 q 800 1144 793 1161 q 710 1060 757 1086 q 614 1033 663 1033 z "},"Ʒ":{"ha":808,"x_min":31,"x_max":847,"o":"m 314 -12 q 151 8 221 -12 q 31 63 82 28 q 51 171 43 111 q 60 276 58 231 q 114 283 85 282 q 165 279 143 283 q 174 159 161 206 q 223 92 188 113 q 321 71 258 71 q 485 123 419 71 q 568 263 551 175 q 524 408 588 360 q 328 460 460 456 q 317 498 319 475 q 317 543 314 521 q 433 653 374 592 q 549 782 492 715 q 656 911 607 849 l 671 868 l 467 868 q 372 852 411 868 q 303 795 333 836 q 243 675 274 754 q 190 685 218 676 q 147 708 161 694 q 188 820 168 756 q 218 942 208 885 q 281 940 240 940 q 372 939 322 939 q 467 939 421 939 q 547 939 514 939 q 642 939 594 939 q 738 940 690 939 q 831 942 785 940 q 843 912 839 929 q 844 872 847 894 q 748 759 803 822 q 631 629 693 696 q 503 497 569 563 l 486 524 q 710 451 639 521 q 758 257 782 381 q 619 58 733 129 q 314 -12 504 -12 z "},"Ǯ":{"ha":808,"x_min":31,"x_max":847,"o":"m 314 -12 q 151 8 221 -12 q 31 63 82 28 q 51 171 43 111 q 60 276 58 231 q 114 283 85 282 q 165 279 143 283 q 174 159 161 206 q 223 92 188 113 q 321 71 258 71 q 485 123 419 71 q 568 263 551 175 q 524 408 588 360 q 328 460 460 456 q 317 498 319 475 q 317 543 314 521 q 433 653 374 592 q 549 782 492 715 q 656 911 607 849 l 671 868 l 467 868 q 372 852 411 868 q 303 795 333 836 q 243 675 274 754 q 190 685 218 676 q 147 708 161 694 q 188 820 168 756 q 218 942 208 885 q 281 940 240 940 q 372 939 322 939 q 467 939 421 939 q 547 939 514 939 q 642 939 594 939 q 738 940 690 939 q 831 942 785 940 q 843 912 839 929 q 844 872 847 894 q 748 759 803 822 q 631 629 693 696 q 503 497 569 563 l 486 524 q 710 451 639 521 q 758 257 782 381 q 619 58 733 129 q 314 -12 504 -12 m 493 1015 q 411 1100 457 1057 q 317 1181 365 1143 q 336 1217 324 1203 q 372 1233 349 1231 q 462 1185 414 1208 q 553 1143 510 1161 q 656 1185 608 1161 q 743 1231 704 1208 q 774 1210 760 1225 q 794 1179 788 1196 q 676 1106 738 1146 q 564 1025 615 1065 q 493 1015 529 1010 z "},"F":{"ha":779,"x_min":29,"x_max":836,"o":"m 336 217 q 328 134 326 163 q 356 93 331 106 q 439 71 382 81 q 444 36 443 54 q 443 -4 444 18 q 342 -1 390 -1 q 238 0 293 0 q 130 -1 181 0 q 29 -4 79 -1 q 44 71 32 39 q 106 89 85 76 q 138 130 128 101 q 157 213 149 158 l 247 732 q 253 810 256 782 q 231 850 250 838 q 171 868 213 863 q 167 904 168 885 q 169 943 167 924 q 258 940 211 942 q 355 939 304 939 q 457 939 406 939 l 336 217 m 836 943 q 826 826 829 890 q 825 708 822 761 q 735 696 788 696 q 721 790 733 753 q 669 844 708 826 q 547 863 631 863 l 407 863 l 453 939 q 592 939 528 939 q 716 940 656 939 q 836 943 776 942 m 601 582 q 644 587 624 586 q 688 585 665 588 q 672 513 679 549 q 657 422 664 476 q 647 338 650 376 q 642 263 643 299 q 597 269 618 265 q 560 282 576 274 q 540 372 564 346 q 436 399 515 399 l 331 399 l 344 472 l 444 472 q 558 494 524 472 q 601 582 592 517 z "},"G":{"ha":947,"x_min":60,"x_max":958,"o":"m 638 951 q 819 932 742 951 q 958 874 896 913 q 931 774 942 826 q 913 663 919 721 q 866 652 890 654 q 817 656 842 650 q 808 796 826 749 q 749 860 790 843 q 644 878 707 878 q 458 824 536 878 q 332 677 379 769 q 271 469 285 585 q 267 319 260 390 q 300 191 274 247 q 375 102 326 135 q 496 69 424 69 q 560 74 532 69 q 614 89 588 78 q 642 108 632 96 q 660 144 653 119 q 674 211 667 168 q 685 319 688 285 q 661 365 683 353 q 592 382 639 378 q 588 419 588 400 q 590 457 588 439 q 683 453 638 454 q 772 453 729 453 q 858 453 819 453 q 953 457 897 454 q 949 417 951 436 q 939 382 946 399 q 894 368 911 379 q 867 323 878 357 q 842 213 856 289 q 833 137 833 163 q 840 86 832 111 q 675 16 772 44 q 465 -12 578 -12 q 231 50 324 -12 q 99 222 138 113 q 81 471 60 331 q 151 688 97 597 q 283 838 206 779 q 452 924 360 896 q 638 951 544 951 z "},"Ğ":{"ha":947,"x_min":60,"x_max":958,"o":"m 638 951 q 819 932 742 951 q 958 874 896 913 q 931 774 942 826 q 913 663 919 721 q 866 652 890 654 q 817 656 842 650 q 808 796 826 749 q 749 860 790 843 q 644 878 707 878 q 458 824 536 878 q 332 677 379 769 q 271 469 285 585 q 267 319 260 390 q 300 191 274 247 q 375 102 326 135 q 496 69 424 69 q 560 74 532 69 q 614 89 588 78 q 642 108 632 96 q 660 144 653 119 q 674 211 667 168 q 685 319 688 285 q 661 365 683 353 q 592 382 639 378 q 588 419 588 400 q 590 457 588 439 q 683 453 638 454 q 772 453 729 453 q 858 453 819 453 q 953 457 897 454 q 949 417 951 436 q 939 382 946 399 q 894 368 911 379 q 867 323 878 357 q 842 213 856 289 q 833 137 833 163 q 840 86 832 111 q 675 16 772 44 q 465 -12 578 -12 q 231 50 324 -12 q 99 222 138 113 q 81 471 60 331 q 151 688 97 597 q 283 838 206 779 q 452 924 360 896 q 638 951 544 951 m 635 1010 q 465 1060 518 1010 q 431 1206 413 1110 q 474 1217 450 1214 q 519 1218 497 1221 q 558 1142 518 1169 q 668 1115 597 1115 q 785 1142 738 1115 q 847 1218 833 1169 q 887 1219 868 1221 q 918 1210 906 1217 q 827 1061 900 1113 q 635 1010 754 1010 z "},"Ǧ":{"ha":947,"x_min":60,"x_max":958,"o":"m 638 951 q 819 932 742 951 q 958 874 896 913 q 931 774 942 826 q 913 663 919 721 q 866 652 890 654 q 817 656 842 650 q 808 796 826 749 q 749 860 790 843 q 644 878 707 878 q 458 824 536 878 q 332 677 379 769 q 271 469 285 585 q 267 319 260 390 q 300 191 274 247 q 375 102 326 135 q 496 69 424 69 q 560 74 532 69 q 614 89 588 78 q 642 108 632 96 q 660 144 653 119 q 674 211 667 168 q 685 319 688 285 q 661 365 683 353 q 592 382 639 378 q 588 419 588 400 q 590 457 588 439 q 683 453 638 454 q 772 453 729 453 q 858 453 819 453 q 953 457 897 454 q 949 417 951 436 q 939 382 946 399 q 894 368 911 379 q 867 323 878 357 q 842 213 856 289 q 833 137 833 163 q 840 86 832 111 q 675 16 772 44 q 465 -12 578 -12 q 231 50 324 -12 q 99 222 138 113 q 81 471 60 331 q 151 688 97 597 q 283 838 206 779 q 452 924 360 896 q 638 951 544 951 m 611 1015 q 529 1100 575 1057 q 435 1181 483 1143 q 454 1217 442 1203 q 490 1233 467 1231 q 580 1185 532 1208 q 671 1143 628 1161 q 774 1185 726 1161 q 861 1231 822 1208 q 892 1210 878 1225 q 913 1179 906 1196 q 794 1106 856 1146 q 682 1025 733 1065 q 611 1015 647 1010 z "},"Ĝ":{"ha":947,"x_min":60,"x_max":958,"o":"m 638 951 q 819 932 742 951 q 958 874 896 913 q 931 774 942 826 q 913 663 919 721 q 866 652 890 654 q 817 656 842 650 q 808 796 826 749 q 749 860 790 843 q 644 878 707 878 q 458 824 536 878 q 332 677 379 769 q 271 469 285 585 q 267 319 260 390 q 300 191 274 247 q 375 102 326 135 q 496 69 424 69 q 560 74 532 69 q 614 89 588 78 q 642 108 632 96 q 660 144 653 119 q 674 211 667 168 q 685 319 688 285 q 661 365 683 353 q 592 382 639 378 q 588 419 588 400 q 590 457 588 439 q 683 453 638 454 q 772 453 729 453 q 858 453 819 453 q 953 457 897 454 q 949 417 951 436 q 939 382 946 399 q 894 368 911 379 q 867 323 878 357 q 842 213 856 289 q 833 137 833 163 q 840 86 832 111 q 675 16 772 44 q 465 -12 578 -12 q 231 50 324 -12 q 99 222 138 113 q 81 471 60 331 q 151 688 97 597 q 283 838 206 779 q 452 924 360 896 q 638 951 544 951 m 481 1008 q 453 1040 464 1019 q 443 1078 443 1061 q 522 1124 482 1099 q 598 1175 561 1149 q 667 1225 635 1201 q 705 1227 686 1229 q 742 1218 724 1225 q 817 1138 776 1178 q 904 1050 858 1097 q 878 1028 896 1036 q 839 1017 860 1019 q 756 1064 800 1042 q 669 1103 713 1086 q 604 1074 638 1090 q 540 1040 571 1057 q 481 1008 508 1024 z "},"Ģ":{"ha":947,"x_min":60,"x_max":958,"o":"m 638 951 q 819 932 742 951 q 958 874 896 913 q 931 774 942 826 q 913 663 919 721 q 866 652 890 654 q 817 656 842 650 q 808 796 826 749 q 749 860 790 843 q 644 878 707 878 q 458 824 536 878 q 332 677 379 769 q 271 469 285 585 q 267 319 260 390 q 300 191 274 247 q 375 102 326 135 q 496 69 424 69 q 560 74 532 69 q 614 89 588 78 q 642 108 632 96 q 660 144 653 119 q 674 211 667 168 q 685 319 688 285 q 661 365 683 353 q 592 382 639 378 q 588 419 588 400 q 590 457 588 439 q 683 453 638 454 q 772 453 729 453 q 858 453 819 453 q 953 457 897 454 q 949 417 951 436 q 939 382 946 399 q 894 368 911 379 q 867 323 878 357 q 842 213 856 289 q 833 137 833 163 q 840 86 832 111 q 675 16 772 44 q 465 -12 578 -12 q 231 50 324 -12 q 99 222 138 113 q 81 471 60 331 q 151 688 97 597 q 283 838 206 779 q 452 924 360 896 q 638 951 544 951 m 369 -406 q 322 -367 333 -396 q 381 -307 358 -337 q 407 -251 403 -276 q 397 -216 410 -229 q 351 -199 383 -203 q 381 -99 350 -143 q 456 -84 421 -94 q 519 -57 492 -74 q 558 -92 549 -67 q 561 -158 568 -117 q 493 -297 547 -235 q 369 -406 439 -360 z "},"Ġ":{"ha":947,"x_min":60,"x_max":958,"o":"m 638 951 q 819 932 742 951 q 958 874 896 913 q 931 774 942 826 q 913 663 919 721 q 866 652 890 654 q 817 656 842 650 q 808 796 826 749 q 749 860 790 843 q 644 878 707 878 q 458 824 536 878 q 332 677 379 769 q 271 469 285 585 q 267 319 260 390 q 300 191 274 247 q 375 102 326 135 q 496 69 424 69 q 560 74 532 69 q 614 89 588 78 q 642 108 632 96 q 660 144 653 119 q 674 211 667 168 q 685 319 688 285 q 661 365 683 353 q 592 382 639 378 q 588 419 588 400 q 590 457 588 439 q 683 453 638 454 q 772 453 729 453 q 858 453 819 453 q 953 457 897 454 q 949 417 951 436 q 939 382 946 399 q 894 368 911 379 q 867 323 878 357 q 842 213 856 289 q 833 137 833 163 q 840 86 832 111 q 675 16 772 44 q 465 -12 578 -12 q 231 50 324 -12 q 99 222 138 113 q 81 471 60 331 q 151 688 97 597 q 283 838 206 779 q 452 924 360 896 q 638 951 544 951 m 651 999 q 586 1024 608 999 q 569 1093 564 1050 q 606 1157 575 1135 q 682 1179 636 1179 q 749 1153 725 1179 q 765 1083 772 1126 q 730 1021 760 1043 q 651 999 700 999 z "},"Ḡ":{"ha":947,"x_min":60,"x_max":958,"o":"m 638 951 q 819 932 742 951 q 958 874 896 913 q 931 774 942 826 q 913 663 919 721 q 866 652 890 654 q 817 656 842 650 q 808 796 826 749 q 749 860 790 843 q 644 878 707 878 q 458 824 536 878 q 332 677 379 769 q 271 469 285 585 q 267 319 260 390 q 300 191 274 247 q 375 102 326 135 q 496 69 424 69 q 560 74 532 69 q 614 89 588 78 q 642 108 632 96 q 660 144 653 119 q 674 211 667 168 q 685 319 688 285 q 661 365 683 353 q 592 382 639 378 q 588 419 588 400 q 590 457 588 439 q 683 453 638 454 q 772 453 729 453 q 858 453 819 453 q 953 457 897 454 q 949 417 951 436 q 939 382 946 399 q 894 368 911 379 q 867 323 878 357 q 842 213 856 289 q 833 137 833 163 q 840 86 832 111 q 675 16 772 44 q 465 -12 578 -12 q 231 50 324 -12 q 99 222 138 113 q 81 471 60 331 q 151 688 97 597 q 283 838 206 779 q 452 924 360 896 q 638 951 544 951 m 417 1061 q 419 1096 417 1074 q 429 1133 422 1118 l 918 1133 q 915 1102 918 1119 q 906 1067 913 1085 q 653 1066 776 1067 q 417 1061 531 1065 z "},"Ǥ":{"ha":947,"x_min":60,"x_max":958,"o":"m 638 951 q 819 932 742 951 q 958 874 896 913 q 931 774 942 826 q 913 663 919 721 q 866 652 890 654 q 817 656 842 650 q 808 796 826 749 q 749 860 790 843 q 644 878 707 878 q 458 824 536 878 q 332 677 379 769 q 271 469 285 585 q 267 319 260 390 q 300 191 274 247 q 375 102 326 135 q 496 69 424 69 q 560 74 532 69 q 614 89 588 78 q 642 108 632 96 q 660 144 653 119 q 674 211 667 168 q 685 319 688 285 q 661 365 683 353 q 592 382 639 378 q 588 419 588 400 q 590 457 588 439 q 683 453 638 454 q 772 453 729 453 q 858 453 819 453 q 953 457 897 454 q 949 417 951 436 q 939 382 946 399 q 894 368 911 379 q 867 323 878 357 q 842 213 856 289 q 833 137 833 163 q 840 86 832 111 q 675 16 772 44 q 465 -12 578 -12 q 231 50 324 -12 q 99 222 138 113 q 81 471 60 331 q 151 688 97 597 q 283 838 206 779 q 452 924 360 896 q 638 951 544 951 m 501 185 q 505 234 501 208 q 514 274 510 260 l 957 274 q 954 226 957 247 q 943 186 951 206 q 843 188 891 188 q 742 188 795 188 q 646 188 685 188 q 574 187 607 188 q 501 185 541 186 z "},"Ȝ":{"ha":739,"x_min":-61,"x_max":751,"o":"m 156 -237 q 23 -220 78 -237 q -61 -174 -32 -203 q -48 -141 -57 -157 q -22 -111 -39 -125 q 41 -140 -6 -126 q 142 -154 88 -154 q 295 -117 226 -154 q 412 -15 364 -81 q 476 136 460 50 q 455 299 497 244 q 319 353 413 353 q 251 346 288 353 q 183 325 215 339 q 176 367 176 343 q 182 410 176 390 q 375 481 301 440 q 488 574 449 521 q 539 693 526 626 q 523 829 557 783 q 410 875 489 875 q 297 833 340 875 q 214 685 253 790 q 168 688 192 685 q 122 700 144 692 q 144 790 133 740 q 161 890 156 839 q 286 936 214 921 q 440 951 358 951 q 682 885 613 951 q 731 711 751 818 q 670 584 717 640 q 544 483 624 528 q 353 403 465 438 l 375 425 q 508 418 449 432 q 609 370 568 404 q 666 281 650 336 q 667 146 682 225 q 604 -9 650 61 q 490 -131 558 -79 q 337 -210 422 -182 q 156 -237 251 -237 z "},"H":{"ha":1074,"x_min":32,"x_max":1101,"o":"m 585 -4 q 590 36 586 18 q 600 71 593 54 q 658 87 638 76 q 689 123 678 97 q 708 199 700 149 l 801 742 q 806 815 810 790 q 782 851 801 840 q 724 868 763 863 q 720 903 721 885 q 722 943 719 922 q 811 940 764 942 q 910 939 858 939 q 1006 940 957 939 q 1101 943 1054 942 q 1098 905 1100 924 q 1088 868 1096 886 q 1031 851 1051 863 q 999 813 1011 840 q 978 732 988 786 l 886 200 q 881 124 878 150 q 903 88 883 97 q 961 71 922 78 q 965 35 964 54 q 964 -4 967 15 q 872 -1 917 -1 q 776 0 826 0 q 675 -1 725 0 q 585 -4 625 -1 m 32 -4 q 37 36 33 18 q 47 71 40 54 q 104 87 85 76 q 135 123 124 97 q 156 199 146 149 l 249 742 q 253 815 257 790 q 229 851 249 840 q 171 868 210 863 q 167 903 168 885 q 169 943 167 922 q 258 940 211 942 q 357 939 306 939 q 453 940 404 939 q 549 943 501 942 q 544 905 547 924 q 535 868 542 886 q 478 851 499 863 q 447 813 458 840 q 425 732 435 786 l 333 200 q 328 124 325 150 q 350 88 331 97 q 408 71 369 78 q 413 35 411 54 q 411 -4 414 15 q 319 -1 364 -1 q 224 0 274 0 q 122 -1 172 0 q 32 -4 72 -1 m 328 428 l 342 515 l 797 515 l 785 439 q 678 438 739 439 q 554 437 618 438 q 431 433 490 436 q 328 428 372 431 z "},"Ħ":{"ha":1074,"x_min":32,"x_max":1101,"o":"m 585 -4 q 590 36 586 18 q 600 71 593 54 q 658 87 638 76 q 689 123 678 97 q 708 199 700 149 l 801 742 q 806 815 810 790 q 782 851 801 840 q 724 868 763 863 q 720 903 721 885 q 722 943 719 922 q 811 940 764 942 q 910 939 858 939 q 1006 940 957 939 q 1101 943 1054 942 q 1098 905 1100 924 q 1088 868 1096 886 q 1031 851 1051 863 q 999 813 1011 840 q 978 732 988 786 l 886 200 q 881 124 878 150 q 903 88 883 97 q 961 71 922 78 q 965 35 964 54 q 964 -4 967 15 q 872 -1 917 -1 q 776 0 826 0 q 675 -1 725 0 q 585 -4 625 -1 m 32 -4 q 37 36 33 18 q 47 71 40 54 q 104 87 85 76 q 135 123 124 97 q 156 199 146 149 l 249 742 q 253 815 257 790 q 229 851 249 840 q 171 868 210 863 q 167 903 168 885 q 169 943 167 922 q 258 940 211 942 q 357 939 306 939 q 453 940 404 939 q 549 943 501 942 q 544 905 547 924 q 535 868 542 886 q 478 851 499 863 q 447 813 458 840 q 425 732 435 786 l 333 200 q 328 124 325 150 q 350 88 331 97 q 408 71 369 78 q 413 35 411 54 q 411 -4 414 15 q 319 -1 364 -1 q 224 0 274 0 q 122 -1 172 0 q 32 -4 72 -1 m 328 428 l 342 515 l 797 515 l 785 439 q 678 438 739 439 q 554 437 618 438 q 431 433 490 436 q 328 428 372 431 m 140 624 q 145 665 140 642 q 156 703 150 689 l 1057 703 q 1053 665 1057 683 q 1042 629 1049 647 q 942 629 1003 629 q 804 629 881 629 q 643 628 728 629 q 471 628 558 628 q 299 626 383 628 q 140 624 215 625 z "},"Ḫ":{"ha":1074,"x_min":32,"x_max":1101,"o":"m 585 -4 q 590 36 586 18 q 600 71 593 54 q 658 87 638 76 q 689 123 678 97 q 708 199 700 149 l 801 742 q 806 815 810 790 q 782 851 801 840 q 724 868 763 863 q 720 903 721 885 q 722 943 719 922 q 811 940 764 942 q 910 939 858 939 q 1006 940 957 939 q 1101 943 1054 942 q 1098 905 1100 924 q 1088 868 1096 886 q 1031 851 1051 863 q 999 813 1011 840 q 978 732 988 786 l 886 200 q 881 124 878 150 q 903 88 883 97 q 961 71 922 78 q 965 35 964 54 q 964 -4 967 15 q 872 -1 917 -1 q 776 0 826 0 q 675 -1 725 0 q 585 -4 625 -1 m 32 -4 q 37 36 33 18 q 47 71 40 54 q 104 87 85 76 q 135 123 124 97 q 156 199 146 149 l 249 742 q 253 815 257 790 q 229 851 249 840 q 171 868 210 863 q 167 903 168 885 q 169 943 167 922 q 258 940 211 942 q 357 939 306 939 q 453 940 404 939 q 549 943 501 942 q 544 905 547 924 q 535 868 542 886 q 478 851 499 863 q 447 813 458 840 q 425 732 435 786 l 333 200 q 328 124 325 150 q 350 88 331 97 q 408 71 369 78 q 413 35 411 54 q 411 -4 414 15 q 319 -1 364 -1 q 224 0 274 0 q 122 -1 172 0 q 32 -4 72 -1 m 328 428 l 342 515 l 797 515 l 785 439 q 678 438 739 439 q 554 437 618 438 q 431 433 490 436 q 328 428 372 431 z "},"Ȟ":{"ha":1074,"x_min":32,"x_max":1101,"o":"m 585 -4 q 590 36 586 18 q 600 71 593 54 q 658 87 638 76 q 689 123 678 97 q 708 199 700 149 l 801 742 q 806 815 810 790 q 782 851 801 840 q 724 868 763 863 q 720 903 721 885 q 722 943 719 922 q 811 940 764 942 q 910 939 858 939 q 1006 940 957 939 q 1101 943 1054 942 q 1098 905 1100 924 q 1088 868 1096 886 q 1031 851 1051 863 q 999 813 1011 840 q 978 732 988 786 l 886 200 q 881 124 878 150 q 903 88 883 97 q 961 71 922 78 q 965 35 964 54 q 964 -4 967 15 q 872 -1 917 -1 q 776 0 826 0 q 675 -1 725 0 q 585 -4 625 -1 m 32 -4 q 37 36 33 18 q 47 71 40 54 q 104 87 85 76 q 135 123 124 97 q 156 199 146 149 l 249 742 q 253 815 257 790 q 229 851 249 840 q 171 868 210 863 q 167 903 168 885 q 169 943 167 922 q 258 940 211 942 q 357 939 306 939 q 453 940 404 939 q 549 943 501 942 q 544 905 547 924 q 535 868 542 886 q 478 851 499 863 q 447 813 458 840 q 425 732 435 786 l 333 200 q 328 124 325 150 q 350 88 331 97 q 408 71 369 78 q 413 35 411 54 q 411 -4 414 15 q 319 -1 364 -1 q 224 0 274 0 q 122 -1 172 0 q 32 -4 72 -1 m 328 428 l 342 515 l 797 515 l 785 439 q 678 438 739 439 q 554 437 618 438 q 431 433 490 436 q 328 428 372 431 m 606 1015 q 524 1100 569 1057 q 429 1181 478 1143 q 449 1217 436 1203 q 485 1233 461 1231 q 574 1185 526 1208 q 665 1143 622 1161 q 769 1185 721 1161 q 856 1231 817 1208 q 886 1210 872 1225 q 907 1179 900 1196 q 789 1106 850 1146 q 676 1025 728 1065 q 606 1015 642 1010 z "},"Ĥ":{"ha":1074,"x_min":32,"x_max":1101,"o":"m 585 -4 q 590 36 586 18 q 600 71 593 54 q 658 87 638 76 q 689 123 678 97 q 708 199 700 149 l 801 742 q 806 815 810 790 q 782 851 801 840 q 724 868 763 863 q 720 903 721 885 q 722 943 719 922 q 811 940 764 942 q 910 939 858 939 q 1006 940 957 939 q 1101 943 1054 942 q 1098 905 1100 924 q 1088 868 1096 886 q 1031 851 1051 863 q 999 813 1011 840 q 978 732 988 786 l 886 200 q 881 124 878 150 q 903 88 883 97 q 961 71 922 78 q 965 35 964 54 q 964 -4 967 15 q 872 -1 917 -1 q 776 0 826 0 q 675 -1 725 0 q 585 -4 625 -1 m 32 -4 q 37 36 33 18 q 47 71 40 54 q 104 87 85 76 q 135 123 124 97 q 156 199 146 149 l 249 742 q 253 815 257 790 q 229 851 249 840 q 171 868 210 863 q 167 903 168 885 q 169 943 167 922 q 258 940 211 942 q 357 939 306 939 q 453 940 404 939 q 549 943 501 942 q 544 905 547 924 q 535 868 542 886 q 478 851 499 863 q 447 813 458 840 q 425 732 435 786 l 333 200 q 328 124 325 150 q 350 88 331 97 q 408 71 369 78 q 413 35 411 54 q 411 -4 414 15 q 319 -1 364 -1 q 224 0 274 0 q 122 -1 172 0 q 32 -4 72 -1 m 328 428 l 342 515 l 797 515 l 785 439 q 678 438 739 439 q 554 437 618 438 q 431 433 490 436 q 328 428 372 431 m 475 1008 q 448 1040 458 1019 q 438 1078 438 1061 q 516 1124 476 1099 q 592 1175 556 1149 q 661 1225 629 1201 q 699 1227 681 1229 q 736 1218 718 1225 q 812 1138 771 1178 q 899 1050 853 1097 q 872 1028 890 1036 q 833 1017 854 1019 q 751 1064 794 1042 q 664 1103 707 1086 q 599 1074 632 1090 q 534 1040 565 1057 q 475 1008 503 1024 z "},"Ḥ":{"ha":1074,"x_min":32,"x_max":1101,"o":"m 585 -4 q 590 36 586 18 q 600 71 593 54 q 658 87 638 76 q 689 123 678 97 q 708 199 700 149 l 801 742 q 806 815 810 790 q 782 851 801 840 q 724 868 763 863 q 720 903 721 885 q 722 943 719 922 q 811 940 764 942 q 910 939 858 939 q 1006 940 957 939 q 1101 943 1054 942 q 1098 905 1100 924 q 1088 868 1096 886 q 1031 851 1051 863 q 999 813 1011 840 q 978 732 988 786 l 886 200 q 881 124 878 150 q 903 88 883 97 q 961 71 922 78 q 965 35 964 54 q 964 -4 967 15 q 872 -1 917 -1 q 776 0 826 0 q 675 -1 725 0 q 585 -4 625 -1 m 32 -4 q 37 36 33 18 q 47 71 40 54 q 104 87 85 76 q 135 123 124 97 q 156 199 146 149 l 249 742 q 253 815 257 790 q 229 851 249 840 q 171 868 210 863 q 167 903 168 885 q 169 943 167 922 q 258 940 211 942 q 357 939 306 939 q 453 940 404 939 q 549 943 501 942 q 544 905 547 924 q 535 868 542 886 q 478 851 499 863 q 447 813 458 840 q 425 732 435 786 l 333 200 q 328 124 325 150 q 350 88 331 97 q 408 71 369 78 q 413 35 411 54 q 411 -4 414 15 q 319 -1 364 -1 q 224 0 274 0 q 122 -1 172 0 q 32 -4 72 -1 m 328 428 l 342 515 l 797 515 l 785 439 q 678 438 739 439 q 554 437 618 438 q 431 433 490 436 q 328 428 372 431 m 433 -311 q 363 -285 386 -311 q 347 -212 340 -258 q 386 -143 356 -168 q 458 -118 417 -118 q 527 -143 501 -118 q 543 -219 553 -168 q 507 -286 536 -261 q 433 -311 478 -311 z "},"I":{"ha":521,"x_min":32,"x_max":549,"o":"m 249 742 q 253 815 257 790 q 229 851 249 840 q 171 868 210 863 q 167 903 168 885 q 169 943 167 922 q 258 940 211 942 q 357 939 306 939 q 453 940 404 939 q 549 943 501 942 q 544 905 547 924 q 535 868 542 886 q 478 851 499 863 q 447 813 458 840 q 425 732 435 786 l 333 200 q 328 124 325 150 q 350 88 331 97 q 408 71 369 78 q 413 35 411 54 q 411 -4 414 15 q 319 -1 364 -1 q 224 0 274 0 q 122 -1 172 0 q 32 -4 72 -1 q 37 36 33 18 q 47 71 40 54 q 104 87 85 76 q 135 123 124 97 q 156 199 146 149 l 249 742 z "},"Ĳ":{"ha":946,"x_min":99,"x_max":1015,"o":"m 329 -343 q 208 -319 265 -343 q 103 -253 151 -294 q 103 -185 99 -214 q 119 -131 108 -156 q 269 -172 190 -157 q 413 -187 347 -187 q 483 -176 456 -187 q 530 -131 511 -164 q 564 -38 549 -99 q 596 119 579 22 q 613 210 607 179 q 626 262 619 242 q 643 310 632 282 l 640 310 q 581 207 618 263 q 498 101 544 151 q 397 18 451 50 q 288 -14 343 -14 q 208 16 236 -14 q 172 95 181 46 q 166 203 163 144 q 178 322 169 263 q 196 431 188 382 l 250 739 q 253 815 258 789 q 227 851 249 840 q 164 868 206 863 q 160 903 161 885 q 163 943 160 922 q 254 940 206 942 q 356 939 303 939 q 456 940 407 939 q 554 943 504 942 q 550 905 553 924 q 539 868 547 886 q 481 851 501 863 q 448 813 460 839 q 425 732 436 786 l 360 396 q 338 247 343 310 q 343 149 332 183 q 385 115 354 115 q 469 159 421 115 q 565 285 517 203 q 653 483 614 367 q 713 744 693 599 q 717 814 719 789 q 694 851 714 839 q 626 868 674 863 q 622 905 622 886 q 624 943 621 924 q 711 940 660 940 q 814 939 763 939 q 889 939 857 939 q 951 940 921 939 q 1015 943 982 942 q 1011 902 1014 921 q 1003 868 1008 883 q 942 851 964 863 q 908 812 919 840 q 885 726 896 783 l 783 194 q 720 -14 763 83 q 618 -185 678 -111 q 485 -301 558 -260 q 329 -343 413 -343 z "},"Í":{"ha":521,"x_min":32,"x_max":572,"o":"m 249 742 q 253 815 257 790 q 229 851 249 840 q 171 868 210 863 q 167 903 168 885 q 169 943 167 922 q 258 940 211 942 q 357 939 306 939 q 453 940 404 939 q 549 943 501 942 q 544 905 547 924 q 535 868 542 886 q 478 851 499 863 q 447 813 458 840 q 425 732 435 786 l 333 200 q 328 124 325 150 q 350 88 331 97 q 408 71 369 78 q 413 35 411 54 q 411 -4 414 15 q 319 -1 364 -1 q 224 0 274 0 q 122 -1 172 0 q 32 -4 72 -1 q 37 36 33 18 q 47 71 40 54 q 104 87 85 76 q 135 123 124 97 q 156 199 146 149 l 249 742 m 363 1014 q 322 1024 342 1017 q 285 1044 301 1032 q 335 1109 313 1076 q 373 1171 357 1142 q 399 1219 389 1200 q 428 1223 414 1222 q 457 1224 443 1224 q 520 1218 490 1224 q 572 1203 550 1213 q 463 1107 517 1157 q 363 1014 408 1057 z "},"Ĭ":{"ha":521,"x_min":32,"x_max":596,"o":"m 249 742 q 253 815 257 790 q 229 851 249 840 q 171 868 210 863 q 167 903 168 885 q 169 943 167 922 q 258 940 211 942 q 357 939 306 939 q 453 940 404 939 q 549 943 501 942 q 544 905 547 924 q 535 868 542 886 q 478 851 499 863 q 447 813 458 840 q 425 732 435 786 l 333 200 q 328 124 325 150 q 350 88 331 97 q 408 71 369 78 q 413 35 411 54 q 411 -4 414 15 q 319 -1 364 -1 q 224 0 274 0 q 122 -1 172 0 q 32 -4 72 -1 q 37 36 33 18 q 47 71 40 54 q 104 87 85 76 q 135 123 124 97 q 156 199 146 149 l 249 742 m 358 992 q 213 1047 254 992 q 189 1203 171 1103 q 226 1206 206 1207 q 263 1197 246 1206 q 294 1124 265 1149 q 381 1099 322 1099 q 483 1131 442 1099 q 538 1214 525 1163 q 572 1206 556 1213 q 596 1188 588 1199 q 520 1042 579 1092 q 358 992 461 992 z "},"Ǐ":{"ha":521,"x_min":32,"x_max":588,"o":"m 249 742 q 253 815 257 790 q 229 851 249 840 q 171 868 210 863 q 167 903 168 885 q 169 943 167 922 q 258 940 211 942 q 357 939 306 939 q 453 940 404 939 q 549 943 501 942 q 544 905 547 924 q 535 868 542 886 q 478 851 499 863 q 447 813 458 840 q 425 732 435 786 l 333 200 q 328 124 325 150 q 350 88 331 97 q 408 71 369 78 q 413 35 411 54 q 411 -4 414 15 q 319 -1 364 -1 q 224 0 274 0 q 122 -1 172 0 q 32 -4 72 -1 q 37 36 33 18 q 47 71 40 54 q 104 87 85 76 q 135 123 124 97 q 156 199 146 149 l 249 742 m 318 992 q 258 1082 290 1035 q 190 1183 226 1129 q 228 1203 204 1196 q 271 1210 251 1210 q 331 1157 300 1182 q 392 1113 361 1132 q 469 1165 432 1138 q 538 1219 507 1193 q 586 1150 579 1194 q 488 1074 539 1118 q 390 989 436 1031 q 349 988 368 986 q 318 992 331 989 z "},"Î":{"ha":521,"x_min":32,"x_max":588,"o":"m 249 742 q 253 815 257 790 q 229 851 249 840 q 171 868 210 863 q 167 903 168 885 q 169 943 167 922 q 258 940 211 942 q 357 939 306 939 q 453 940 404 939 q 549 943 501 942 q 544 905 547 924 q 535 868 542 886 q 478 851 499 863 q 447 813 458 840 q 425 732 435 786 l 333 200 q 328 124 325 150 q 350 88 331 97 q 408 71 369 78 q 413 35 411 54 q 411 -4 414 15 q 319 -1 364 -1 q 224 0 274 0 q 122 -1 172 0 q 32 -4 72 -1 q 37 36 33 18 q 47 71 40 54 q 104 87 85 76 q 135 123 124 97 q 156 199 146 149 l 249 742 m 239 982 q 206 1011 218 994 q 190 1051 194 1028 q 289 1126 238 1082 q 386 1213 340 1171 q 428 1214 410 1214 q 458 1210 447 1214 q 519 1119 488 1167 q 586 1018 550 1072 q 549 999 572 1007 q 506 992 525 992 q 446 1044 476 1019 q 386 1089 415 1069 q 307 1035 344 1063 q 239 982 269 1008 z "},"Ȉ":{"ha":521,"x_min":32,"x_max":549,"o":"m 249 742 q 253 815 257 790 q 229 851 249 840 q 171 868 210 863 q 167 903 168 885 q 169 943 167 922 q 258 940 211 942 q 357 939 306 939 q 453 940 404 939 q 549 943 501 942 q 544 905 547 924 q 535 868 542 886 q 478 851 499 863 q 447 813 458 840 q 425 732 435 786 l 333 200 q 328 124 325 150 q 350 88 331 97 q 408 71 369 78 q 413 35 411 54 q 411 -4 414 15 q 319 -1 364 -1 q 224 0 274 0 q 122 -1 172 0 q 32 -4 72 -1 q 37 36 33 18 q 47 71 40 54 q 104 87 85 76 q 135 123 124 97 q 156 199 146 149 l 249 742 m 246 1007 q 191 1098 218 1056 q 133 1182 164 1140 q 203 1195 163 1193 q 278 1190 243 1197 q 299 1100 288 1149 q 326 1004 310 1051 q 290 1002 308 1001 q 246 1007 271 1003 m 464 1007 q 412 1099 436 1056 q 358 1183 388 1142 q 424 1196 386 1194 q 496 1190 463 1197 q 517 1100 506 1149 q 544 1004 528 1051 q 508 1002 526 1001 q 464 1007 489 1003 z "},"Ï":{"ha":521,"x_min":32,"x_max":613,"o":"m 249 742 q 253 815 257 790 q 229 851 249 840 q 171 868 210 863 q 167 903 168 885 q 169 943 167 922 q 258 940 211 942 q 357 939 306 939 q 453 940 404 939 q 549 943 501 942 q 544 905 547 924 q 535 868 542 886 q 478 851 499 863 q 447 813 458 840 q 425 732 435 786 l 333 200 q 328 124 325 150 q 350 88 331 97 q 408 71 369 78 q 413 35 411 54 q 411 -4 414 15 q 319 -1 364 -1 q 224 0 274 0 q 122 -1 172 0 q 32 -4 72 -1 q 37 36 33 18 q 47 71 40 54 q 104 87 85 76 q 135 123 124 97 q 156 199 146 149 l 249 742 m 256 1011 q 188 1039 211 1011 q 172 1104 165 1067 q 202 1156 178 1133 q 274 1179 226 1179 q 347 1150 328 1179 q 357 1079 365 1121 q 323 1031 351 1050 q 256 1011 294 1011 m 503 1013 q 431 1042 451 1013 q 418 1114 410 1071 q 452 1163 425 1146 q 519 1179 479 1179 q 588 1153 564 1179 q 603 1088 611 1126 q 574 1035 597 1058 q 503 1013 551 1013 z "},"Ḯ":{"ha":521,"x_min":32,"x_max":613,"o":"m 249 742 q 253 815 257 790 q 229 851 249 840 q 171 868 210 863 q 167 903 168 885 q 169 943 167 922 q 258 940 211 942 q 357 939 306 939 q 453 940 404 939 q 549 943 501 942 q 544 905 547 924 q 535 868 542 886 q 478 851 499 863 q 447 813 458 840 q 425 732 435 786 l 333 200 q 328 124 325 150 q 350 88 331 97 q 408 71 369 78 q 413 35 411 54 q 411 -4 414 15 q 319 -1 364 -1 q 224 0 274 0 q 122 -1 172 0 q 32 -4 72 -1 q 37 36 33 18 q 47 71 40 54 q 104 87 85 76 q 135 123 124 97 q 156 199 146 149 l 249 742 m 256 1011 q 188 1039 211 1011 q 172 1104 165 1067 q 202 1156 178 1133 q 274 1179 226 1179 q 347 1150 328 1179 q 357 1079 365 1121 q 323 1031 351 1050 q 256 1011 294 1011 m 503 1013 q 431 1042 451 1013 q 418 1114 410 1071 q 452 1163 425 1146 q 519 1179 479 1179 q 588 1153 564 1179 q 603 1088 611 1126 q 574 1035 597 1058 q 503 1013 551 1013 m 396 1208 q 355 1219 375 1211 q 318 1239 335 1226 q 368 1303 346 1271 q 406 1365 390 1336 q 432 1414 422 1394 q 462 1417 447 1417 q 490 1418 476 1418 q 553 1413 524 1418 q 606 1397 583 1407 q 496 1301 550 1351 q 396 1208 442 1251 z "},"İ":{"ha":521,"x_min":32,"x_max":549,"o":"m 249 742 q 253 815 257 790 q 229 851 249 840 q 171 868 210 863 q 167 903 168 885 q 169 943 167 922 q 258 940 211 942 q 357 939 306 939 q 453 940 404 939 q 549 943 501 942 q 544 905 547 924 q 535 868 542 886 q 478 851 499 863 q 447 813 458 840 q 425 732 435 786 l 333 200 q 328 124 325 150 q 350 88 331 97 q 408 71 369 78 q 413 35 411 54 q 411 -4 414 15 q 319 -1 364 -1 q 224 0 274 0 q 122 -1 172 0 q 32 -4 72 -1 q 37 36 33 18 q 47 71 40 54 q 104 87 85 76 q 135 123 124 97 q 156 199 146 149 l 249 742 m 371 999 q 306 1024 328 999 q 289 1093 283 1050 q 325 1157 294 1135 q 401 1179 356 1179 q 468 1153 444 1179 q 485 1083 492 1126 q 449 1021 479 1043 q 371 999 419 999 z "},"Ị":{"ha":521,"x_min":32,"x_max":549,"o":"m 249 742 q 253 815 257 790 q 229 851 249 840 q 171 868 210 863 q 167 903 168 885 q 169 943 167 922 q 258 940 211 942 q 357 939 306 939 q 453 940 404 939 q 549 943 501 942 q 544 905 547 924 q 535 868 542 886 q 478 851 499 863 q 447 813 458 840 q 425 732 435 786 l 333 200 q 328 124 325 150 q 350 88 331 97 q 408 71 369 78 q 413 35 411 54 q 411 -4 414 15 q 319 -1 364 -1 q 224 0 274 0 q 122 -1 172 0 q 32 -4 72 -1 q 37 36 33 18 q 47 71 40 54 q 104 87 85 76 q 135 123 124 97 q 156 199 146 149 l 249 742 m 157 -311 q 87 -285 110 -311 q 71 -212 64 -258 q 110 -143 79 -168 q 182 -118 140 -118 q 251 -143 225 -118 q 267 -219 276 -168 q 231 -286 260 -261 q 157 -311 201 -311 z "},"Ì":{"ha":521,"x_min":32,"x_max":549,"o":"m 249 742 q 253 815 257 790 q 229 851 249 840 q 171 868 210 863 q 167 903 168 885 q 169 943 167 922 q 258 940 211 942 q 357 939 306 939 q 453 940 404 939 q 549 943 501 942 q 544 905 547 924 q 535 868 542 886 q 478 851 499 863 q 447 813 458 840 q 425 732 435 786 l 333 200 q 328 124 325 150 q 350 88 331 97 q 408 71 369 78 q 413 35 411 54 q 411 -4 414 15 q 319 -1 364 -1 q 224 0 274 0 q 122 -1 172 0 q 32 -4 72 -1 q 37 36 33 18 q 47 71 40 54 q 104 87 85 76 q 135 123 124 97 q 156 199 146 149 l 249 742 m 438 1028 q 392 1021 419 1021 q 344 1028 364 1021 q 307 1084 329 1054 q 259 1144 285 1114 q 208 1200 233 1175 q 285 1213 243 1210 q 369 1207 328 1215 q 397 1118 381 1165 q 438 1028 414 1071 z "},"Ỉ":{"ha":521,"x_min":32,"x_max":550,"o":"m 249 742 q 253 815 257 790 q 229 851 249 840 q 171 868 210 863 q 167 903 168 885 q 169 943 167 922 q 258 940 211 942 q 357 939 306 939 q 453 940 404 939 q 549 943 501 942 q 544 905 547 924 q 535 868 542 886 q 478 851 499 863 q 447 813 458 840 q 425 732 435 786 l 333 200 q 328 124 325 150 q 350 88 331 97 q 408 71 369 78 q 413 35 411 54 q 411 -4 414 15 q 319 -1 364 -1 q 224 0 274 0 q 122 -1 172 0 q 32 -4 72 -1 q 37 36 33 18 q 47 71 40 54 q 104 87 85 76 q 135 123 124 97 q 156 199 146 149 l 249 742 m 332 1014 q 326 1036 328 1024 q 328 1061 325 1049 q 356 1101 335 1089 q 400 1125 378 1114 q 431 1156 422 1136 q 427 1180 436 1172 q 401 1188 418 1188 q 356 1168 376 1188 q 322 1106 336 1149 q 281 1113 300 1108 q 247 1126 261 1117 q 259 1166 254 1149 q 264 1207 264 1183 q 331 1232 290 1221 q 418 1243 371 1243 q 519 1217 489 1243 q 538 1150 550 1192 q 510 1108 529 1124 q 471 1081 492 1092 q 433 1060 450 1071 q 410 1032 415 1049 q 407 1022 408 1026 q 407 1008 406 1018 q 370 1008 392 1007 q 332 1014 349 1008 z "},"Ȋ":{"ha":521,"x_min":32,"x_max":607,"o":"m 249 742 q 253 815 257 790 q 229 851 249 840 q 171 868 210 863 q 167 903 168 885 q 169 943 167 922 q 258 940 211 942 q 357 939 306 939 q 453 940 404 939 q 549 943 501 942 q 544 905 547 924 q 535 868 542 886 q 478 851 499 863 q 447 813 458 840 q 425 732 435 786 l 333 200 q 328 124 325 150 q 350 88 331 97 q 408 71 369 78 q 413 35 411 54 q 411 -4 414 15 q 319 -1 364 -1 q 224 0 274 0 q 122 -1 172 0 q 32 -4 72 -1 q 37 36 33 18 q 47 71 40 54 q 104 87 85 76 q 135 123 124 97 q 156 199 146 149 l 249 742 z "},"Ī":{"ha":521,"x_min":32,"x_max":593,"o":"m 249 742 q 253 815 257 790 q 229 851 249 840 q 171 868 210 863 q 167 903 168 885 q 169 943 167 922 q 258 940 211 942 q 357 939 306 939 q 453 940 404 939 q 549 943 501 942 q 544 905 547 924 q 535 868 542 886 q 478 851 499 863 q 447 813 458 840 q 425 732 435 786 l 333 200 q 328 124 325 150 q 350 88 331 97 q 408 71 369 78 q 413 35 411 54 q 411 -4 414 15 q 319 -1 364 -1 q 224 0 274 0 q 122 -1 172 0 q 32 -4 72 -1 q 37 36 33 18 q 47 71 40 54 q 104 87 85 76 q 135 123 124 97 q 156 199 146 149 l 249 742 m 181 1050 q 188 1092 182 1069 q 204 1129 193 1115 l 593 1129 q 587 1092 592 1113 q 574 1057 582 1072 q 438 1056 507 1057 q 303 1054 369 1056 q 181 1050 238 1053 z "},"Į":{"ha":521,"x_min":15,"x_max":549,"o":"m 249 742 q 253 815 257 790 q 229 851 249 840 q 171 868 210 863 q 167 903 168 885 q 169 943 167 922 q 258 940 211 942 q 357 939 306 939 q 453 940 404 939 q 549 943 501 942 q 544 905 547 924 q 535 868 542 886 q 478 851 499 863 q 447 813 458 840 q 425 732 435 786 l 333 200 q 328 124 325 150 q 350 88 331 97 q 408 71 369 78 q 413 35 411 54 q 411 -4 414 15 q 319 -1 364 -1 q 224 0 274 0 q 122 -1 172 0 q 32 -4 72 -1 q 37 36 33 18 q 47 71 40 54 q 104 87 85 76 q 135 123 124 97 q 156 199 146 149 l 249 742 m 265 31 l 328 0 q 219 -69 254 -33 q 179 -140 183 -106 q 194 -190 176 -168 q 250 -212 211 -212 q 276 -210 261 -212 q 304 -203 290 -208 q 316 -233 313 -215 q 319 -269 319 -251 q 256 -302 288 -283 q 197 -343 225 -321 q 184 -345 190 -344 q 169 -346 178 -346 q 91 -330 128 -346 q 35 -279 54 -314 q 25 -192 17 -244 q 56 -115 32 -153 q 130 -41 79 -78 q 265 31 181 -4 z "},"Ĩ":{"ha":521,"x_min":32,"x_max":613,"o":"m 249 742 q 253 815 257 790 q 229 851 249 840 q 171 868 210 863 q 167 903 168 885 q 169 943 167 922 q 258 940 211 942 q 357 939 306 939 q 453 940 404 939 q 549 943 501 942 q 544 905 547 924 q 535 868 542 886 q 478 851 499 863 q 447 813 458 840 q 425 732 435 786 l 333 200 q 328 124 325 150 q 350 88 331 97 q 408 71 369 78 q 413 35 411 54 q 411 -4 414 15 q 319 -1 364 -1 q 224 0 274 0 q 122 -1 172 0 q 32 -4 72 -1 q 37 36 33 18 q 47 71 40 54 q 104 87 85 76 q 135 123 124 97 q 156 199 146 149 l 249 742 m 451 1015 q 401 1023 419 1015 q 369 1041 382 1031 q 343 1059 357 1051 q 307 1067 329 1067 q 250 1052 279 1067 q 190 1018 221 1038 q 172 1047 179 1032 q 167 1081 165 1061 q 261 1165 218 1143 q 340 1186 304 1186 q 386 1178 368 1186 q 417 1161 404 1171 q 444 1144 431 1151 q 478 1136 458 1136 q 526 1149 500 1136 q 571 1181 551 1161 q 597 1159 586 1172 q 613 1128 608 1146 q 538 1040 578 1065 q 451 1015 499 1015 z "},"J":{"ha":461,"x_min":-106,"x_max":531,"o":"m 150 943 q 236 940 186 940 q 336 939 286 939 q 408 939 376 939 q 469 940 439 939 q 531 943 500 942 q 518 868 529 900 q 460 851 481 863 q 427 812 439 840 q 406 726 415 783 l 308 169 q 268 -3 292 72 q 204 -140 244 -79 q 96 -250 164 -200 q -76 -344 28 -300 q -98 -313 -92 -332 q -106 -274 -104 -294 q -5 -193 -49 -237 q 68 -85 39 -149 q 113 69 97 -22 l 231 744 q 236 815 239 790 q 214 851 233 839 q 153 868 194 863 q 149 905 149 886 q 150 943 149 924 z "},"Ĵ":{"ha":461,"x_min":-106,"x_max":560,"o":"m 150 943 q 236 940 186 940 q 336 939 286 939 q 408 939 376 939 q 469 940 439 939 q 531 943 500 942 q 518 868 529 900 q 460 851 481 863 q 427 812 439 840 q 406 726 415 783 l 308 169 q 268 -3 292 72 q 204 -140 244 -79 q 96 -250 164 -200 q -76 -344 28 -300 q -98 -313 -92 -332 q -106 -274 -104 -294 q -5 -193 -49 -237 q 68 -85 39 -149 q 113 69 97 -22 l 231 744 q 236 815 239 790 q 214 851 233 839 q 153 868 194 863 q 149 905 149 886 q 150 943 149 924 m 213 982 q 180 1011 192 994 q 164 1051 168 1028 q 263 1126 211 1082 q 360 1213 314 1171 q 402 1214 383 1214 q 432 1210 421 1214 q 492 1119 461 1167 q 560 1018 524 1072 q 522 999 546 1007 q 479 992 499 992 q 419 1044 450 1019 q 360 1089 389 1069 q 281 1035 318 1063 q 213 982 243 1008 z "},"K":{"ha":953,"x_min":32,"x_max":997,"o":"m 169 943 q 258 940 211 942 q 357 939 306 939 q 453 940 404 939 q 549 943 501 942 q 544 905 547 924 q 535 868 542 886 q 478 851 499 863 q 447 813 458 840 q 425 732 435 786 l 333 199 q 326 124 324 150 q 346 87 329 97 q 394 71 363 76 q 399 35 397 54 q 397 -4 400 15 q 338 -2 365 -3 q 284 -1 311 -1 q 224 0 257 0 q 122 -1 172 0 q 32 -4 72 -1 q 37 36 33 18 q 47 71 40 54 q 106 87 86 75 q 137 127 126 99 q 157 208 147 156 l 249 742 q 253 815 257 790 q 229 851 249 840 q 171 868 210 863 q 167 903 168 885 q 169 943 167 922 m 685 943 q 764 940 726 940 q 843 939 801 939 q 897 939 871 939 q 949 940 924 939 q 997 943 974 942 q 995 906 997 926 q 986 867 993 885 q 917 853 947 863 q 853 819 888 843 q 767 747 819 794 l 500 504 l 506 540 q 622 399 569 479 q 726 207 675 319 q 765 141 747 158 q 806 124 783 124 q 833 128 821 124 q 860 144 846 132 q 886 119 875 135 q 903 85 897 103 q 817 13 863 38 q 713 -12 771 -12 q 619 20 654 -11 q 557 124 583 51 q 467 326 514 243 q 357 481 419 410 l 643 744 q 710 815 693 790 q 721 851 728 839 q 689 868 714 863 q 685 906 686 886 q 685 943 683 925 z "},"Ǩ":{"ha":953,"x_min":32,"x_max":997,"o":"m 169 943 q 258 940 211 942 q 357 939 306 939 q 453 940 404 939 q 549 943 501 942 q 544 905 547 924 q 535 868 542 886 q 478 851 499 863 q 447 813 458 840 q 425 732 435 786 l 333 199 q 326 124 324 150 q 346 87 329 97 q 394 71 363 76 q 399 35 397 54 q 397 -4 400 15 q 338 -2 365 -3 q 284 -1 311 -1 q 224 0 257 0 q 122 -1 172 0 q 32 -4 72 -1 q 37 36 33 18 q 47 71 40 54 q 106 87 86 75 q 137 127 126 99 q 157 208 147 156 l 249 742 q 253 815 257 790 q 229 851 249 840 q 171 868 210 863 q 167 903 168 885 q 169 943 167 922 m 685 943 q 764 940 726 940 q 843 939 801 939 q 897 939 871 939 q 949 940 924 939 q 997 943 974 942 q 995 906 997 926 q 986 867 993 885 q 917 853 947 863 q 853 819 888 843 q 767 747 819 794 l 500 504 l 506 540 q 622 399 569 479 q 726 207 675 319 q 765 141 747 158 q 806 124 783 124 q 833 128 821 124 q 860 144 846 132 q 886 119 875 135 q 903 85 897 103 q 817 13 863 38 q 713 -12 771 -12 q 619 20 654 -11 q 557 124 583 51 q 467 326 514 243 q 357 481 419 410 l 643 744 q 710 815 693 790 q 721 851 728 839 q 689 868 714 863 q 685 906 686 886 q 685 943 683 925 m 588 1015 q 506 1100 551 1057 q 411 1181 460 1143 q 431 1217 418 1203 q 467 1233 443 1231 q 556 1185 508 1208 q 647 1143 604 1161 q 751 1185 703 1161 q 838 1231 799 1208 q 868 1210 854 1225 q 889 1179 882 1196 q 771 1106 832 1146 q 658 1025 710 1065 q 588 1015 624 1010 z "},"Ķ":{"ha":953,"x_min":32,"x_max":997,"o":"m 169 943 q 258 940 211 942 q 357 939 306 939 q 453 940 404 939 q 549 943 501 942 q 544 905 547 924 q 535 868 542 886 q 478 851 499 863 q 447 813 458 840 q 425 732 435 786 l 333 199 q 326 124 324 150 q 346 87 329 97 q 394 71 363 76 q 399 35 397 54 q 397 -4 400 15 q 338 -2 365 -3 q 284 -1 311 -1 q 224 0 257 0 q 122 -1 172 0 q 32 -4 72 -1 q 37 36 33 18 q 47 71 40 54 q 106 87 86 75 q 137 127 126 99 q 157 208 147 156 l 249 742 q 253 815 257 790 q 229 851 249 840 q 171 868 210 863 q 167 903 168 885 q 169 943 167 922 m 685 943 q 764 940 726 940 q 843 939 801 939 q 897 939 871 939 q 949 940 924 939 q 997 943 974 942 q 995 906 997 926 q 986 867 993 885 q 917 853 947 863 q 853 819 888 843 q 767 747 819 794 l 500 504 l 506 540 q 622 399 569 479 q 726 207 675 319 q 765 141 747 158 q 806 124 783 124 q 833 128 821 124 q 860 144 846 132 q 886 119 875 135 q 903 85 897 103 q 817 13 863 38 q 713 -12 771 -12 q 619 20 654 -11 q 557 124 583 51 q 467 326 514 243 q 357 481 419 410 l 643 744 q 710 815 693 790 q 721 851 728 839 q 689 868 714 863 q 685 906 686 886 q 685 943 683 925 m 392 -406 q 344 -367 356 -396 q 403 -307 381 -337 q 429 -251 425 -276 q 419 -216 432 -229 q 374 -199 406 -203 q 403 -99 372 -143 q 478 -84 443 -94 q 542 -57 514 -74 q 581 -92 571 -67 q 583 -158 590 -117 q 515 -297 569 -235 q 392 -406 461 -360 z "},"L":{"ha":800,"x_min":28,"x_max":771,"o":"m 28 -4 q 33 34 29 15 q 43 71 36 53 q 104 88 83 75 q 136 133 125 101 q 157 222 147 164 l 249 746 q 252 817 257 793 q 228 852 247 842 q 171 868 208 863 q 167 905 168 885 q 169 943 167 925 q 258 940 211 940 q 357 939 306 939 q 460 940 404 939 q 563 942 515 940 q 559 903 563 922 q 549 868 556 885 q 480 850 504 863 q 444 809 456 838 q 422 725 432 781 l 332 207 q 326 123 324 151 q 353 85 329 94 q 425 76 376 76 l 439 76 q 550 95 507 76 q 624 155 593 114 q 683 263 654 196 q 732 248 711 257 q 771 221 753 239 q 731 119 750 179 q 700 -4 713 60 q 617 -1 667 -1 q 511 0 567 0 q 403 0 456 0 q 314 0 364 0 q 212 -1 264 0 q 112 -2 160 -1 q 28 -4 64 -3 z "},"Ǉ":{"ha":1260,"x_min":28,"x_max":1331,"o":"m 28 -4 q 33 34 29 15 q 43 71 36 53 q 104 88 83 75 q 136 133 125 101 q 157 222 147 164 l 249 746 q 252 817 257 793 q 228 852 247 842 q 171 868 208 863 q 167 905 168 885 q 169 943 167 925 q 258 940 211 940 q 357 939 306 939 q 460 940 404 939 q 563 942 515 940 q 559 903 563 922 q 549 868 556 885 q 480 850 504 863 q 444 809 456 838 q 422 725 432 781 l 332 207 q 326 123 324 151 q 353 85 329 94 q 425 76 376 76 l 439 76 q 550 95 507 76 q 624 155 593 114 q 683 263 654 196 q 732 248 711 257 q 771 221 753 239 q 731 119 750 179 q 700 -4 713 60 q 617 -1 667 -1 q 511 0 567 0 q 403 0 456 0 q 314 0 364 0 q 212 -1 264 0 q 112 -2 160 -1 q 28 -4 64 -3 m 950 943 q 1036 940 986 940 q 1136 939 1086 939 q 1208 939 1176 939 q 1269 940 1239 939 q 1331 943 1300 942 q 1318 868 1329 900 q 1260 851 1281 863 q 1227 812 1239 840 q 1206 726 1215 783 l 1108 169 q 1068 -3 1092 72 q 1004 -140 1044 -79 q 896 -250 964 -200 q 724 -344 828 -300 q 702 -313 708 -332 q 694 -274 696 -294 q 795 -193 751 -237 q 868 -85 839 -149 q 913 69 897 -22 l 1031 744 q 1036 815 1039 790 q 1014 851 1033 839 q 953 868 994 863 q 949 905 949 886 q 950 943 949 924 z "},"Ĺ":{"ha":800,"x_min":28,"x_max":771,"o":"m 28 -4 q 33 34 29 15 q 43 71 36 53 q 104 88 83 75 q 136 133 125 101 q 157 222 147 164 l 249 746 q 252 817 257 793 q 228 852 247 842 q 171 868 208 863 q 167 905 168 885 q 169 943 167 925 q 258 940 211 940 q 357 939 306 939 q 460 940 404 939 q 563 942 515 940 q 559 903 563 922 q 549 868 556 885 q 480 850 504 863 q 444 809 456 838 q 422 725 432 781 l 332 207 q 326 123 324 151 q 353 85 329 94 q 425 76 376 76 l 439 76 q 550 95 507 76 q 624 155 593 114 q 683 263 654 196 q 732 248 711 257 q 771 221 753 239 q 731 119 750 179 q 700 -4 713 60 q 617 -1 667 -1 q 511 0 567 0 q 403 0 456 0 q 314 0 364 0 q 212 -1 264 0 q 112 -2 160 -1 q 28 -4 64 -3 m 375 1014 q 334 1024 354 1017 q 297 1044 314 1032 q 347 1109 325 1076 q 385 1171 369 1142 q 411 1219 401 1200 q 441 1223 426 1222 q 469 1224 456 1224 q 533 1218 503 1224 q 585 1203 563 1213 q 475 1107 529 1157 q 375 1014 421 1057 z "},"Ľ":{"ha":813,"x_min":28,"x_max":888,"o":"m 28 -4 q 33 34 29 15 q 43 71 36 53 q 104 88 83 75 q 136 133 125 101 q 157 222 147 164 l 249 746 q 252 817 257 793 q 228 852 247 842 q 171 868 208 863 q 167 905 168 885 q 169 943 167 925 q 258 940 211 940 q 357 939 306 939 q 460 940 404 939 q 563 942 515 940 q 559 903 563 922 q 549 868 556 885 q 480 850 504 863 q 444 809 456 838 q 422 725 432 781 l 332 207 q 326 123 324 151 q 353 85 329 94 q 425 76 376 76 l 439 76 q 550 95 507 76 q 624 155 593 114 q 683 263 654 196 q 732 248 711 257 q 771 221 753 239 q 731 119 750 179 q 700 -4 713 60 q 617 -1 667 -1 q 511 0 567 0 q 403 0 456 0 q 314 0 364 0 q 212 -1 264 0 q 112 -2 160 -1 q 28 -4 64 -3 m 721 607 q 684 619 699 608 q 661 644 669 629 q 745 776 740 722 q 675 846 750 831 q 683 903 675 874 q 704 954 690 933 q 781 969 742 957 q 846 997 819 981 q 882 944 875 982 q 878 854 889 906 q 830 731 867 794 q 721 607 793 667 z "},"Ļ":{"ha":800,"x_min":28,"x_max":771,"o":"m 28 -4 q 33 34 29 15 q 43 71 36 53 q 104 88 83 75 q 136 133 125 101 q 157 222 147 164 l 249 746 q 252 817 257 793 q 228 852 247 842 q 171 868 208 863 q 167 905 168 885 q 169 943 167 925 q 258 940 211 940 q 357 939 306 939 q 460 940 404 939 q 563 942 515 940 q 559 903 563 922 q 549 868 556 885 q 480 850 504 863 q 444 809 456 838 q 422 725 432 781 l 332 207 q 326 123 324 151 q 353 85 329 94 q 425 76 376 76 l 439 76 q 550 95 507 76 q 624 155 593 114 q 683 263 654 196 q 732 248 711 257 q 771 221 753 239 q 731 119 750 179 q 700 -4 713 60 q 617 -1 667 -1 q 511 0 567 0 q 403 0 456 0 q 314 0 364 0 q 212 -1 264 0 q 112 -2 160 -1 q 28 -4 64 -3 m 249 -406 q 201 -367 213 -396 q 260 -307 238 -337 q 286 -251 282 -276 q 276 -216 289 -229 q 231 -199 263 -203 q 260 -99 229 -143 q 335 -84 300 -94 q 399 -57 371 -74 q 438 -92 428 -67 q 440 -158 447 -117 q 372 -297 426 -235 q 249 -406 318 -360 z "},"Ŀ":{"ha":800,"x_min":28,"x_max":782,"o":"m 28 -4 q 33 34 29 15 q 43 71 36 53 q 104 88 83 75 q 136 133 125 101 q 157 222 147 164 l 249 746 q 252 817 257 793 q 228 852 247 842 q 171 868 208 863 q 167 905 168 885 q 169 943 167 925 q 258 940 211 940 q 357 939 306 939 q 460 940 404 939 q 563 942 515 940 q 559 903 563 922 q 549 868 556 885 q 480 850 504 863 q 444 809 456 838 q 422 725 432 781 l 332 207 q 326 123 324 151 q 353 85 329 94 q 425 76 376 76 l 439 76 q 550 95 507 76 q 624 155 593 114 q 683 263 654 196 q 732 248 711 257 q 771 221 753 239 q 731 119 750 179 q 700 -4 713 60 q 617 -1 667 -1 q 511 0 567 0 q 403 0 456 0 q 314 0 364 0 q 212 -1 264 0 q 112 -2 160 -1 q 28 -4 64 -3 m 690 414 q 626 440 649 414 q 614 511 604 467 q 643 561 619 542 q 701 581 667 581 q 758 555 735 581 q 774 485 782 529 q 747 433 768 453 q 690 414 726 414 z "},"Ḷ":{"ha":800,"x_min":28,"x_max":771,"o":"m 28 -4 q 33 34 29 15 q 43 71 36 53 q 104 88 83 75 q 136 133 125 101 q 157 222 147 164 l 249 746 q 252 817 257 793 q 228 852 247 842 q 171 868 208 863 q 167 905 168 885 q 169 943 167 925 q 258 940 211 940 q 357 939 306 939 q 460 940 404 939 q 563 942 515 940 q 559 903 563 922 q 549 868 556 885 q 480 850 504 863 q 444 809 456 838 q 422 725 432 781 l 332 207 q 326 123 324 151 q 353 85 329 94 q 425 76 376 76 l 439 76 q 550 95 507 76 q 624 155 593 114 q 683 263 654 196 q 732 248 711 257 q 771 221 753 239 q 731 119 750 179 q 700 -4 713 60 q 617 -1 667 -1 q 511 0 567 0 q 403 0 456 0 q 314 0 364 0 q 212 -1 264 0 q 112 -2 160 -1 q 28 -4 64 -3 m 315 -311 q 245 -285 268 -311 q 229 -212 222 -258 q 268 -143 238 -168 q 340 -118 299 -118 q 409 -143 383 -118 q 425 -219 435 -168 q 389 -286 418 -261 q 315 -311 360 -311 z "},"ǈ":{"ha":1157,"x_min":28,"x_max":1188,"o":"m 28 -4 q 33 34 29 15 q 43 71 36 53 q 104 88 83 75 q 136 133 125 101 q 157 222 147 164 l 249 746 q 252 817 257 793 q 228 852 247 842 q 171 868 208 863 q 167 905 168 885 q 169 943 167 925 q 258 940 211 940 q 357 939 306 939 q 460 940 404 939 q 563 942 515 940 q 559 903 563 922 q 549 868 556 885 q 480 850 504 863 q 444 809 456 838 q 422 725 432 781 l 332 207 q 326 123 324 151 q 353 85 329 94 q 425 76 376 76 l 439 76 q 550 95 507 76 q 624 155 593 114 q 683 263 654 196 q 732 248 711 257 q 771 221 753 239 q 731 119 750 179 q 700 -4 713 60 q 617 -1 667 -1 q 511 0 567 0 q 403 0 456 0 q 314 0 364 0 q 212 -1 264 0 q 112 -2 160 -1 q 28 -4 64 -3 z "},"Ḻ":{"ha":800,"x_min":28,"x_max":771,"o":"m 28 -4 q 33 34 29 15 q 43 71 36 53 q 104 88 83 75 q 136 133 125 101 q 157 222 147 164 l 249 746 q 252 817 257 793 q 228 852 247 842 q 171 868 208 863 q 167 905 168 885 q 169 943 167 925 q 258 940 211 940 q 357 939 306 939 q 460 940 404 939 q 563 942 515 940 q 559 903 563 922 q 549 868 556 885 q 480 850 504 863 q 444 809 456 838 q 422 725 432 781 l 332 207 q 326 123 324 151 q 353 85 329 94 q 425 76 376 76 l 439 76 q 550 95 507 76 q 624 155 593 114 q 683 263 654 196 q 732 248 711 257 q 771 221 753 239 q 731 119 750 179 q 700 -4 713 60 q 617 -1 667 -1 q 511 0 567 0 q 403 0 456 0 q 314 0 364 0 q 212 -1 264 0 q 112 -2 160 -1 q 28 -4 64 -3 m 78 -246 q 81 -211 78 -233 q 90 -174 83 -189 l 579 -174 q 576 -206 579 -187 q 567 -240 574 -224 q 315 -241 438 -240 q 78 -246 192 -242 z "},"Ł":{"ha":800,"x_min":28,"x_max":771,"o":"m 28 -4 q 33 34 29 15 q 43 71 36 53 q 104 88 83 75 q 136 133 125 101 q 157 222 147 164 l 249 746 q 252 817 257 793 q 228 852 247 842 q 171 868 208 863 q 167 905 168 885 q 169 943 167 925 q 258 940 211 940 q 357 939 306 939 q 460 940 404 939 q 563 942 515 940 q 559 903 563 922 q 549 868 556 885 q 480 850 504 863 q 444 809 456 838 q 422 725 432 781 l 332 207 q 326 123 324 151 q 353 85 329 94 q 425 76 376 76 l 439 76 q 550 95 507 76 q 624 155 593 114 q 683 263 654 196 q 732 248 711 257 q 771 221 753 239 q 731 119 750 179 q 700 -4 713 60 q 617 -1 667 -1 q 511 0 567 0 q 403 0 456 0 q 314 0 364 0 q 212 -1 264 0 q 112 -2 160 -1 q 28 -4 64 -3 m 107 285 q 80 318 90 297 q 69 360 69 339 l 232 500 l 361 578 l 494 694 q 519 664 510 685 q 531 622 529 643 l 344 461 l 211 376 l 107 285 z "},"M":{"ha":1268,"x_min":-42,"x_max":1263,"o":"m 500 -12 q 404 363 456 175 q 293 738 353 551 l 311 738 q 273 577 293 658 q 233 421 253 496 q 196 283 213 346 q 171 160 174 203 q 188 99 168 118 q 251 71 207 81 q 256 35 256 54 q 254 -4 256 15 q 179 -1 215 -1 q 111 0 143 0 q 38 -1 74 0 q -42 -4 1 -1 q -38 34 -42 14 q -28 71 -35 54 q 28 99 7 81 q 68 159 50 118 q 108 275 86 200 q 155 433 133 357 q 196 588 176 510 q 233 744 215 665 q 242 818 244 793 q 222 853 240 843 q 167 868 204 864 q 163 905 163 886 q 165 943 163 924 q 211 940 188 942 q 258 939 235 939 q 297 939 281 939 q 360 940 328 939 q 428 943 393 940 q 538 564 486 754 q 632 183 589 374 l 594 183 q 811 560 706 369 q 1017 943 917 750 q 1086 940 1056 940 q 1140 939 1117 939 q 1197 940 1167 939 q 1263 943 1228 940 q 1260 905 1263 924 q 1250 868 1257 886 q 1194 848 1214 863 q 1164 801 1174 833 q 1150 711 1154 769 q 1135 464 1143 582 q 1117 243 1128 346 q 1115 141 1111 176 q 1135 92 1118 106 q 1185 71 1153 78 q 1190 35 1189 54 q 1188 -4 1190 15 q 1100 -1 1150 -1 q 994 0 1050 0 q 894 -1 943 0 q 803 -4 846 -1 q 806 34 803 15 q 817 71 810 53 q 887 94 864 78 q 920 145 910 110 q 938 244 931 181 q 958 485 949 361 q 972 740 967 610 l 996 740 q 790 365 897 553 q 572 -6 683 176 q 536 -12 554 -11 q 500 -12 518 -12 z "},"Ṃ":{"ha":1268,"x_min":-42,"x_max":1263,"o":"m 500 -12 q 404 363 456 175 q 293 738 353 551 l 311 738 q 273 577 293 658 q 233 421 253 496 q 196 283 213 346 q 171 160 174 203 q 188 99 168 118 q 251 71 207 81 q 256 35 256 54 q 254 -4 256 15 q 179 -1 215 -1 q 111 0 143 0 q 38 -1 74 0 q -42 -4 1 -1 q -38 34 -42 14 q -28 71 -35 54 q 28 99 7 81 q 68 159 50 118 q 108 275 86 200 q 155 433 133 357 q 196 588 176 510 q 233 744 215 665 q 242 818 244 793 q 222 853 240 843 q 167 868 204 864 q 163 905 163 886 q 165 943 163 924 q 211 940 188 942 q 258 939 235 939 q 297 939 281 939 q 360 940 328 939 q 428 943 393 940 q 538 564 486 754 q 632 183 589 374 l 594 183 q 811 560 706 369 q 1017 943 917 750 q 1086 940 1056 940 q 1140 939 1117 939 q 1197 940 1167 939 q 1263 943 1228 940 q 1260 905 1263 924 q 1250 868 1257 886 q 1194 848 1214 863 q 1164 801 1174 833 q 1150 711 1154 769 q 1135 464 1143 582 q 1117 243 1128 346 q 1115 141 1111 176 q 1135 92 1118 106 q 1185 71 1153 78 q 1190 35 1189 54 q 1188 -4 1190 15 q 1100 -1 1150 -1 q 994 0 1050 0 q 894 -1 943 0 q 803 -4 846 -1 q 806 34 803 15 q 817 71 810 53 q 887 94 864 78 q 920 145 910 110 q 938 244 931 181 q 958 485 949 361 q 972 740 967 610 l 996 740 q 790 365 897 553 q 572 -6 683 176 q 536 -12 554 -11 q 500 -12 518 -12 m 475 -311 q 405 -285 428 -311 q 389 -212 382 -258 q 428 -143 397 -168 q 500 -118 458 -118 q 569 -143 543 -118 q 585 -219 594 -168 q 549 -286 578 -261 q 475 -311 519 -311 z "},"N":{"ha":954,"x_min":25,"x_max":1025,"o":"m 39 71 q 99 97 75 79 q 138 153 122 114 q 165 260 154 192 l 269 850 l 350 846 l 249 269 q 238 156 236 196 q 260 99 239 117 q 325 71 281 81 q 330 35 329 54 q 328 -4 331 17 q 242 -1 283 -1 q 172 0 200 0 q 104 -1 138 0 q 25 -4 71 -1 q 39 71 28 39 m 169 943 q 225 940 197 942 q 282 939 253 939 q 344 940 314 939 q 399 943 375 942 q 593 593 497 774 q 775 238 689 413 l 704 -12 q 485 409 596 203 q 256 824 375 615 q 225 858 242 850 q 171 868 208 865 q 167 903 167 885 q 169 943 167 922 m 738 943 q 811 940 774 940 q 876 939 849 939 q 951 940 911 939 q 1025 943 992 940 q 1020 904 1024 925 q 1010 868 1017 883 q 958 839 978 858 q 925 779 938 819 q 900 665 913 739 l 783 -3 q 747 -10 767 -8 q 704 -12 726 -12 l 736 189 l 818 675 q 828 786 831 747 q 804 842 825 825 q 739 868 783 860 q 736 904 736 885 q 738 943 736 924 z "},"Ǌ":{"ha":1356,"x_min":25,"x_max":1425,"o":"m 39 71 q 99 97 75 79 q 138 153 122 114 q 165 260 154 192 l 269 850 l 350 846 l 249 269 q 238 156 236 196 q 260 99 239 117 q 325 71 281 81 q 330 35 329 54 q 328 -4 331 17 q 242 -1 283 -1 q 172 0 200 0 q 104 -1 138 0 q 25 -4 71 -1 q 39 71 28 39 m 169 943 q 225 940 197 942 q 282 939 253 939 q 344 940 314 939 q 399 943 375 942 q 593 593 497 774 q 775 238 689 413 l 704 -12 q 485 409 596 203 q 256 824 375 615 q 225 858 242 850 q 171 868 208 865 q 167 903 167 885 q 169 943 167 922 m 738 943 q 811 940 774 940 q 876 939 849 939 q 951 940 911 939 q 1025 943 992 940 q 1020 904 1024 925 q 1010 868 1017 883 q 958 839 978 858 q 925 779 938 819 q 900 665 913 739 l 783 -3 q 747 -10 767 -8 q 704 -12 726 -12 l 736 189 l 818 675 q 828 786 831 747 q 804 842 825 825 q 739 868 783 860 q 736 904 736 885 q 738 943 736 924 m 1043 943 q 1129 940 1079 940 q 1229 939 1179 939 q 1301 939 1269 939 q 1363 940 1332 939 q 1424 943 1393 942 q 1411 868 1422 900 q 1353 851 1374 863 q 1320 812 1332 840 q 1299 726 1308 783 l 1201 169 q 1161 -3 1185 72 q 1097 -140 1138 -79 q 989 -250 1057 -200 q 817 -344 921 -300 q 795 -313 801 -332 q 788 -274 789 -294 q 888 -193 844 -237 q 961 -85 932 -149 q 1006 69 990 -22 l 1124 744 q 1129 815 1132 790 q 1107 851 1126 839 q 1046 868 1088 863 q 1042 905 1042 886 q 1043 943 1042 924 z "},"Ń":{"ha":954,"x_min":25,"x_max":1025,"o":"m 39 71 q 99 97 75 79 q 138 153 122 114 q 165 260 154 192 l 269 850 l 350 846 l 249 269 q 238 156 236 196 q 260 99 239 117 q 325 71 281 81 q 330 35 329 54 q 328 -4 331 17 q 242 -1 283 -1 q 172 0 200 0 q 104 -1 138 0 q 25 -4 71 -1 q 39 71 28 39 m 169 943 q 225 940 197 942 q 282 939 253 939 q 344 940 314 939 q 399 943 375 942 q 593 593 497 774 q 775 238 689 413 l 704 -12 q 485 409 596 203 q 256 824 375 615 q 225 858 242 850 q 171 868 208 865 q 167 903 167 885 q 169 943 167 922 m 738 943 q 811 940 774 940 q 876 939 849 939 q 951 940 911 939 q 1025 943 992 940 q 1020 904 1024 925 q 1010 868 1017 883 q 958 839 978 858 q 925 779 938 819 q 900 665 913 739 l 783 -3 q 747 -10 767 -8 q 704 -12 726 -12 l 736 189 l 818 675 q 828 786 831 747 q 804 842 825 825 q 739 868 783 860 q 736 904 736 885 q 738 943 736 924 m 611 1014 q 570 1024 590 1017 q 533 1044 550 1032 q 583 1109 561 1076 q 622 1171 606 1142 q 647 1219 638 1200 q 677 1223 663 1222 q 706 1224 692 1224 q 769 1218 739 1224 q 821 1203 799 1213 q 711 1107 765 1157 q 611 1014 657 1057 z "},"Ň":{"ha":954,"x_min":25,"x_max":1025,"o":"m 39 71 q 99 97 75 79 q 138 153 122 114 q 165 260 154 192 l 269 850 l 350 846 l 249 269 q 238 156 236 196 q 260 99 239 117 q 325 71 281 81 q 330 35 329 54 q 328 -4 331 17 q 242 -1 283 -1 q 172 0 200 0 q 104 -1 138 0 q 25 -4 71 -1 q 39 71 28 39 m 169 943 q 225 940 197 942 q 282 939 253 939 q 344 940 314 939 q 399 943 375 942 q 593 593 497 774 q 775 238 689 413 l 704 -12 q 485 409 596 203 q 256 824 375 615 q 225 858 242 850 q 171 868 208 865 q 167 903 167 885 q 169 943 167 922 m 738 943 q 811 940 774 940 q 876 939 849 939 q 951 940 911 939 q 1025 943 992 940 q 1020 904 1024 925 q 1010 868 1017 883 q 958 839 978 858 q 925 779 938 819 q 900 665 913 739 l 783 -3 q 747 -10 767 -8 q 704 -12 726 -12 l 736 189 l 818 675 q 828 786 831 747 q 804 842 825 825 q 739 868 783 860 q 736 904 736 885 q 738 943 736 924 m 579 1015 q 497 1100 543 1057 q 403 1181 451 1143 q 422 1217 410 1203 q 458 1233 435 1231 q 548 1185 500 1208 q 639 1143 596 1161 q 742 1185 694 1161 q 829 1231 790 1208 q 860 1210 846 1225 q 881 1179 874 1196 q 763 1106 824 1146 q 650 1025 701 1065 q 579 1015 615 1010 z "},"Ņ":{"ha":954,"x_min":25,"x_max":1025,"o":"m 39 71 q 99 97 75 79 q 138 153 122 114 q 165 260 154 192 l 269 850 l 350 846 l 249 269 q 238 156 236 196 q 260 99 239 117 q 325 71 281 81 q 330 35 329 54 q 328 -4 331 17 q 242 -1 283 -1 q 172 0 200 0 q 104 -1 138 0 q 25 -4 71 -1 q 39 71 28 39 m 169 943 q 225 940 197 942 q 282 939 253 939 q 344 940 314 939 q 399 943 375 942 q 593 593 497 774 q 775 238 689 413 l 704 -12 q 485 409 596 203 q 256 824 375 615 q 225 858 242 850 q 171 868 208 865 q 167 903 167 885 q 169 943 167 922 m 738 943 q 811 940 774 940 q 876 939 849 939 q 951 940 911 939 q 1025 943 992 940 q 1020 904 1024 925 q 1010 868 1017 883 q 958 839 978 858 q 925 779 938 819 q 900 665 913 739 l 783 -3 q 747 -10 767 -8 q 704 -12 726 -12 l 736 189 l 818 675 q 828 786 831 747 q 804 842 825 825 q 739 868 783 860 q 736 904 736 885 q 738 943 736 924 m 356 -406 q 308 -367 319 -396 q 367 -307 344 -337 q 393 -251 389 -276 q 383 -216 396 -229 q 338 -199 369 -203 q 367 -99 336 -143 q 442 -84 407 -94 q 506 -57 478 -74 q 544 -92 535 -67 q 547 -158 554 -117 q 479 -297 533 -235 q 356 -406 425 -360 z "},"Ṅ":{"ha":954,"x_min":25,"x_max":1025,"o":"m 39 71 q 99 97 75 79 q 138 153 122 114 q 165 260 154 192 l 269 850 l 350 846 l 249 269 q 238 156 236 196 q 260 99 239 117 q 325 71 281 81 q 330 35 329 54 q 328 -4 331 17 q 242 -1 283 -1 q 172 0 200 0 q 104 -1 138 0 q 25 -4 71 -1 q 39 71 28 39 m 169 943 q 225 940 197 942 q 282 939 253 939 q 344 940 314 939 q 399 943 375 942 q 593 593 497 774 q 775 238 689 413 l 704 -12 q 485 409 596 203 q 256 824 375 615 q 225 858 242 850 q 171 868 208 865 q 167 903 167 885 q 169 943 167 922 m 738 943 q 811 940 774 940 q 876 939 849 939 q 951 940 911 939 q 1025 943 992 940 q 1020 904 1024 925 q 1010 868 1017 883 q 958 839 978 858 q 925 779 938 819 q 900 665 913 739 l 783 -3 q 747 -10 767 -8 q 704 -12 726 -12 l 736 189 l 818 675 q 828 786 831 747 q 804 842 825 825 q 739 868 783 860 q 736 904 736 885 q 738 943 736 924 m 619 999 q 554 1024 576 999 q 538 1093 532 1050 q 574 1157 543 1135 q 650 1179 604 1179 q 717 1153 693 1179 q 733 1083 740 1126 q 698 1021 728 1043 q 619 999 668 999 z "},"Ṇ":{"ha":954,"x_min":25,"x_max":1025,"o":"m 39 71 q 99 97 75 79 q 138 153 122 114 q 165 260 154 192 l 269 850 l 350 846 l 249 269 q 238 156 236 196 q 260 99 239 117 q 325 71 281 81 q 330 35 329 54 q 328 -4 331 17 q 242 -1 283 -1 q 172 0 200 0 q 104 -1 138 0 q 25 -4 71 -1 q 39 71 28 39 m 169 943 q 225 940 197 942 q 282 939 253 939 q 344 940 314 939 q 399 943 375 942 q 593 593 497 774 q 775 238 689 413 l 704 -12 q 485 409 596 203 q 256 824 375 615 q 225 858 242 850 q 171 868 208 865 q 167 903 167 885 q 169 943 167 922 m 738 943 q 811 940 774 940 q 876 939 849 939 q 951 940 911 939 q 1025 943 992 940 q 1020 904 1024 925 q 1010 868 1017 883 q 958 839 978 858 q 925 779 938 819 q 900 665 913 739 l 783 -3 q 747 -10 767 -8 q 704 -12 726 -12 l 736 189 l 818 675 q 828 786 831 747 q 804 842 825 825 q 739 868 783 860 q 736 904 736 885 q 738 943 736 924 m 424 -311 q 353 -285 376 -311 q 338 -212 331 -258 q 376 -143 346 -168 q 449 -118 407 -118 q 517 -143 492 -118 q 533 -219 543 -168 q 497 -286 526 -261 q 424 -311 468 -311 z "},"Ŋ":{"ha":919,"x_min":103,"x_max":944,"o":"m 439 -346 q 367 -329 397 -346 q 319 -287 338 -312 q 327 -232 319 -260 q 347 -178 335 -204 q 381 -190 363 -186 q 416 -196 399 -194 q 443 -197 433 -197 q 540 -171 507 -197 q 591 -90 572 -144 q 626 47 610 -36 l 732 550 q 748 744 761 688 q 686 801 735 801 q 592 763 644 801 q 488 652 539 724 q 395 482 436 581 q 333 267 354 383 l 315 467 l 393 631 q 458 734 417 679 q 553 838 500 789 q 663 917 606 886 q 774 947 721 947 q 844 931 808 947 q 906 873 879 915 q 938 754 932 831 q 918 558 944 678 l 817 103 q 762 -60 799 19 q 674 -205 725 -140 q 564 -308 624 -269 q 439 -346 504 -346 m 103 0 l 225 658 q 239 763 239 731 q 219 803 239 794 q 150 813 199 813 q 153 851 150 832 q 163 883 156 869 q 241 897 196 886 q 331 922 286 907 q 404 949 375 936 q 439 911 432 936 q 439 838 446 886 q 416 726 431 782 q 385 626 401 669 q 360 564 369 583 l 333 267 l 282 0 l 103 0 z "},"Ɲ":{"ha":1013,"x_min":-258,"x_max":1086,"o":"m 731 -12 l 257 826 q 229 856 246 849 q 175 868 213 864 q 176 906 174 886 q 181 943 178 925 q 219 941 196 942 q 267 940 242 940 q 310 939 292 939 q 370 940 339 939 q 424 943 401 942 l 799 265 l 731 -12 m -144 -346 q -217 -331 -190 -346 q -257 -300 -244 -317 q -249 -242 -258 -276 q -228 -183 -240 -207 q -177 -193 -206 -189 q -124 -197 -149 -197 q 33 -134 -28 -197 q 119 68 94 -71 l 272 850 l 353 846 l 204 79 q 130 -141 181 -44 q 9 -292 79 -237 q -144 -346 -61 -346 m 731 -12 l 763 169 l 861 669 q 876 789 876 747 q 856 848 875 831 q 794 868 836 865 q 797 909 796 892 q 801 943 799 926 q 848 941 822 942 q 901 940 874 940 q 949 939 928 939 q 1019 940 981 939 q 1086 943 1058 942 q 1078 906 1083 925 q 1064 868 1072 888 q 1009 849 1031 867 q 972 790 988 832 q 942 669 957 749 l 811 -4 q 773 -11 793 -10 q 731 -12 753 -12 z "},"ǋ":{"ha":1311,"x_min":25,"x_max":1342,"o":"m 39 71 q 99 97 75 79 q 138 153 122 114 q 165 260 154 192 l 269 850 l 350 846 l 249 269 q 238 156 236 196 q 260 99 239 117 q 325 71 281 81 q 330 35 329 54 q 328 -4 331 17 q 242 -1 283 -1 q 172 0 200 0 q 104 -1 138 0 q 25 -4 71 -1 q 39 71 28 39 m 169 943 q 225 940 197 942 q 282 939 253 939 q 344 940 314 939 q 399 943 375 942 q 593 593 497 774 q 775 238 689 413 l 704 -12 q 485 409 596 203 q 256 824 375 615 q 225 858 242 850 q 171 868 208 865 q 167 903 167 885 q 169 943 167 922 m 738 943 q 811 940 774 940 q 876 939 849 939 q 951 940 911 939 q 1025 943 992 940 q 1020 904 1024 925 q 1010 868 1017 883 q 958 839 978 858 q 925 779 938 819 q 900 665 913 739 l 783 -3 q 747 -10 767 -8 q 704 -12 726 -12 l 736 189 l 818 675 q 828 786 831 747 q 804 842 825 825 q 739 868 783 860 q 736 904 736 885 q 738 943 736 924 z "},"Ṉ":{"ha":954,"x_min":25,"x_max":1025,"o":"m 39 71 q 99 97 75 79 q 138 153 122 114 q 165 260 154 192 l 269 850 l 350 846 l 249 269 q 238 156 236 196 q 260 99 239 117 q 325 71 281 81 q 330 35 329 54 q 328 -4 331 17 q 242 -1 283 -1 q 172 0 200 0 q 104 -1 138 0 q 25 -4 71 -1 q 39 71 28 39 m 169 943 q 225 940 197 942 q 282 939 253 939 q 344 940 314 939 q 399 943 375 942 q 593 593 497 774 q 775 238 689 413 l 704 -12 q 485 409 596 203 q 256 824 375 615 q 225 858 242 850 q 171 868 208 865 q 167 903 167 885 q 169 943 167 922 m 738 943 q 811 940 774 940 q 876 939 849 939 q 951 940 911 939 q 1025 943 992 940 q 1020 904 1024 925 q 1010 868 1017 883 q 958 839 978 858 q 925 779 938 819 q 900 665 913 739 l 783 -3 q 747 -10 767 -8 q 704 -12 726 -12 l 736 189 l 818 675 q 828 786 831 747 q 804 842 825 825 q 739 868 783 860 q 736 904 736 885 q 738 943 736 924 m 185 -246 q 188 -211 185 -233 q 197 -174 190 -189 l 686 -174 q 683 -206 686 -187 q 674 -240 681 -224 q 422 -241 544 -240 q 185 -246 299 -242 z "},"Ñ":{"ha":954,"x_min":25,"x_max":1025,"o":"m 39 71 q 99 97 75 79 q 138 153 122 114 q 165 260 154 192 l 269 850 l 350 846 l 249 269 q 238 156 236 196 q 260 99 239 117 q 325 71 281 81 q 330 35 329 54 q 328 -4 331 17 q 242 -1 283 -1 q 172 0 200 0 q 104 -1 138 0 q 25 -4 71 -1 q 39 71 28 39 m 169 943 q 225 940 197 942 q 282 939 253 939 q 344 940 314 939 q 399 943 375 942 q 593 593 497 774 q 775 238 689 413 l 704 -12 q 485 409 596 203 q 256 824 375 615 q 225 858 242 850 q 171 868 208 865 q 167 903 167 885 q 169 943 167 922 m 738 943 q 811 940 774 940 q 876 939 849 939 q 951 940 911 939 q 1025 943 992 940 q 1020 904 1024 925 q 1010 868 1017 883 q 958 839 978 858 q 925 779 938 819 q 900 665 913 739 l 783 -3 q 747 -10 767 -8 q 704 -12 726 -12 l 736 189 l 818 675 q 828 786 831 747 q 804 842 825 825 q 739 868 783 860 q 736 904 736 885 q 738 943 736 924 m 704 1033 q 651 1042 674 1033 q 608 1060 628 1050 q 569 1079 589 1071 q 525 1088 549 1088 q 465 1072 493 1088 q 411 1036 438 1057 q 394 1071 399 1053 q 392 1113 390 1089 q 489 1178 442 1161 q 574 1194 536 1194 q 642 1181 614 1194 q 697 1155 671 1168 q 751 1142 722 1142 q 800 1156 778 1142 q 842 1189 822 1169 q 869 1172 856 1182 q 890 1144 883 1161 q 800 1060 847 1086 q 704 1033 753 1033 z "},"O":{"ha":1029,"x_min":57,"x_max":1035,"o":"m 478 -12 q 237 54 335 -12 q 98 238 139 121 q 88 510 57 356 q 152 688 106 607 q 268 828 199 769 q 424 919 338 888 q 610 951 511 951 q 848 890 749 951 q 991 711 947 828 q 1001 428 1035 594 q 906 203 978 303 q 725 45 835 103 q 478 -12 615 -12 m 500 64 q 644 112 581 64 q 753 243 708 160 q 815 435 797 326 q 816 662 839 563 q 733 819 793 761 q 586 876 674 876 q 448 830 511 876 q 340 702 385 783 q 276 518 296 621 q 264 343 258 425 q 297 198 269 261 q 376 99 325 135 q 500 64 426 64 z "},"Ó":{"ha":1029,"x_min":57,"x_max":1035,"o":"m 478 -12 q 237 54 335 -12 q 98 238 139 121 q 88 510 57 356 q 152 688 106 607 q 268 828 199 769 q 424 919 338 888 q 610 951 511 951 q 848 890 749 951 q 991 711 947 828 q 1001 428 1035 594 q 906 203 978 303 q 725 45 835 103 q 478 -12 615 -12 m 500 64 q 644 112 581 64 q 753 243 708 160 q 815 435 797 326 q 816 662 839 563 q 733 819 793 761 q 586 876 674 876 q 448 830 511 876 q 340 702 385 783 q 276 518 296 621 q 264 343 258 425 q 297 198 269 261 q 376 99 325 135 q 500 64 426 64 m 625 1014 q 584 1024 604 1017 q 547 1044 564 1032 q 597 1109 575 1076 q 635 1171 619 1142 q 661 1219 651 1200 q 691 1223 676 1222 q 719 1224 706 1224 q 783 1218 753 1224 q 835 1203 813 1213 q 725 1107 779 1157 q 625 1014 671 1057 z "},"Ŏ":{"ha":1029,"x_min":57,"x_max":1035,"o":"m 478 -12 q 237 54 335 -12 q 98 238 139 121 q 88 510 57 356 q 152 688 106 607 q 268 828 199 769 q 424 919 338 888 q 610 951 511 951 q 848 890 749 951 q 991 711 947 828 q 1001 428 1035 594 q 906 203 978 303 q 725 45 835 103 q 478 -12 615 -12 m 500 64 q 644 112 581 64 q 753 243 708 160 q 815 435 797 326 q 816 662 839 563 q 733 819 793 761 q 586 876 674 876 q 448 830 511 876 q 340 702 385 783 q 276 518 296 621 q 264 343 258 425 q 297 198 269 261 q 376 99 325 135 q 500 64 426 64 m 617 1010 q 447 1060 500 1010 q 413 1206 394 1110 q 456 1217 432 1214 q 501 1218 479 1221 q 540 1142 500 1169 q 650 1115 579 1115 q 767 1142 719 1115 q 829 1218 815 1169 q 869 1219 850 1221 q 900 1210 888 1217 q 809 1061 882 1113 q 617 1010 736 1010 z "},"Ǒ":{"ha":1029,"x_min":57,"x_max":1035,"o":"m 478 -12 q 237 54 335 -12 q 98 238 139 121 q 88 510 57 356 q 152 688 106 607 q 268 828 199 769 q 424 919 338 888 q 610 951 511 951 q 848 890 749 951 q 991 711 947 828 q 1001 428 1035 594 q 906 203 978 303 q 725 45 835 103 q 478 -12 615 -12 m 500 64 q 644 112 581 64 q 753 243 708 160 q 815 435 797 326 q 816 662 839 563 q 733 819 793 761 q 586 876 674 876 q 448 830 511 876 q 340 702 385 783 q 276 518 296 621 q 264 343 258 425 q 297 198 269 261 q 376 99 325 135 q 500 64 426 64 m 593 1015 q 511 1100 557 1057 q 417 1181 465 1143 q 436 1217 424 1203 q 472 1233 449 1231 q 562 1185 514 1208 q 653 1143 610 1161 q 756 1185 708 1161 q 843 1231 804 1208 q 874 1210 860 1225 q 894 1179 888 1196 q 776 1106 838 1146 q 664 1025 715 1065 q 593 1015 629 1010 z "},"Ô":{"ha":1029,"x_min":57,"x_max":1035,"o":"m 478 -12 q 237 54 335 -12 q 98 238 139 121 q 88 510 57 356 q 152 688 106 607 q 268 828 199 769 q 424 919 338 888 q 610 951 511 951 q 848 890 749 951 q 991 711 947 828 q 1001 428 1035 594 q 906 203 978 303 q 725 45 835 103 q 478 -12 615 -12 m 500 64 q 644 112 581 64 q 753 243 708 160 q 815 435 797 326 q 816 662 839 563 q 733 819 793 761 q 586 876 674 876 q 448 830 511 876 q 340 702 385 783 q 276 518 296 621 q 264 343 258 425 q 297 198 269 261 q 376 99 325 135 q 500 64 426 64 m 461 1008 q 434 1040 444 1019 q 424 1078 424 1061 q 502 1124 463 1099 q 578 1175 542 1149 q 647 1225 615 1201 q 685 1227 667 1229 q 722 1218 704 1225 q 798 1138 757 1178 q 885 1050 839 1097 q 858 1028 876 1036 q 819 1017 840 1019 q 737 1064 781 1042 q 650 1103 693 1086 q 585 1074 618 1090 q 520 1040 551 1057 q 461 1008 489 1024 z "},"Ố":{"ha":1029,"x_min":57,"x_max":1061,"o":"m 478 -12 q 237 54 335 -12 q 98 238 139 121 q 88 510 57 356 q 152 688 106 607 q 268 828 199 769 q 424 919 338 888 q 610 951 511 951 q 848 890 749 951 q 991 711 947 828 q 1001 428 1035 594 q 906 203 978 303 q 725 45 835 103 q 478 -12 615 -12 m 500 64 q 644 112 581 64 q 753 243 708 160 q 815 435 797 326 q 816 662 839 563 q 733 819 793 761 q 586 876 674 876 q 448 830 511 876 q 340 702 385 783 q 276 518 296 621 q 264 343 258 425 q 297 198 269 261 q 376 99 325 135 q 500 64 426 64 z "},"Ộ":{"ha":1029,"x_min":57,"x_max":1035,"o":"m 478 -12 q 237 54 335 -12 q 98 238 139 121 q 88 510 57 356 q 152 688 106 607 q 268 828 199 769 q 424 919 338 888 q 610 951 511 951 q 848 890 749 951 q 991 711 947 828 q 1001 428 1035 594 q 906 203 978 303 q 725 45 835 103 q 478 -12 615 -12 m 500 64 q 644 112 581 64 q 753 243 708 160 q 815 435 797 326 q 816 662 839 563 q 733 819 793 761 q 586 876 674 876 q 448 830 511 876 q 340 702 385 783 q 276 518 296 621 q 264 343 258 425 q 297 198 269 261 q 376 99 325 135 q 500 64 426 64 m 428 -311 q 358 -285 381 -311 q 342 -212 335 -258 q 381 -143 350 -168 q 453 -118 411 -118 q 522 -143 496 -118 q 538 -219 547 -168 q 501 -286 531 -261 q 428 -311 472 -311 m 461 1008 q 434 1040 444 1019 q 424 1078 424 1061 q 502 1124 463 1099 q 578 1175 542 1149 q 647 1225 615 1201 q 685 1227 667 1229 q 722 1218 704 1225 q 798 1138 757 1178 q 885 1050 839 1097 q 858 1028 876 1036 q 819 1017 840 1019 q 737 1064 781 1042 q 650 1103 693 1086 q 585 1074 618 1090 q 520 1040 551 1057 q 461 1008 489 1024 z "},"Ồ":{"ha":1029,"x_min":57,"x_max":1035,"o":"m 478 -12 q 237 54 335 -12 q 98 238 139 121 q 88 510 57 356 q 152 688 106 607 q 268 828 199 769 q 424 919 338 888 q 610 951 511 951 q 848 890 749 951 q 991 711 947 828 q 1001 428 1035 594 q 906 203 978 303 q 725 45 835 103 q 478 -12 615 -12 m 500 64 q 644 112 581 64 q 753 243 708 160 q 815 435 797 326 q 816 662 839 563 q 733 819 793 761 q 586 876 674 876 q 448 830 511 876 q 340 702 385 783 q 276 518 296 621 q 264 343 258 425 q 297 198 269 261 q 376 99 325 135 q 500 64 426 64 z "},"Ổ":{"ha":1029,"x_min":57,"x_max":1035,"o":"m 478 -12 q 237 54 335 -12 q 98 238 139 121 q 88 510 57 356 q 152 688 106 607 q 268 828 199 769 q 424 919 338 888 q 610 951 511 951 q 848 890 749 951 q 991 711 947 828 q 1001 428 1035 594 q 906 203 978 303 q 725 45 835 103 q 478 -12 615 -12 m 500 64 q 644 112 581 64 q 753 243 708 160 q 815 435 797 326 q 816 662 839 563 q 733 819 793 761 q 586 876 674 876 q 448 830 511 876 q 340 702 385 783 q 276 518 296 621 q 264 343 258 425 q 297 198 269 261 q 376 99 325 135 q 500 64 426 64 z "},"Ỗ":{"ha":1029,"x_min":57,"x_max":1035,"o":"m 478 -12 q 237 54 335 -12 q 98 238 139 121 q 88 510 57 356 q 152 688 106 607 q 268 828 199 769 q 424 919 338 888 q 610 951 511 951 q 848 890 749 951 q 991 711 947 828 q 1001 428 1035 594 q 906 203 978 303 q 725 45 835 103 q 478 -12 615 -12 m 500 64 q 644 112 581 64 q 753 243 708 160 q 815 435 797 326 q 816 662 839 563 q 733 819 793 761 q 586 876 674 876 q 448 830 511 876 q 340 702 385 783 q 276 518 296 621 q 264 343 258 425 q 297 198 269 261 q 376 99 325 135 q 500 64 426 64 m 461 1008 q 434 1040 444 1019 q 424 1078 424 1061 q 502 1124 463 1099 q 578 1175 542 1149 q 647 1225 615 1201 q 685 1227 667 1229 q 722 1218 704 1225 q 798 1138 757 1178 q 885 1050 839 1097 q 858 1028 876 1036 q 819 1017 840 1019 q 737 1064 781 1042 q 650 1103 693 1086 q 585 1074 618 1090 q 520 1040 551 1057 q 461 1008 489 1024 m 772 1294 q 719 1303 742 1294 q 676 1322 696 1311 q 637 1340 657 1332 q 593 1349 617 1349 q 533 1333 561 1349 q 479 1297 506 1318 q 463 1332 467 1314 q 460 1374 458 1350 q 557 1439 510 1422 q 642 1456 604 1456 q 710 1442 682 1456 q 765 1416 739 1429 q 819 1403 790 1403 q 868 1417 846 1403 q 910 1450 890 1431 q 938 1433 924 1443 q 958 1406 951 1422 q 868 1321 915 1347 q 772 1294 821 1294 z "},"Ȍ":{"ha":1029,"x_min":57,"x_max":1035,"o":"m 478 -12 q 237 54 335 -12 q 98 238 139 121 q 88 510 57 356 q 152 688 106 607 q 268 828 199 769 q 424 919 338 888 q 610 951 511 951 q 848 890 749 951 q 991 711 947 828 q 1001 428 1035 594 q 906 203 978 303 q 725 45 835 103 q 478 -12 615 -12 m 500 64 q 644 112 581 64 q 753 243 708 160 q 815 435 797 326 q 816 662 839 563 q 733 819 793 761 q 586 876 674 876 q 448 830 511 876 q 340 702 385 783 q 276 518 296 621 q 264 343 258 425 q 297 198 269 261 q 376 99 325 135 q 500 64 426 64 m 521 1007 q 459 1098 489 1056 q 396 1182 429 1140 q 466 1195 425 1193 q 543 1190 507 1197 q 567 1100 554 1149 q 600 1004 581 1051 q 563 1002 582 1001 q 521 1007 544 1003 m 751 1007 q 692 1099 719 1056 q 631 1183 664 1142 q 699 1196 660 1194 q 774 1190 739 1197 q 798 1100 785 1149 q 831 1004 811 1051 q 794 1002 813 1001 q 751 1007 775 1003 z "},"Ö":{"ha":1029,"x_min":57,"x_max":1035,"o":"m 478 -12 q 237 54 335 -12 q 98 238 139 121 q 88 510 57 356 q 152 688 106 607 q 268 828 199 769 q 424 919 338 888 q 610 951 511 951 q 848 890 749 951 q 991 711 947 828 q 1001 428 1035 594 q 906 203 978 303 q 725 45 835 103 q 478 -12 615 -12 m 500 64 q 644 112 581 64 q 753 243 708 160 q 815 435 797 326 q 816 662 839 563 q 733 819 793 761 q 586 876 674 876 q 448 830 511 876 q 340 702 385 783 q 276 518 296 621 q 264 343 258 425 q 297 198 269 261 q 376 99 325 135 q 500 64 426 64 m 500 1011 q 434 1040 456 1011 q 418 1115 413 1069 q 447 1170 424 1151 q 508 1189 469 1189 q 577 1161 554 1189 q 590 1089 600 1133 q 500 1011 574 1011 m 790 1011 q 724 1038 746 1011 q 707 1110 701 1065 q 801 1189 717 1189 q 867 1163 844 1189 q 882 1092 889 1138 q 790 1011 871 1011 z "},"Ȫ":{"ha":1029,"x_min":57,"x_max":1035,"o":"m 478 -12 q 237 54 335 -12 q 98 238 139 121 q 88 510 57 356 q 152 688 106 607 q 268 828 199 769 q 424 919 338 888 q 610 951 511 951 q 848 890 749 951 q 991 711 947 828 q 1001 428 1035 594 q 906 203 978 303 q 725 45 835 103 q 478 -12 615 -12 m 500 64 q 644 112 581 64 q 753 243 708 160 q 815 435 797 326 q 816 662 839 563 q 733 819 793 761 q 586 876 674 876 q 448 830 511 876 q 340 702 385 783 q 276 518 296 621 q 264 343 258 425 q 297 198 269 261 q 376 99 325 135 q 500 64 426 64 m 500 1011 q 434 1040 456 1011 q 418 1115 413 1069 q 447 1170 424 1151 q 508 1189 469 1189 q 577 1161 554 1189 q 590 1089 600 1133 q 500 1011 574 1011 m 790 1011 q 724 1038 746 1011 q 707 1110 701 1065 q 801 1189 717 1189 q 867 1163 844 1189 q 882 1092 889 1138 q 790 1011 871 1011 m 435 1282 q 438 1317 435 1294 q 447 1354 440 1339 l 936 1354 q 933 1323 936 1340 q 924 1288 931 1306 q 672 1287 794 1288 q 435 1282 549 1286 z "},"Ȱ":{"ha":1029,"x_min":57,"x_max":1035,"o":"m 478 -12 q 237 54 335 -12 q 98 238 139 121 q 88 510 57 356 q 152 688 106 607 q 268 828 199 769 q 424 919 338 888 q 610 951 511 951 q 848 890 749 951 q 991 711 947 828 q 1001 428 1035 594 q 906 203 978 303 q 725 45 835 103 q 478 -12 615 -12 m 500 64 q 644 112 581 64 q 753 243 708 160 q 815 435 797 326 q 816 662 839 563 q 733 819 793 761 q 586 876 674 876 q 448 830 511 876 q 340 702 385 783 q 276 518 296 621 q 264 343 258 425 q 297 198 269 261 q 376 99 325 135 q 500 64 426 64 m 632 999 q 567 1024 589 999 q 550 1093 544 1050 q 586 1157 556 1135 q 663 1179 617 1179 q 729 1153 706 1179 q 746 1083 753 1126 q 710 1021 740 1043 q 632 999 681 999 m 442 1246 q 444 1281 442 1258 q 454 1318 447 1303 l 943 1318 q 940 1287 943 1304 q 931 1251 938 1269 q 678 1251 801 1251 q 442 1246 556 1250 z "},"Ọ":{"ha":1029,"x_min":57,"x_max":1035,"o":"m 478 -12 q 237 54 335 -12 q 98 238 139 121 q 88 510 57 356 q 152 688 106 607 q 268 828 199 769 q 424 919 338 888 q 610 951 511 951 q 848 890 749 951 q 991 711 947 828 q 1001 428 1035 594 q 906 203 978 303 q 725 45 835 103 q 478 -12 615 -12 m 500 64 q 644 112 581 64 q 753 243 708 160 q 815 435 797 326 q 816 662 839 563 q 733 819 793 761 q 586 876 674 876 q 448 830 511 876 q 340 702 385 783 q 276 518 296 621 q 264 343 258 425 q 297 198 269 261 q 376 99 325 135 q 500 64 426 64 m 428 -311 q 358 -285 381 -311 q 342 -212 335 -258 q 381 -143 350 -168 q 453 -118 411 -118 q 522 -143 496 -118 q 538 -219 547 -168 q 501 -286 531 -261 q 428 -311 472 -311 z "},"Ò":{"ha":1029,"x_min":57,"x_max":1035,"o":"m 478 -12 q 237 54 335 -12 q 98 238 139 121 q 88 510 57 356 q 152 688 106 607 q 268 828 199 769 q 424 919 338 888 q 610 951 511 951 q 848 890 749 951 q 991 711 947 828 q 1001 428 1035 594 q 906 203 978 303 q 725 45 835 103 q 478 -12 615 -12 m 500 64 q 644 112 581 64 q 753 243 708 160 q 815 435 797 326 q 816 662 839 563 q 733 819 793 761 q 586 876 674 876 q 448 830 511 876 q 340 702 385 783 q 276 518 296 621 q 264 343 258 425 q 297 198 269 261 q 376 99 325 135 q 500 64 426 64 m 699 1028 q 653 1021 681 1021 q 606 1028 625 1021 q 568 1084 590 1054 q 520 1144 546 1114 q 469 1200 494 1175 q 547 1213 504 1210 q 631 1207 589 1215 q 658 1118 642 1165 q 699 1028 675 1071 z "},"Ỏ":{"ha":1029,"x_min":57,"x_max":1035,"o":"m 478 -12 q 237 54 335 -12 q 98 238 139 121 q 88 510 57 356 q 152 688 106 607 q 268 828 199 769 q 424 919 338 888 q 610 951 511 951 q 848 890 749 951 q 991 711 947 828 q 1001 428 1035 594 q 906 203 978 303 q 725 45 835 103 q 478 -12 615 -12 m 500 64 q 644 112 581 64 q 753 243 708 160 q 815 435 797 326 q 816 662 839 563 q 733 819 793 761 q 586 876 674 876 q 448 830 511 876 q 340 702 385 783 q 276 518 296 621 q 264 343 258 425 q 297 198 269 261 q 376 99 325 135 q 500 64 426 64 m 593 1014 q 588 1036 589 1024 q 589 1061 586 1049 q 617 1101 596 1089 q 661 1125 639 1114 q 692 1156 683 1136 q 688 1180 697 1172 q 663 1188 679 1188 q 617 1168 638 1188 q 583 1106 597 1149 q 542 1113 561 1108 q 508 1126 522 1117 q 520 1166 515 1149 q 525 1207 525 1183 q 592 1232 551 1221 q 679 1243 632 1243 q 781 1217 750 1243 q 799 1150 811 1192 q 772 1108 790 1124 q 732 1081 753 1092 q 694 1060 711 1071 q 671 1032 676 1049 q 668 1022 669 1026 q 668 1008 667 1018 q 631 1008 653 1007 q 593 1014 610 1008 z "},"Ơ":{"ha":1029,"x_min":57,"x_max":1057,"o":"m 478 -12 q 237 54 335 -12 q 98 238 139 121 q 88 510 57 356 q 152 688 106 607 q 268 828 199 769 q 424 919 338 888 q 610 951 511 951 q 848 890 749 951 q 991 711 947 828 q 1001 428 1035 594 q 906 203 978 303 q 725 45 835 103 q 478 -12 615 -12 m 500 64 q 644 112 581 64 q 753 243 708 160 q 815 435 797 326 q 816 662 839 563 q 733 819 793 761 q 586 876 674 876 q 448 830 511 876 q 340 702 385 783 q 276 518 296 621 q 264 343 258 425 q 297 198 269 261 q 376 99 325 135 q 500 64 426 64 m 846 865 l 615 951 q 719 943 672 951 q 814 935 767 935 q 892 951 868 935 q 925 1008 917 968 q 928 1049 929 1029 q 925 1090 928 1068 q 976 1103 947 1099 q 1029 1106 1006 1108 q 1050 1056 1043 1085 q 1050 997 1057 1028 q 981 900 1038 935 q 846 865 924 865 z "},"Ớ":{"ha":1029,"x_min":57,"x_max":1057,"o":"m 478 -12 q 237 54 335 -12 q 98 238 139 121 q 88 510 57 356 q 152 688 106 607 q 268 828 199 769 q 424 919 338 888 q 610 951 511 951 q 848 890 749 951 q 991 711 947 828 q 1001 428 1035 594 q 906 203 978 303 q 725 45 835 103 q 478 -12 615 -12 m 500 64 q 644 112 581 64 q 753 243 708 160 q 815 435 797 326 q 816 662 839 563 q 733 819 793 761 q 586 876 674 876 q 448 830 511 876 q 340 702 385 783 q 276 518 296 621 q 264 343 258 425 q 297 198 269 261 q 376 99 325 135 q 500 64 426 64 m 846 865 l 615 951 q 719 943 672 951 q 814 935 767 935 q 892 951 868 935 q 925 1008 917 968 q 928 1049 929 1029 q 925 1090 928 1068 q 976 1103 947 1099 q 1029 1106 1006 1108 q 1050 1056 1043 1085 q 1050 997 1057 1028 q 981 900 1038 935 q 846 865 924 865 m 625 1014 q 584 1024 604 1017 q 547 1044 564 1032 q 597 1109 575 1076 q 635 1171 619 1142 q 661 1219 651 1200 q 691 1223 676 1222 q 719 1224 706 1224 q 783 1218 753 1224 q 835 1203 813 1213 q 725 1107 779 1157 q 625 1014 671 1057 z "},"Ợ":{"ha":1029,"x_min":57,"x_max":1057,"o":"m 478 -12 q 237 54 335 -12 q 98 238 139 121 q 88 510 57 356 q 152 688 106 607 q 268 828 199 769 q 424 919 338 888 q 610 951 511 951 q 848 890 749 951 q 991 711 947 828 q 1001 428 1035 594 q 906 203 978 303 q 725 45 835 103 q 478 -12 615 -12 m 500 64 q 644 112 581 64 q 753 243 708 160 q 815 435 797 326 q 816 662 839 563 q 733 819 793 761 q 586 876 674 876 q 448 830 511 876 q 340 702 385 783 q 276 518 296 621 q 264 343 258 425 q 297 198 269 261 q 376 99 325 135 q 500 64 426 64 m 846 865 l 615 951 q 719 943 672 951 q 814 935 767 935 q 892 951 868 935 q 925 1008 917 968 q 928 1049 929 1029 q 925 1090 928 1068 q 976 1103 947 1099 q 1029 1106 1006 1108 q 1050 1056 1043 1085 q 1050 997 1057 1028 q 981 900 1038 935 q 846 865 924 865 m 428 -311 q 358 -285 381 -311 q 342 -212 335 -258 q 381 -143 350 -168 q 453 -118 411 -118 q 522 -143 496 -118 q 538 -219 547 -168 q 501 -286 531 -261 q 428 -311 472 -311 z "},"Ờ":{"ha":1029,"x_min":57,"x_max":1057,"o":"m 478 -12 q 237 54 335 -12 q 98 238 139 121 q 88 510 57 356 q 152 688 106 607 q 268 828 199 769 q 424 919 338 888 q 610 951 511 951 q 848 890 749 951 q 991 711 947 828 q 1001 428 1035 594 q 906 203 978 303 q 725 45 835 103 q 478 -12 615 -12 m 500 64 q 644 112 581 64 q 753 243 708 160 q 815 435 797 326 q 816 662 839 563 q 733 819 793 761 q 586 876 674 876 q 448 830 511 876 q 340 702 385 783 q 276 518 296 621 q 264 343 258 425 q 297 198 269 261 q 376 99 325 135 q 500 64 426 64 m 846 865 l 615 951 q 719 943 672 951 q 814 935 767 935 q 892 951 868 935 q 925 1008 917 968 q 928 1049 929 1029 q 925 1090 928 1068 q 976 1103 947 1099 q 1029 1106 1006 1108 q 1050 1056 1043 1085 q 1050 997 1057 1028 q 981 900 1038 935 q 846 865 924 865 m 699 1028 q 653 1021 681 1021 q 606 1028 625 1021 q 568 1084 590 1054 q 520 1144 546 1114 q 469 1200 494 1175 q 547 1213 504 1210 q 631 1207 589 1215 q 658 1118 642 1165 q 699 1028 675 1071 z "},"Ở":{"ha":1029,"x_min":57,"x_max":1057,"o":"m 478 -12 q 237 54 335 -12 q 98 238 139 121 q 88 510 57 356 q 152 688 106 607 q 268 828 199 769 q 424 919 338 888 q 610 951 511 951 q 848 890 749 951 q 991 711 947 828 q 1001 428 1035 594 q 906 203 978 303 q 725 45 835 103 q 478 -12 615 -12 m 500 64 q 644 112 581 64 q 753 243 708 160 q 815 435 797 326 q 816 662 839 563 q 733 819 793 761 q 586 876 674 876 q 448 830 511 876 q 340 702 385 783 q 276 518 296 621 q 264 343 258 425 q 297 198 269 261 q 376 99 325 135 q 500 64 426 64 m 846 865 l 615 951 q 719 943 672 951 q 814 935 767 935 q 892 951 868 935 q 925 1008 917 968 q 928 1049 929 1029 q 925 1090 928 1068 q 976 1103 947 1099 q 1029 1106 1006 1108 q 1050 1056 1043 1085 q 1050 997 1057 1028 q 981 900 1038 935 q 846 865 924 865 m 593 1014 q 588 1036 589 1024 q 589 1061 586 1049 q 617 1101 596 1089 q 661 1125 639 1114 q 692 1156 683 1136 q 688 1180 697 1172 q 663 1188 679 1188 q 617 1168 638 1188 q 583 1106 597 1149 q 542 1113 561 1108 q 508 1126 522 1117 q 520 1166 515 1149 q 525 1207 525 1183 q 592 1232 551 1221 q 679 1243 632 1243 q 781 1217 750 1243 q 799 1150 811 1192 q 772 1108 790 1124 q 732 1081 753 1092 q 694 1060 711 1071 q 671 1032 676 1049 q 668 1022 669 1026 q 668 1008 667 1018 q 631 1008 653 1007 q 593 1014 610 1008 z "},"Ỡ":{"ha":1029,"x_min":57,"x_max":1057,"o":"m 478 -12 q 237 54 335 -12 q 98 238 139 121 q 88 510 57 356 q 152 688 106 607 q 268 828 199 769 q 424 919 338 888 q 610 951 511 951 q 848 890 749 951 q 991 711 947 828 q 1001 428 1035 594 q 906 203 978 303 q 725 45 835 103 q 478 -12 615 -12 m 500 64 q 644 112 581 64 q 753 243 708 160 q 815 435 797 326 q 816 662 839 563 q 733 819 793 761 q 586 876 674 876 q 448 830 511 876 q 340 702 385 783 q 276 518 296 621 q 264 343 258 425 q 297 198 269 261 q 376 99 325 135 q 500 64 426 64 m 846 865 l 615 951 q 719 943 672 951 q 814 935 767 935 q 892 951 868 935 q 925 1008 917 968 q 928 1049 929 1029 q 925 1090 928 1068 q 976 1103 947 1099 q 1029 1106 1006 1108 q 1050 1056 1043 1085 q 1050 997 1057 1028 q 981 900 1038 935 q 846 865 924 865 m 718 1033 q 665 1042 688 1033 q 622 1060 642 1050 q 583 1079 603 1071 q 539 1088 563 1088 q 479 1072 507 1088 q 425 1036 451 1057 q 408 1071 413 1053 q 406 1113 404 1089 q 503 1178 456 1161 q 588 1194 550 1194 q 656 1181 628 1194 q 710 1155 685 1168 q 765 1142 736 1142 q 814 1156 792 1142 q 856 1189 836 1169 q 883 1172 869 1182 q 904 1144 897 1161 q 814 1060 861 1086 q 718 1033 767 1033 z "},"Ő":{"ha":1029,"x_min":57,"x_max":1035,"o":"m 478 -12 q 237 54 335 -12 q 98 238 139 121 q 88 510 57 356 q 152 688 106 607 q 268 828 199 769 q 424 919 338 888 q 610 951 511 951 q 848 890 749 951 q 991 711 947 828 q 1001 428 1035 594 q 906 203 978 303 q 725 45 835 103 q 478 -12 615 -12 m 500 64 q 644 112 581 64 q 753 243 708 160 q 815 435 797 326 q 816 662 839 563 q 733 819 793 761 q 586 876 674 876 q 448 830 511 876 q 340 702 385 783 q 276 518 296 621 q 264 343 258 425 q 297 198 269 261 q 376 99 325 135 q 500 64 426 64 m 785 1021 q 707 1051 743 1024 q 756 1114 733 1082 q 794 1174 778 1146 q 819 1222 811 1203 q 917 1225 869 1229 q 993 1206 964 1221 q 884 1111 938 1160 q 785 1021 831 1063 m 544 1021 q 467 1051 503 1024 q 515 1114 493 1082 q 554 1174 538 1146 q 579 1222 571 1203 q 676 1225 629 1229 q 753 1206 724 1221 q 644 1111 697 1160 q 544 1021 590 1063 z "},"Ȏ":{"ha":1029,"x_min":57,"x_max":1035,"o":"m 478 -12 q 237 54 335 -12 q 98 238 139 121 q 88 510 57 356 q 152 688 106 607 q 268 828 199 769 q 424 919 338 888 q 610 951 511 951 q 848 890 749 951 q 991 711 947 828 q 1001 428 1035 594 q 906 203 978 303 q 725 45 835 103 q 478 -12 615 -12 m 500 64 q 644 112 581 64 q 753 243 708 160 q 815 435 797 326 q 816 662 839 563 q 733 819 793 761 q 586 876 674 876 q 448 830 511 876 q 340 702 385 783 q 276 518 296 621 q 264 343 258 425 q 297 198 269 261 q 376 99 325 135 q 500 64 426 64 z "},"Ō":{"ha":1029,"x_min":57,"x_max":1035,"o":"m 478 -12 q 237 54 335 -12 q 98 238 139 121 q 88 510 57 356 q 152 688 106 607 q 268 828 199 769 q 424 919 338 888 q 610 951 511 951 q 848 890 749 951 q 991 711 947 828 q 1001 428 1035 594 q 906 203 978 303 q 725 45 835 103 q 478 -12 615 -12 m 500 64 q 644 112 581 64 q 753 243 708 160 q 815 435 797 326 q 816 662 839 563 q 733 819 793 761 q 586 876 674 876 q 448 830 511 876 q 340 702 385 783 q 276 518 296 621 q 264 343 258 425 q 297 198 269 261 q 376 99 325 135 q 500 64 426 64 m 399 1061 q 401 1096 399 1074 q 411 1133 404 1118 l 900 1133 q 897 1102 900 1119 q 888 1067 894 1085 q 635 1066 758 1067 q 399 1061 513 1065 z "},"Ṓ":{"ha":1029,"x_min":57,"x_max":1035,"o":"m 478 -12 q 237 54 335 -12 q 98 238 139 121 q 88 510 57 356 q 152 688 106 607 q 268 828 199 769 q 424 919 338 888 q 610 951 511 951 q 848 890 749 951 q 991 711 947 828 q 1001 428 1035 594 q 906 203 978 303 q 725 45 835 103 q 478 -12 615 -12 m 500 64 q 644 112 581 64 q 753 243 708 160 q 815 435 797 326 q 816 662 839 563 q 733 819 793 761 q 586 876 674 876 q 448 830 511 876 q 340 702 385 783 q 276 518 296 621 q 264 343 258 425 q 297 198 269 261 q 376 99 325 135 q 500 64 426 64 m 399 1061 q 401 1096 399 1074 q 411 1133 404 1118 l 900 1133 q 897 1102 900 1119 q 888 1067 894 1085 q 635 1066 758 1067 q 399 1061 513 1065 m 663 1208 q 622 1219 642 1211 q 585 1239 601 1226 q 635 1303 613 1271 q 673 1365 657 1336 q 699 1414 689 1394 q 728 1417 714 1417 q 757 1418 743 1418 q 820 1413 790 1418 q 872 1397 850 1407 q 763 1301 817 1351 q 663 1208 708 1251 z "},"Ṑ":{"ha":1029,"x_min":57,"x_max":1035,"o":"m 478 -12 q 237 54 335 -12 q 98 238 139 121 q 88 510 57 356 q 152 688 106 607 q 268 828 199 769 q 424 919 338 888 q 610 951 511 951 q 848 890 749 951 q 991 711 947 828 q 1001 428 1035 594 q 906 203 978 303 q 725 45 835 103 q 478 -12 615 -12 m 500 64 q 644 112 581 64 q 753 243 708 160 q 815 435 797 326 q 816 662 839 563 q 733 819 793 761 q 586 876 674 876 q 448 830 511 876 q 340 702 385 783 q 276 518 296 621 q 264 343 258 425 q 297 198 269 261 q 376 99 325 135 q 500 64 426 64 m 399 1061 q 401 1096 399 1074 q 411 1133 404 1118 l 900 1133 q 897 1102 900 1119 q 888 1067 894 1085 q 635 1066 758 1067 q 399 1061 513 1065 m 738 1222 q 692 1215 719 1215 q 644 1222 664 1215 q 607 1278 629 1249 q 559 1339 585 1308 q 508 1394 533 1369 q 585 1407 543 1404 q 669 1401 628 1410 q 697 1313 681 1360 q 738 1222 714 1265 z "},"Ǫ":{"ha":1029,"x_min":57,"x_max":1035,"o":"m 478 -12 q 237 54 335 -12 q 98 238 139 121 q 88 510 57 356 q 152 688 106 607 q 268 828 199 769 q 424 919 338 888 q 610 951 511 951 q 848 890 749 951 q 991 711 947 828 q 1001 428 1035 594 q 906 203 978 303 q 725 45 835 103 q 478 -12 615 -12 m 500 64 q 644 112 581 64 q 753 243 708 160 q 815 435 797 326 q 816 662 839 563 q 733 819 793 761 q 586 876 674 876 q 448 830 511 876 q 340 702 385 783 q 276 518 296 621 q 264 343 258 425 q 297 198 269 261 q 376 99 325 135 q 500 64 426 64 m 533 -349 q 445 -333 483 -349 q 388 -283 407 -317 q 376 -197 369 -249 q 408 -107 382 -151 q 485 -19 433 -62 q 621 64 538 24 l 700 33 q 584 -36 626 8 q 533 -128 542 -81 q 545 -190 526 -165 q 603 -215 564 -215 q 626 -212 615 -215 q 646 -203 638 -208 q 667 -233 660 -215 q 678 -267 675 -250 q 616 -303 646 -283 q 563 -346 586 -324 q 549 -348 556 -347 q 533 -349 543 -349 z "},"Ø":{"ha":1029,"x_min":57,"x_max":1035,"o":"m 478 -12 q 237 54 335 -12 q 98 238 139 121 q 88 510 57 356 q 152 688 106 607 q 268 828 199 769 q 424 919 338 888 q 610 951 511 951 q 848 890 749 951 q 991 711 947 828 q 1001 428 1035 594 q 906 203 978 303 q 725 45 835 103 q 478 -12 615 -12 m 500 64 q 644 112 581 64 q 753 243 708 160 q 815 435 797 326 q 816 662 839 563 q 733 819 793 761 q 586 876 674 876 q 448 830 511 876 q 340 702 385 783 q 276 518 296 621 q 264 343 258 425 q 297 198 269 261 q 376 99 325 135 q 500 64 426 64 m 153 -12 q 104 -1 126 -12 q 74 29 82 11 l 932 951 q 1015 915 990 951 q 800 694 911 811 q 576 457 689 578 q 356 217 464 336 q 153 -12 249 97 z "},"Ǿ":{"ha":1029,"x_min":57,"x_max":1035,"o":"m 478 -12 q 237 54 335 -12 q 98 238 139 121 q 88 510 57 356 q 152 688 106 607 q 268 828 199 769 q 424 919 338 888 q 610 951 511 951 q 848 890 749 951 q 991 711 947 828 q 1001 428 1035 594 q 906 203 978 303 q 725 45 835 103 q 478 -12 615 -12 m 500 64 q 644 112 581 64 q 753 243 708 160 q 815 435 797 326 q 816 662 839 563 q 733 819 793 761 q 586 876 674 876 q 448 830 511 876 q 340 702 385 783 q 276 518 296 621 q 264 343 258 425 q 297 198 269 261 q 376 99 325 135 q 500 64 426 64 m 153 -12 q 104 -1 126 -12 q 74 29 82 11 l 932 951 q 1015 915 990 951 q 800 694 911 811 q 576 457 689 578 q 356 217 464 336 q 153 -12 249 97 m 618 1014 q 577 1024 597 1017 q 540 1044 557 1032 q 590 1109 568 1076 q 628 1171 613 1142 q 654 1219 644 1200 q 684 1223 669 1222 q 713 1224 699 1224 q 776 1218 746 1224 q 828 1203 806 1213 q 718 1107 772 1157 q 618 1014 664 1057 z "},"Õ":{"ha":1029,"x_min":57,"x_max":1035,"o":"m 478 -12 q 237 54 335 -12 q 98 238 139 121 q 88 510 57 356 q 152 688 106 607 q 268 828 199 769 q 424 919 338 888 q 610 951 511 951 q 848 890 749 951 q 991 711 947 828 q 1001 428 1035 594 q 906 203 978 303 q 725 45 835 103 q 478 -12 615 -12 m 500 64 q 644 112 581 64 q 753 243 708 160 q 815 435 797 326 q 816 662 839 563 q 733 819 793 761 q 586 876 674 876 q 448 830 511 876 q 340 702 385 783 q 276 518 296 621 q 264 343 258 425 q 297 198 269 261 q 376 99 325 135 q 500 64 426 64 m 718 1033 q 665 1042 688 1033 q 622 1060 642 1050 q 583 1079 603 1071 q 539 1088 563 1088 q 479 1072 507 1088 q 425 1036 451 1057 q 408 1071 413 1053 q 406 1113 404 1089 q 503 1178 456 1161 q 588 1194 550 1194 q 656 1181 628 1194 q 710 1155 685 1168 q 765 1142 736 1142 q 814 1156 792 1142 q 856 1189 836 1169 q 883 1172 869 1182 q 904 1144 897 1161 q 814 1060 861 1086 q 718 1033 767 1033 z "},"Ṍ":{"ha":1029,"x_min":57,"x_max":1035,"o":"m 478 -12 q 237 54 335 -12 q 98 238 139 121 q 88 510 57 356 q 152 688 106 607 q 268 828 199 769 q 424 919 338 888 q 610 951 511 951 q 848 890 749 951 q 991 711 947 828 q 1001 428 1035 594 q 906 203 978 303 q 725 45 835 103 q 478 -12 615 -12 m 500 64 q 644 112 581 64 q 753 243 708 160 q 815 435 797 326 q 816 662 839 563 q 733 819 793 761 q 586 876 674 876 q 448 830 511 876 q 340 702 385 783 q 276 518 296 621 q 264 343 258 425 q 297 198 269 261 q 376 99 325 135 q 500 64 426 64 m 718 1033 q 665 1042 688 1033 q 622 1060 642 1050 q 583 1079 603 1071 q 539 1088 563 1088 q 479 1072 507 1088 q 425 1036 451 1057 q 408 1071 413 1053 q 406 1113 404 1089 q 503 1178 456 1161 q 588 1194 550 1194 q 656 1181 628 1194 q 710 1155 685 1168 q 765 1142 736 1142 q 814 1156 792 1142 q 856 1189 836 1169 q 883 1172 869 1182 q 904 1144 897 1161 q 814 1060 861 1086 q 718 1033 767 1033 m 672 1261 q 631 1272 651 1264 q 594 1292 611 1279 q 644 1356 622 1324 q 683 1418 667 1389 q 708 1467 699 1447 q 738 1470 724 1469 q 767 1471 753 1471 q 830 1465 800 1471 q 882 1450 860 1460 q 772 1354 826 1404 q 672 1261 718 1304 z "},"Ṏ":{"ha":1029,"x_min":57,"x_max":1035,"o":"m 478 -12 q 237 54 335 -12 q 98 238 139 121 q 88 510 57 356 q 152 688 106 607 q 268 828 199 769 q 424 919 338 888 q 610 951 511 951 q 848 890 749 951 q 991 711 947 828 q 1001 428 1035 594 q 906 203 978 303 q 725 45 835 103 q 478 -12 615 -12 m 500 64 q 644 112 581 64 q 753 243 708 160 q 815 435 797 326 q 816 662 839 563 q 733 819 793 761 q 586 876 674 876 q 448 830 511 876 q 340 702 385 783 q 276 518 296 621 q 264 343 258 425 q 297 198 269 261 q 376 99 325 135 q 500 64 426 64 m 718 1033 q 665 1042 688 1033 q 622 1060 642 1050 q 583 1079 603 1071 q 539 1088 563 1088 q 479 1072 507 1088 q 425 1036 451 1057 q 408 1071 413 1053 q 406 1113 404 1089 q 503 1178 456 1161 q 588 1194 550 1194 q 656 1181 628 1194 q 710 1155 685 1168 q 765 1142 736 1142 q 814 1156 792 1142 q 856 1189 836 1169 q 883 1172 869 1182 q 904 1144 897 1161 q 814 1060 861 1086 q 718 1033 767 1033 m 547 1258 q 481 1288 503 1258 q 465 1363 460 1317 q 494 1417 471 1399 q 556 1436 517 1436 q 624 1408 601 1436 q 638 1336 647 1381 q 547 1258 621 1258 m 838 1258 q 771 1285 793 1258 q 754 1357 749 1313 q 849 1436 764 1436 q 914 1410 892 1436 q 929 1339 936 1385 q 838 1258 918 1258 z "},"Ȭ":{"ha":1029,"x_min":57,"x_max":1035,"o":"m 478 -12 q 237 54 335 -12 q 98 238 139 121 q 88 510 57 356 q 152 688 106 607 q 268 828 199 769 q 424 919 338 888 q 610 951 511 951 q 848 890 749 951 q 991 711 947 828 q 1001 428 1035 594 q 906 203 978 303 q 725 45 835 103 q 478 -12 615 -12 m 500 64 q 644 112 581 64 q 753 243 708 160 q 815 435 797 326 q 816 662 839 563 q 733 819 793 761 q 586 876 674 876 q 448 830 511 876 q 340 702 385 783 q 276 518 296 621 q 264 343 258 425 q 297 198 269 261 q 376 99 325 135 q 500 64 426 64 m 718 1033 q 665 1042 688 1033 q 622 1060 642 1050 q 583 1079 603 1071 q 539 1088 563 1088 q 479 1072 507 1088 q 425 1036 451 1057 q 408 1071 413 1053 q 406 1113 404 1089 q 503 1178 456 1161 q 588 1194 550 1194 q 656 1181 628 1194 q 710 1155 685 1168 q 765 1142 736 1142 q 814 1156 792 1142 q 856 1189 836 1169 q 883 1172 869 1182 q 904 1144 897 1161 q 814 1060 861 1086 q 718 1033 767 1033 m 446 1308 q 449 1343 446 1321 q 458 1381 451 1365 l 947 1381 q 944 1349 947 1367 q 935 1314 942 1332 q 683 1313 806 1314 q 446 1308 560 1313 z "},"Œ":{"ha":1375,"x_min":65,"x_max":1397,"o":"m 607 951 q 840 887 747 951 q 969 705 933 822 q 971 428 1006 588 q 883 204 946 304 q 719 46 819 104 q 479 -12 618 -12 q 278 29 363 -12 q 144 144 194 71 q 80 311 94 217 q 88 510 65 406 q 190 745 115 646 q 372 898 264 844 q 607 951 481 951 m 586 876 q 446 829 508 876 q 340 701 383 782 q 276 518 297 621 q 263 346 258 428 q 295 201 268 264 q 373 101 322 138 q 496 64 424 64 q 638 112 578 64 q 738 243 697 160 q 796 435 778 326 q 799 666 818 567 q 726 821 781 765 q 586 876 671 876 m 1256 260 q 1301 248 1282 256 q 1328 225 1319 240 q 1299 118 1317 176 q 1271 -4 1282 60 q 1180 -1 1231 -1 q 1070 0 1129 0 q 943 0 1011 0 q 827 -2 881 0 q 719 -6 774 -4 q 606 -10 665 -8 q 472 -12 547 -12 l 688 76 l 1010 76 q 1127 97 1083 76 q 1200 158 1171 117 q 1256 260 1229 199 m 1249 624 q 1233 552 1242 590 q 1218 461 1225 514 q 1208 374 1211 410 q 1203 304 1206 339 q 1158 310 1179 307 q 1121 324 1138 314 q 1115 389 1124 364 q 1078 426 1106 414 q 999 438 1050 438 l 919 438 l 933 514 l 1007 514 q 1119 535 1085 514 q 1163 621 1153 556 q 1206 626 1185 625 q 1249 624 1226 626 m 603 951 q 679 950 644 951 q 748 947 714 949 q 821 944 782 946 q 911 940 860 942 q 1033 939 963 939 q 1226 940 1132 939 q 1397 943 1319 940 q 1386 826 1390 890 q 1386 708 1382 761 q 1296 696 1347 696 q 1281 790 1293 753 q 1230 844 1269 826 q 1107 863 1190 863 l 811 863 l 603 951 z "},"P":{"ha":831,"x_min":32,"x_max":890,"o":"m 32 -4 q 37 36 33 17 q 47 72 40 56 q 108 90 88 78 q 138 130 128 101 q 158 213 149 158 l 250 746 q 254 815 258 790 q 231 851 250 840 q 172 868 211 863 q 169 943 164 903 q 238 940 200 942 q 313 939 275 939 q 379 939 350 939 q 480 941 419 939 q 606 943 540 943 q 824 858 758 943 q 863 619 890 772 q 796 469 847 533 q 665 368 744 404 q 488 332 586 332 q 440 336 460 332 q 404 347 419 340 q 408 384 403 361 q 418 418 413 407 q 443 413 429 415 q 474 411 457 411 q 610 464 554 411 q 686 619 667 517 q 669 801 708 735 q 524 867 631 867 q 479 864 501 867 q 431 853 457 861 l 450 883 l 336 217 q 329 134 326 163 q 358 92 332 106 q 440 71 383 79 q 445 35 444 53 q 443 -4 446 18 q 342 -1 390 -1 q 243 0 294 0 q 132 -1 182 0 q 32 -4 82 -1 z "},"Þ":{"ha":853,"x_min":32,"x_max":844,"o":"m 32 -4 q 37 36 33 18 q 47 71 40 54 q 104 87 85 76 q 135 123 124 97 q 156 199 146 149 l 249 742 q 253 815 257 790 q 229 851 249 840 q 171 868 210 863 q 167 903 168 885 q 169 943 167 922 q 258 940 211 942 q 357 939 306 939 q 453 940 404 939 q 549 943 501 942 q 544 905 547 924 q 535 868 542 886 q 478 851 499 863 q 446 813 457 840 q 425 732 435 786 l 333 200 q 331 125 325 151 q 362 88 336 99 q 439 71 388 76 q 444 35 443 54 q 442 -4 444 15 q 341 -1 390 -1 q 238 0 292 0 q 129 -1 183 0 q 32 -4 75 -1 m 474 208 q 420 213 443 208 q 381 228 397 217 q 385 264 381 246 q 397 294 389 282 q 424 289 410 290 q 454 288 438 288 q 542 306 500 288 q 616 367 585 325 q 660 478 647 408 q 638 625 676 569 q 494 681 599 681 q 451 678 471 681 q 400 665 431 675 l 354 750 q 417 751 379 750 q 496 752 456 751 q 567 753 536 753 q 709 731 653 753 q 796 671 765 708 q 835 584 826 633 q 835 481 844 535 q 775 347 822 408 q 652 247 728 285 q 474 208 576 208 z "},"Q":{"ha":1029,"x_min":57,"x_max":1040,"o":"m 478 -12 q 237 54 335 -12 q 98 238 139 121 q 88 510 57 356 q 152 688 106 607 q 268 828 199 769 q 424 919 338 888 q 610 951 511 951 q 848 890 749 951 q 991 711 947 828 q 1001 428 1035 594 q 906 203 978 303 q 725 45 835 103 q 478 -12 615 -12 m 500 64 q 644 112 581 64 q 753 243 708 160 q 815 435 797 326 q 816 662 839 563 q 733 819 793 761 q 586 876 674 876 q 448 830 511 876 q 340 702 385 783 q 276 518 296 621 q 264 343 258 425 q 297 198 269 261 q 376 99 325 135 q 500 64 426 64 m 853 -304 q 743 -275 789 -304 q 660 -175 697 -246 q 581 -64 625 -107 q 458 -12 536 -21 l 601 22 q 685 -5 646 14 q 765 -52 725 -24 q 849 -119 804 -81 q 907 -163 886 -154 q 950 -172 928 -172 q 976 -165 964 -171 q 999 -149 989 -158 q 1024 -174 1013 -157 q 1040 -208 1036 -190 q 995 -254 1024 -232 q 931 -290 967 -276 q 853 -304 894 -304 z "},"R":{"ha":940,"x_min":32,"x_max":888,"o":"m 592 944 q 758 912 690 944 q 857 819 826 879 q 871 676 888 760 q 822 559 860 611 q 722 473 783 507 q 575 424 661 439 l 435 403 q 393 403 413 403 q 358 404 374 403 l 369 490 q 402 487 388 488 q 431 486 417 486 q 552 509 500 486 q 638 575 604 532 q 683 678 672 618 q 660 822 701 775 q 540 868 618 868 q 489 864 517 868 q 438 851 461 860 l 453 899 l 332 194 q 326 120 324 144 q 344 86 328 96 q 392 71 360 76 q 395 34 394 53 q 394 -4 396 15 q 332 -1 358 -1 q 280 0 306 0 q 218 0 254 0 q 118 -1 161 0 q 32 -4 75 -1 q 37 35 33 17 q 47 71 40 53 q 106 88 86 75 q 138 129 126 100 q 157 213 149 158 l 250 746 q 253 815 257 790 q 229 851 249 840 q 171 868 210 863 q 167 905 167 886 q 169 943 167 924 q 267 940 221 940 q 368 939 314 939 q 480 942 417 939 q 592 944 543 944 m 556 456 q 609 397 586 426 q 656 324 632 367 q 704 217 679 282 q 746 144 725 165 q 786 122 767 122 q 813 127 801 122 q 838 143 825 132 q 863 117 851 133 q 881 83 875 101 q 793 13 840 38 q 689 -12 746 -12 q 615 8 644 -12 q 566 69 586 28 q 526 172 546 110 q 485 283 506 236 q 442 367 465 329 q 392 443 419 406 l 556 456 z "},"Ŕ":{"ha":940,"x_min":32,"x_max":888,"o":"m 592 944 q 758 912 690 944 q 857 819 826 879 q 871 676 888 760 q 822 559 860 611 q 722 473 783 507 q 575 424 661 439 l 435 403 q 393 403 413 403 q 358 404 374 403 l 369 490 q 402 487 388 488 q 431 486 417 486 q 552 509 500 486 q 638 575 604 532 q 683 678 672 618 q 660 822 701 775 q 540 868 618 868 q 489 864 517 868 q 438 851 461 860 l 453 899 l 332 194 q 326 120 324 144 q 344 86 328 96 q 392 71 360 76 q 395 34 394 53 q 394 -4 396 15 q 332 -1 358 -1 q 280 0 306 0 q 218 0 254 0 q 118 -1 161 0 q 32 -4 75 -1 q 37 35 33 17 q 47 71 40 53 q 106 88 86 75 q 138 129 126 100 q 157 213 149 158 l 250 746 q 253 815 257 790 q 229 851 249 840 q 171 868 210 863 q 167 905 167 886 q 169 943 167 924 q 267 940 221 940 q 368 939 314 939 q 480 942 417 939 q 592 944 543 944 m 556 456 q 609 397 586 426 q 656 324 632 367 q 704 217 679 282 q 746 144 725 165 q 786 122 767 122 q 813 127 801 122 q 838 143 825 132 q 863 117 851 133 q 881 83 875 101 q 793 13 840 38 q 689 -12 746 -12 q 615 8 644 -12 q 566 69 586 28 q 526 172 546 110 q 485 283 506 236 q 442 367 465 329 q 392 443 419 406 l 556 456 m 546 1014 q 505 1024 525 1017 q 468 1044 485 1032 q 518 1109 496 1076 q 556 1171 540 1142 q 582 1219 572 1200 q 612 1223 597 1222 q 640 1224 626 1224 q 703 1218 674 1224 q 756 1203 733 1213 q 646 1107 700 1157 q 546 1014 592 1057 z "},"Ř":{"ha":940,"x_min":32,"x_max":888,"o":"m 592 944 q 758 912 690 944 q 857 819 826 879 q 871 676 888 760 q 822 559 860 611 q 722 473 783 507 q 575 424 661 439 l 435 403 q 393 403 413 403 q 358 404 374 403 l 369 490 q 402 487 388 488 q 431 486 417 486 q 552 509 500 486 q 638 575 604 532 q 683 678 672 618 q 660 822 701 775 q 540 868 618 868 q 489 864 517 868 q 438 851 461 860 l 453 899 l 332 194 q 326 120 324 144 q 344 86 328 96 q 392 71 360 76 q 395 34 394 53 q 394 -4 396 15 q 332 -1 358 -1 q 280 0 306 0 q 218 0 254 0 q 118 -1 161 0 q 32 -4 75 -1 q 37 35 33 17 q 47 71 40 53 q 106 88 86 75 q 138 129 126 100 q 157 213 149 158 l 250 746 q 253 815 257 790 q 229 851 249 840 q 171 868 210 863 q 167 905 167 886 q 169 943 167 924 q 267 940 221 940 q 368 939 314 939 q 480 942 417 939 q 592 944 543 944 m 556 456 q 609 397 586 426 q 656 324 632 367 q 704 217 679 282 q 746 144 725 165 q 786 122 767 122 q 813 127 801 122 q 838 143 825 132 q 863 117 851 133 q 881 83 875 101 q 793 13 840 38 q 689 -12 746 -12 q 615 8 644 -12 q 566 69 586 28 q 526 172 546 110 q 485 283 506 236 q 442 367 465 329 q 392 443 419 406 l 556 456 m 514 1015 q 432 1100 478 1057 q 338 1181 386 1143 q 357 1217 344 1203 q 393 1233 369 1231 q 483 1185 435 1208 q 574 1143 531 1161 q 677 1185 629 1161 q 764 1231 725 1208 q 794 1210 781 1225 q 815 1179 808 1196 q 697 1106 758 1146 q 585 1025 636 1065 q 514 1015 550 1010 z "},"Ŗ":{"ha":940,"x_min":32,"x_max":888,"o":"m 592 944 q 758 912 690 944 q 857 819 826 879 q 871 676 888 760 q 822 559 860 611 q 722 473 783 507 q 575 424 661 439 l 435 403 q 393 403 413 403 q 358 404 374 403 l 369 490 q 402 487 388 488 q 431 486 417 486 q 552 509 500 486 q 638 575 604 532 q 683 678 672 618 q 660 822 701 775 q 540 868 618 868 q 489 864 517 868 q 438 851 461 860 l 453 899 l 332 194 q 326 120 324 144 q 344 86 328 96 q 392 71 360 76 q 395 34 394 53 q 394 -4 396 15 q 332 -1 358 -1 q 280 0 306 0 q 218 0 254 0 q 118 -1 161 0 q 32 -4 75 -1 q 37 35 33 17 q 47 71 40 53 q 106 88 86 75 q 138 129 126 100 q 157 213 149 158 l 250 746 q 253 815 257 790 q 229 851 249 840 q 171 868 210 863 q 167 905 167 886 q 169 943 167 924 q 267 940 221 940 q 368 939 314 939 q 480 942 417 939 q 592 944 543 944 m 556 456 q 609 397 586 426 q 656 324 632 367 q 704 217 679 282 q 746 144 725 165 q 786 122 767 122 q 813 127 801 122 q 838 143 825 132 q 863 117 851 133 q 881 83 875 101 q 793 13 840 38 q 689 -12 746 -12 q 615 8 644 -12 q 566 69 586 28 q 526 172 546 110 q 485 283 506 236 q 442 367 465 329 q 392 443 419 406 l 556 456 m 358 -406 q 311 -367 322 -396 q 369 -307 347 -337 q 396 -251 392 -276 q 385 -216 399 -229 q 340 -199 372 -203 q 369 -99 339 -143 q 445 -84 410 -94 q 508 -57 481 -74 q 547 -92 538 -67 q 550 -158 557 -117 q 482 -297 536 -235 q 358 -406 428 -360 z "},"Ȑ":{"ha":940,"x_min":32,"x_max":888,"o":"m 592 944 q 758 912 690 944 q 857 819 826 879 q 871 676 888 760 q 822 559 860 611 q 722 473 783 507 q 575 424 661 439 l 435 403 q 393 403 413 403 q 358 404 374 403 l 369 490 q 402 487 388 488 q 431 486 417 486 q 552 509 500 486 q 638 575 604 532 q 683 678 672 618 q 660 822 701 775 q 540 868 618 868 q 489 864 517 868 q 438 851 461 860 l 453 899 l 332 194 q 326 120 324 144 q 344 86 328 96 q 392 71 360 76 q 395 34 394 53 q 394 -4 396 15 q 332 -1 358 -1 q 280 0 306 0 q 218 0 254 0 q 118 -1 161 0 q 32 -4 75 -1 q 37 35 33 17 q 47 71 40 53 q 106 88 86 75 q 138 129 126 100 q 157 213 149 158 l 250 746 q 253 815 257 790 q 229 851 249 840 q 171 868 210 863 q 167 905 167 886 q 169 943 167 924 q 267 940 221 940 q 368 939 314 939 q 480 942 417 939 q 592 944 543 944 m 556 456 q 609 397 586 426 q 656 324 632 367 q 704 217 679 282 q 746 144 725 165 q 786 122 767 122 q 813 127 801 122 q 838 143 825 132 q 863 117 851 133 q 881 83 875 101 q 793 13 840 38 q 689 -12 746 -12 q 615 8 644 -12 q 566 69 586 28 q 526 172 546 110 q 485 283 506 236 q 442 367 465 329 q 392 443 419 406 l 556 456 m 442 1007 q 380 1098 410 1056 q 317 1182 350 1140 q 387 1195 346 1193 q 464 1190 428 1197 q 488 1100 475 1149 q 521 1004 501 1051 q 484 1002 503 1001 q 442 1007 465 1003 m 672 1007 q 613 1099 640 1056 q 551 1183 585 1142 q 620 1196 581 1194 q 694 1190 660 1197 q 719 1100 706 1149 q 751 1004 732 1051 q 715 1002 733 1001 q 672 1007 696 1003 z "}}}
